<svg xmlns="http://www.w3.org/2000/svg" width="884" height="844"><defs><clipPath id="a"><path fill="none" d="M137.763 21.974H818.5v306.33H137.763V21.975z"/></clipPath><clipPath id="b"><path fill="none" d="M82.663 21.974h50v306.33h-50V21.975z"/></clipPath><clipPath id="c"><path fill="none" d="M823.6 21.974h40v306.33h-40V21.975z"/></clipPath></defs><path fill="#FFF" paint-order="stroke fill markers" d="M-.5-.5h885v845H-.5z"/><path fill="#FFF" paint-order="stroke fill markers" d="M-.5-.5h885v845H-.5z"/><g clip-path="url(#a)"><path fill="#DCDCDC" paint-order="stroke fill markers" d="M140.666 26.58h28.224v92.898h-28.224z"/><path fill="#F00" paint-order="stroke fill markers" d="M140.666 26.58h28.224v92.898h-28.224z"/><path fill="#090" paint-order="stroke fill markers" d="M140.666 58.917h28.224V87.14h-28.224z"/><path fill="#DCDCDC" paint-order="stroke fill markers" d="M140.666 128.69h28.224v92.898h-28.224z"/><path fill="#F00" paint-order="stroke fill markers" d="M140.666 128.69h28.224v92.898h-28.224z"/><path fill="#090" paint-order="stroke fill markers" d="M140.666 161.027h28.224v28.224h-28.224z"/><path fill="#DCDCDC" paint-order="stroke fill markers" d="M140.666 230.8h28.224v92.898h-28.224z"/><path fill="#F00" paint-order="stroke fill markers" d="M140.666 230.8h28.224v92.898h-28.224z"/><path fill="#DCDCDC" paint-order="stroke fill markers" d="M174.696 26.58h28.224v92.898h-28.224z"/><path fill="#F00" paint-order="stroke fill markers" d="M174.696 26.58h28.224v92.898h-28.224z"/><path fill="#DCDCDC" paint-order="stroke fill markers" d="M174.696 128.69h28.224v92.898h-28.224z"/><path fill="#F00" paint-order="stroke fill markers" d="M174.696 128.69h28.224v92.898h-28.224z"/><path fill="#DCDCDC" paint-order="stroke fill markers" d="M174.696 230.8h28.224v92.898h-28.224z"/><path fill="#F00" paint-order="stroke fill markers" d="M174.696 230.8h28.224v92.898h-28.224z"/><path fill="#090" paint-order="stroke fill markers" d="M174.696 263.137h28.224v28.224h-28.224z"/><path fill="#DCDCDC" paint-order="stroke fill markers" d="M208.726 26.58h28.224v92.898h-28.224z"/><path fill="#090" paint-order="stroke fill markers" d="M208.726 58.917h28.224V87.14h-28.224z"/><path fill="#DCDCDC" paint-order="stroke fill markers" d="M208.726 128.69h28.224v92.898h-28.224z"/><path fill="#F00" paint-order="stroke fill markers" d="M208.726 128.69h28.224v92.898h-28.224z"/><path fill="#DCDCDC" paint-order="stroke fill markers" d="M208.726 230.8h28.224v92.898h-28.224z"/><path fill="#F00" paint-order="stroke fill markers" d="M208.726 230.8h28.224v92.898h-28.224z"/><path fill="#090" paint-order="stroke fill markers" d="M208.726 263.137h28.224v28.224h-28.224z"/><path fill="#DCDCDC" paint-order="stroke fill markers" d="M242.756 26.58h28.224v92.898h-28.224z"/><path fill="#090" paint-order="stroke fill markers" d="M242.756 58.917h28.224V87.14h-28.224z"/><path fill="#DCDCDC" paint-order="stroke fill markers" d="M242.756 128.69h28.224v92.898h-28.224z"/><path fill="#090" paint-order="stroke fill markers" d="M242.756 161.027h28.224v28.224h-28.224z"/><path fill="#DCDCDC" paint-order="stroke fill markers" d="M242.756 230.8h28.224v92.898h-28.224zM276.786 26.58h28.224v92.898h-28.224z"/><path fill="#090" paint-order="stroke fill markers" d="M276.786 58.917h28.224V87.14h-28.224z"/><path fill="#DCDCDC" paint-order="stroke fill markers" d="M276.786 128.69h28.224v92.898h-28.224zM276.786 230.8h28.224v92.898h-28.224z"/><path fill="#00F" paint-order="stroke fill markers" d="M276.786 230.8h28.224v92.898h-28.224z"/><path fill="#DCDCDC" paint-order="stroke fill markers" d="M310.816 26.58h28.224v92.898h-28.224z"/><path fill="#090" paint-order="stroke fill markers" d="M310.816 58.917h28.224V87.14h-28.224z"/><path fill="#DCDCDC" paint-order="stroke fill markers" d="M310.816 128.69h28.224v92.898h-28.224zM310.816 230.8h28.224v92.898h-28.224z"/><path fill="#090" paint-order="stroke fill markers" d="M310.816 263.137h28.224v28.224h-28.224z"/><path fill="#DCDCDC" paint-order="stroke fill markers" d="M344.846 26.58h28.224v92.898h-28.224zM344.846 128.69h28.224v92.898h-28.224zM344.846 230.8h28.224v92.898h-28.224z"/><path fill="#090" paint-order="stroke fill markers" d="M344.846 263.137h28.224v28.224h-28.224z"/><path fill="#DCDCDC" paint-order="stroke fill markers" d="M378.876 26.58H407.1v92.898h-28.224z"/><g><path fill="#DCDCDC" paint-order="stroke fill markers" d="M378.876 128.69H407.1v92.898h-28.224z"/></g><g><path fill="#090" paint-order="stroke fill markers" d="M378.876 161.027H407.1v28.224h-28.224z"/></g><g><path fill="#DCDCDC" paint-order="stroke fill markers" d="M378.876 230.8H407.1v92.898h-28.224z"/></g><g><path fill="#DCDCDC" paint-order="stroke fill markers" d="M412.906 26.58h28.224v92.898h-28.224z"/></g><g><path fill="#DCDCDC" paint-order="stroke fill markers" d="M412.906 128.69h28.224v92.898h-28.224z"/></g><g><path fill="#DCDCDC" paint-order="stroke fill markers" d="M412.906 230.8h28.224v92.898h-28.224z"/></g><g><path fill="#00F" paint-order="stroke fill markers" d="M412.906 230.8h28.224v92.898h-28.224z"/></g><g><path fill="#DCDCDC" paint-order="stroke fill markers" d="M446.936 26.58h28.224v92.898h-28.224z"/></g><g><path fill="#00F" paint-order="stroke fill markers" d="M446.936 26.58h28.224v92.898h-28.224z"/></g><g><path fill="#DCDCDC" paint-order="stroke fill markers" d="M446.936 128.69h28.224v92.898h-28.224z"/></g><g><path fill="#DCDCDC" paint-order="stroke fill markers" d="M446.936 230.8h28.224v92.898h-28.224z"/></g><g><path fill="#DCDCDC" paint-order="stroke fill markers" d="M480.966 26.58h28.224v92.898h-28.224z"/></g><g><path fill="#DCDCDC" paint-order="stroke fill markers" d="M480.966 128.69h28.224v92.898h-28.224z"/></g><g><path fill="#DCDCDC" paint-order="stroke fill markers" d="M480.966 230.8h28.224v92.898h-28.224z"/></g><g><path fill="#DCDCDC" paint-order="stroke fill markers" d="M514.996 26.58h28.224v92.898h-28.224z"/></g><g><path fill="#DCDCDC" paint-order="stroke fill markers" d="M514.996 128.69h28.224v92.898h-28.224z"/></g><g><path fill="#DCDCDC" paint-order="stroke fill markers" d="M514.996 230.8h28.224v92.898h-28.224z"/></g><g><path fill="#DCDCDC" paint-order="stroke fill markers" d="M549.026 26.58h28.224v92.898h-28.224z"/></g><g><path fill="#DCDCDC" paint-order="stroke fill markers" d="M549.026 128.69h28.224v92.898h-28.224z"/></g><g><path fill="#DCDCDC" paint-order="stroke fill markers" d="M549.026 230.8h28.224v92.898h-28.224z"/></g><g><path fill="#DCDCDC" paint-order="stroke fill markers" d="M583.056 26.58h28.224v92.898h-28.224z"/></g><g><path fill="#DCDCDC" paint-order="stroke fill markers" d="M583.056 128.69h28.224v92.898h-28.224z"/></g><g><path fill="#DCDCDC" paint-order="stroke fill markers" d="M583.056 230.8h28.224v92.898h-28.224z"/></g><g><path fill="#DCDCDC" paint-order="stroke fill markers" d="M617.086 26.58h28.224v92.898h-28.224z"/></g><g><path fill="#DCDCDC" paint-order="stroke fill markers" d="M617.086 128.69h28.224v92.898h-28.224z"/></g><g><path fill="#DCDCDC" paint-order="stroke fill markers" d="M617.086 230.8h28.224v92.898h-28.224z"/></g><g><path fill="#DCDCDC" paint-order="stroke fill markers" d="M651.116 26.58h28.224v92.898h-28.224z"/></g><g><path fill="#DCDCDC" paint-order="stroke fill markers" d="M651.116 128.69h28.224v92.898h-28.224z"/></g><g><path fill="#DCDCDC" paint-order="stroke fill markers" d="M651.116 230.8h28.224v92.898h-28.224z"/></g><g><path fill="#DCDCDC" paint-order="stroke fill markers" d="M685.146 26.58h28.224v92.898h-28.224z"/></g><g><path fill="#DCDCDC" paint-order="stroke fill markers" d="M685.146 128.69h28.224v92.898h-28.224z"/></g><g><path fill="#DCDCDC" paint-order="stroke fill markers" d="M685.146 230.8h28.224v92.898h-28.224z"/></g><g><path fill="#DCDCDC" paint-order="stroke fill markers" d="M719.176 26.58H747.4v92.898h-28.224z"/></g><g><path fill="#DCDCDC" paint-order="stroke fill markers" d="M719.176 128.69H747.4v92.898h-28.224z"/></g><g><path fill="#DCDCDC" paint-order="stroke fill markers" d="M719.176 230.8H747.4v92.898h-28.224z"/></g><g><path fill="#DCDCDC" paint-order="stroke fill markers" d="M753.206 26.58h28.224v92.898h-28.224z"/></g><g><path fill="#DCDCDC" paint-order="stroke fill markers" d="M753.206 128.69h28.224v92.898h-28.224z"/></g><g><path fill="#DCDCDC" paint-order="stroke fill markers" d="M753.206 230.8h28.224v92.898h-28.224z"/></g><g><path fill="#DCDCDC" paint-order="stroke fill markers" d="M787.236 26.58h28.224v92.898h-28.224z"/></g><g><path fill="#DCDCDC" paint-order="stroke fill markers" d="M787.236 128.69h28.224v92.898h-28.224z"/></g><g><path fill="#DCDCDC" paint-order="stroke fill markers" d="M787.236 230.8h28.224v92.898h-28.224z"/></g></g><text font-family="Arial" font-size="15" text-decoration="normal" text-anchor="end" dominant-baseline="central" transform="translate(77.563 73.03)">Variable1</text><text font-family="Arial" font-size="15" text-decoration="normal" text-anchor="end" dominant-baseline="central" transform="translate(77.563 175.14)">Variable2</text><text font-family="Arial" font-size="15" text-decoration="normal" text-anchor="end" dominant-baseline="central" transform="translate(77.563 277.25)">Variable3</text><text font-family="Arial" font-size="15" text-decoration="normal" text-anchor="end" dominant-baseline="central" transform="rotate(-90 245.442 87.964)">Sample1</text><text font-family="Arial" font-size="15" text-decoration="normal" text-anchor="end" dominant-baseline="central" transform="rotate(-90 262.457 70.95)">Sample2</text><text font-family="Arial" font-size="15" text-decoration="normal" text-anchor="end" dominant-baseline="central" transform="rotate(-90 279.472 53.934)">Sample3</text><text font-family="Arial" font-size="15" text-decoration="normal" text-anchor="end" dominant-baseline="central" transform="rotate(-90 296.487 36.92)">Sample4</text><text font-family="Arial" font-size="15" text-decoration="normal" text-anchor="end" dominant-baseline="central" transform="rotate(-90 313.502 19.904)">Sample14</text><text font-family="Arial" font-size="15" text-decoration="normal" text-anchor="end" dominant-baseline="central" transform="rotate(-90 330.517 2.89)">Sample19</text><text font-family="Arial" font-size="15" text-decoration="normal" text-anchor="end" dominant-baseline="central" transform="rotate(-90 347.532 -14.126)">Sample7</text><text font-family="Arial" font-size="15" text-decoration="normal" text-anchor="end" dominant-baseline="central" transform="rotate(-90 364.547 -31.14)">Sample9</text><text font-family="Arial" font-size="15" text-decoration="normal" text-anchor="end" dominant-baseline="central" transform="rotate(-90 381.562 -48.156)">Sample8</text><text font-family="Arial" font-size="15" text-decoration="normal" text-anchor="end" dominant-baseline="central" transform="rotate(-90 398.577 -65.17)">Sample20</text><text font-family="Arial" font-size="15" text-decoration="normal" text-anchor="end" dominant-baseline="central" transform="rotate(-90 415.592 -82.186)">Sample13</text><text font-family="Arial" font-size="15" text-decoration="normal" text-anchor="end" dominant-baseline="central" transform="rotate(-90 432.607 -99.2)">Sample17</text><text font-family="Arial" font-size="15" text-decoration="normal" text-anchor="end" dominant-baseline="central" transform="rotate(-90 449.622 -116.216)">Sample11</text><text font-family="Arial" font-size="15" text-decoration="normal" text-anchor="end" dominant-baseline="central" transform="rotate(-90 466.637 -133.23)">Sample10</text><text font-family="Arial" font-size="15" text-decoration="normal" text-anchor="end" dominant-baseline="central" transform="rotate(-90 483.652 -150.246)">Sample15</text><text font-family="Arial" font-size="15" text-decoration="normal" text-anchor="end" dominant-baseline="central" transform="rotate(-90 500.667 -167.26)">Sample16</text><text font-family="Arial" font-size="15" text-decoration="normal" text-anchor="end" dominant-baseline="central" transform="rotate(-90 517.682 -184.276)">Sample12</text><text font-family="Arial" font-size="15" text-decoration="normal" text-anchor="end" dominant-baseline="central" transform="rotate(-90 534.697 -201.29)">Sample6</text><text font-family="Arial" font-size="15" text-decoration="normal" text-anchor="end" dominant-baseline="central" transform="rotate(-90 551.712 -218.306)">Sample5</text><text font-family="Arial" font-size="15" text-decoration="normal" text-anchor="end" dominant-baseline="central" transform="rotate(-90 568.727 -235.32)">Sample18</text><g clip-path="url(#b)"><path fill="#FE296C" stroke="#000" paint-order="fill stroke markers" d="M122.563 21.474h10.6v103.11h-10.6z" stroke-linejoin="mitter" stroke-miterlimit="10"/><path fill="#487EB6" stroke="#000" paint-order="fill stroke markers" d="M117.763 21.474h5.8v103.11h-5.8z" stroke-linejoin="mitter" stroke-miterlimit="10"/><path fill="#A7CE31" stroke="#000" paint-order="fill stroke markers" d="M93.763 21.474h25v103.11h-25z" stroke-linejoin="mitter" stroke-miterlimit="10"/><path fill="#FE296C" stroke="#000" paint-order="fill stroke markers" d="M117.763 123.584h15.4v103.11h-15.4z" stroke-linejoin="mitter" stroke-miterlimit="10"/><g><path fill="#A7CE31" stroke="#000" paint-order="fill stroke markers" d="M103.363 123.584h15.4v103.11h-15.4z" stroke-linejoin="mitter" stroke-miterlimit="10"/></g><g><path fill="#FE296C" stroke="#000" paint-order="fill stroke markers" d="M117.763 225.694h15.4v103.11h-15.4z" stroke-linejoin="mitter" stroke-miterlimit="10"/></g><g><path fill="#487EB6" stroke="#000" paint-order="fill stroke markers" d="M108.163 225.694h10.6v103.11h-10.6z" stroke-linejoin="mitter" stroke-miterlimit="10"/></g><g><path fill="#A7CE31" stroke="#000" paint-order="fill stroke markers" d="M88.963 225.694h20.2v103.11h-20.2z" stroke-linejoin="mitter" stroke-miterlimit="10"/></g></g><path fill="none" stroke="#CCC" paint-order="fill stroke markers" d="M133.5 16.874v5.1" stroke-miterlimit="10"/><text font-family="Arial" font-size="12" text-decoration="normal" dominant-baseline="central" transform="rotate(-90 73.494 -59.17)">0</text><path fill="none" stroke="#CCC" paint-order="fill stroke markers" d="M109.5 16.874v5.1" stroke-miterlimit="10"/><text font-family="Arial" font-size="12" text-decoration="normal" dominant-baseline="central" transform="rotate(-90 61.494 -47.17)">5</text><path fill="none" stroke="#CCC" paint-order="fill stroke markers" d="M85.5 16.874v5.1" stroke-miterlimit="10"/><text font-family="Arial" font-size="12" text-decoration="normal" dominant-baseline="central" transform="rotate(-90 49.494 -35.17)">10</text><path fill="none" stroke="#CCC" paint-order="fill stroke markers" d="M82.163 21.474h51v307.33h-51z" stroke-linejoin="mitter" stroke-miterlimit="10"/><text fill="#A7CE31" font-family="Arial" font-size="12" text-decoration="normal" text-anchor="end" dominant-baseline="central" transform="rotate(-90 214.284 119.12)">Altered</text><text fill="#487EB6" font-family="Arial" font-size="12" text-decoration="normal" text-anchor="end" dominant-baseline="central" transform="rotate(-90 220.534 112.87)">Deleted</text><text fill="#FE296C" font-family="Arial" font-size="12" text-decoration="normal" text-anchor="end" dominant-baseline="central" transform="rotate(-90 226.784 106.62)">Amplified</text><g clip-path="url(#c)"><path fill="#F8CC03" stroke="#000" paint-order="fill stroke markers" d="M823.1 22.474h26.333v101.11H823.1z" stroke-linejoin="mitter" stroke-miterlimit="10"/><path fill="#F8CC03" paint-order="stroke fill markers" d="M822.6 124.584h2v101.11h-2z"/><g><path fill="#F8CC03" stroke="#000" paint-order="fill stroke markers" d="M823.1 226.694h39v101.11h-39z" stroke-linejoin="mitter" stroke-miterlimit="10"/></g></g><path fill="none" stroke="#CCC" paint-order="fill stroke markers" d="M824.5 16.874v5.1" stroke-miterlimit="10"/><text font-family="Arial" font-size="12" text-decoration="normal" text-anchor="end" dominant-baseline="central" transform="rotate(90 404.638 418.962)">6</text><path fill="none" stroke="#CCC" paint-order="fill stroke markers" d="M836.5 16.874v5.1" stroke-miterlimit="10"/><text font-family="Arial" font-size="12" text-decoration="normal" text-anchor="end" dominant-baseline="central" transform="rotate(90 410.97 425.295)">7</text><path fill="none" stroke="#CCC" paint-order="fill stroke markers" d="M849.5 16.874v5.1" stroke-miterlimit="10"/><text font-family="Arial" font-size="12" text-decoration="normal" text-anchor="end" dominant-baseline="central" transform="rotate(90 417.305 431.63)">8</text><path fill="none" stroke="#CCC" paint-order="fill stroke markers" d="M862.5 16.874v5.1" stroke-miterlimit="10"/><text font-family="Arial" font-size="12" text-decoration="normal" text-anchor="end" dominant-baseline="central" transform="rotate(90 423.638 437.962)">9</text><path fill="none" stroke="#CCC" paint-order="fill stroke markers" d="M823.1 21.474h41v307.33h-41z" stroke-linejoin="mitter" stroke-miterlimit="10"/><text fill="#F8CC03" font-family="Arial" font-size="12" text-decoration="normal" dominant-baseline="central" transform="rotate(90 255.097 588.503)">Mutated</text><path fill="#FFF" paint-order="stroke fill markers" d="M142.263 400.85h308.8v41.2h-308.8z"/><path fill="#F00" stroke="#000" paint-order="fill stroke markers" d="M147.263 405.85h11v31h-11z" stroke-linejoin="mitter" stroke-miterlimit="10"/><g><text font-family="Arial" font-size="15" text-decoration="normal" dominant-baseline="central" transform="translate(167.863 421.35)">Amplification</text></g><g><path fill="#00F" stroke="#000" paint-order="fill stroke markers" d="M272.397 405.85h11v31h-11z" stroke-linejoin="mitter" stroke-miterlimit="10"/></g><g><text font-family="Arial" font-size="15" text-decoration="normal" dominant-baseline="central" transform="translate(292.997 421.35)">Deletion</text></g><g><path fill="#DCDCDC" stroke="#000" paint-order="fill stroke markers" d="M367.532 405.85h11v31h-11z" stroke-linejoin="mitter" stroke-miterlimit="10"/></g><g><path fill="#090" stroke="#000" paint-order="fill stroke markers" d="M367.532 415.85h11v11h-11z" stroke-linejoin="mitter" stroke-miterlimit="10"/></g><g><text font-family="Arial" font-size="15" text-decoration="normal" dominant-baseline="central" transform="translate(388.132 421.35)">Mutation</text></g></svg>