<svg xmlns="http://www.w3.org/2000/svg" xmlns:xlink="http://www.w3.org/1999/xlink" width="686" height="686"><path fill="#FFF" paint-order="stroke fill markers" d="M-.5-.5h687v687H-.5z"/><path fill="#FFF" paint-order="stroke fill markers" d="M-.5-.5h687v687H-.5z"/><g><g transform="matrix(1.2238 0 0 1.2238 351.766 365.943)"><image width="525" height="400" preserveAspectRatio="none" transform="translate(-262.5 -200)" xlink:href="https://canvasxpress.org/images/cell.png"/></g><path fill="none" stroke="#330CFF" paint-order="fill stroke markers" d="M251.295 249.202a141.358 141.358 0 0 1-64.01 271.538" stroke-miterlimit="10" stroke-width="3.67143"/><path fill="#330CFF" paint-order="stroke fill markers" d="M182.39 520.788l17.275 14.518-.286-29.37-16.99 14.852z"/><path fill="none" stroke="#330CFF" paint-order="fill stroke markers" d="M514.79 407.352a65.603 65.603 0 0 1-17.804-125.08" stroke-miterlimit="10" stroke-width="3.67143"/><path fill="#330CFF" paint-order="stroke fill markers" d="M501.298 279.954l-22.043-4.827L493.157 301l8.14-21.046z"/><path fill="none" stroke="#330CFF" paint-order="fill stroke markers" d="M363.122 202.244l1.796 315.553" stroke-miterlimit="10" stroke-width="3.67143"/><path fill="#330CFF" stroke="#330CFF" paint-order="fill stroke markers" d="M364.946 522.692l14.588-17.217-29.37.167 14.782 17.05zM531.98 277.37c34.905 0 34.905.237 69.808.237" stroke-miterlimit="10" stroke-width="3.67143"/><path fill="#330CFF" stroke="#330CFF" paint-order="fill stroke markers" d="M606.683 277.607L589.55 262.92v29.373l17.133-14.686zm-482.586-35.3c36.426 0 36.426-1.236 72.85-1.236" stroke-miterlimit="10" stroke-width="3.67143"/><path fill="#330CFF" paint-order="stroke fill markers" d="M201.843 241.07l-17.133-14.685v29.372l17.133-14.686z"/><g transform="matrix(1.2238 0 0 1.2238 224.558 241.07)"><image width="40" height="40" preserveAspectRatio="none" transform="translate(-20 -20)" xlink:href="https://canvasxpress.org/images/prot.png"/></g><text fill="#1D222B" font-family="Arial" font-size="25" text-decoration="normal" text-anchor="middle" dominant-baseline="central" transform="matrix(1.2238 0 0 1.2238 224.558 241.07)">Gene1</text><path fill="#F00" stroke="#000" paint-order="fill stroke markers" d="M181.682 518.362a12.238 12.238 0 1 0 0 .013z" stroke-linejoin="mitter" stroke-miterlimit="10" stroke-width="1.22381"/><text fill="#1D222B" font-family="Arial" font-size="25" text-decoration="normal" text-anchor="middle" dominant-baseline="central" transform="matrix(1.2238 0 0 1.2238 169.444 518.362)">Gene2</text><path fill="#F00" stroke="#000" paint-order="fill stroke markers" d="M526.4 277.37a12.238 12.238 0 1 0 0 .012z" stroke-linejoin="mitter" stroke-miterlimit="10" stroke-width="1.22381"/><text fill="#1D222B" font-family="Arial" font-size="25" text-decoration="normal" text-anchor="middle" dominant-baseline="central" transform="matrix(1.2238 0 0 1.2238 514.162 277.37)">Gene3</text><path fill="#F00" stroke="#000" paint-order="fill stroke markers" d="M544.89 407.266a12.238 12.238 0 1 0 0 .012z" stroke-linejoin="mitter" stroke-miterlimit="10" stroke-width="1.22381"/><text fill="#1D222B" font-family="Arial" font-size="25" text-decoration="normal" text-anchor="middle" dominant-baseline="central" transform="matrix(1.2238 0 0 1.2238 532.65 407.266)">Receptor Gene4</text><path fill="#F00" stroke="#000" paint-order="fill stroke markers" d="M375.26 184.425a12.238 12.238 0 1 0 0 .012z" stroke-linejoin="mitter" stroke-miterlimit="10" stroke-width="1.22381"/><text fill="#1D222B" font-family="Arial" font-size="25" text-decoration="normal" text-anchor="middle" dominant-baseline="central" transform="matrix(1.2238 0 0 1.2238 363.02 184.425)">Gene5</text><g transform="matrix(1.2238 0 0 1.2238 365.075 545.406)"><image width="40" height="40" preserveAspectRatio="none" transform="translate(-20 -20)" xlink:href="https://canvasxpress.org/images/met.png"/></g><g transform="matrix(1.2238 0 0 1.2238 96.487 242.308)"><image width="40" height="40" preserveAspectRatio="none" transform="translate(-20 -20)" xlink:href="https://canvasxpress.org/images/prot7.png"/></g><text fill="#1D222B" font-family="Arial" font-size="25" text-decoration="normal" text-anchor="middle" dominant-baseline="central" transform="matrix(1.2238 0 0 1.2238 96.487 242.308)">Gene7</text><g transform="matrix(1.2238 0 0 1.2238 629.397 277.607)"><image width="40" height="40" preserveAspectRatio="none" transform="translate(-20 -20)" xlink:href="https://canvasxpress.org/images/dna1.png"/></g><path fill="#FE296C" paint-order="stroke fill markers" d="M206.813 214.788h11.014v2.448h-11.014z"/><path fill="#487EB6" stroke="#000" paint-order="fill stroke markers" d="M219.05 208.99h11.015v8.217H219.05z" stroke-linejoin="mitter" stroke-miterlimit="10" stroke-width="1.22381"/><path fill="#A7CE31" stroke="#000" paint-order="fill stroke markers" d="M231.29 197.334h11.013v19.873H231.29z" stroke-linejoin="mitter" stroke-miterlimit="10" stroke-width="1.22381"/><path fill="#FE296C" stroke="#000" paint-order="fill stroke markers" d="M151.7 486.28h11.013v8.218H151.7z" stroke-linejoin="mitter" stroke-miterlimit="10" stroke-width="1.22381"/><path fill="#487EB6" stroke="#000" paint-order="fill stroke markers" d="M163.937 474.626h11.014v19.872h-11.013z" stroke-linejoin="mitter" stroke-miterlimit="10" stroke-width="1.22381"/><path fill="#A7CE31" paint-order="stroke fill markers" d="M176.175 492.08h11.015v2.447h-11.015z"/><path fill="#FE296C" paint-order="stroke fill markers" d="M496.417 251.087h11.014v2.448h-11.013z"/><path fill="#487EB6" stroke="#000" paint-order="fill stroke markers" d="M508.655 227.805h11.015v25.7h-11.015z" stroke-linejoin="mitter" stroke-miterlimit="10" stroke-width="1.22381"/><path fill="#A7CE31" paint-order="stroke fill markers" d="M520.893 251.087h11.015v2.448h-11.015z"/><path fill="#FE296C" stroke="#000" paint-order="fill stroke markers" d="M514.906 363.53h11.014V383.4h-11.014z" stroke-linejoin="mitter" stroke-miterlimit="10" stroke-width="1.22381"/><path fill="#487EB6" stroke="#000" paint-order="fill stroke markers" d="M527.144 375.185h11.014v8.217h-11.014z" stroke-linejoin="mitter" stroke-miterlimit="10" stroke-width="1.22381"/><path fill="#A7CE31" paint-order="stroke fill markers" d="M539.382 380.983h11.015v2.448h-11.015z"/><path fill="#FE296C" paint-order="stroke fill markers" d="M345.275 158.142h11.015v2.448h-11.015z"/><path fill="#487EB6" stroke="#000" paint-order="fill stroke markers" d="M357.513 146.516h11.015v14.045h-11.015z" stroke-linejoin="mitter" stroke-miterlimit="10" stroke-width="1.22381"/><path fill="#A7CE31" stroke="#000" paint-order="fill stroke markers" d="M369.752 152.344h11.014v8.217h-11.014z" stroke-linejoin="mitter" stroke-miterlimit="10" stroke-width="1.22381"/><path fill="#FE296C" stroke="#000" paint-order="fill stroke markers" d="M78.742 204.4h11.014v14.044H78.742z" stroke-linejoin="mitter" stroke-miterlimit="10" stroke-width="1.22381"/><g><path fill="#487EB6" stroke="#000" paint-order="fill stroke markers" d="M90.98 204.4h11.014v14.044H90.98z" stroke-linejoin="mitter" stroke-miterlimit="10" stroke-width="1.22381"/></g><g><path fill="#A7CE31" stroke="#000" paint-order="fill stroke markers" d="M103.218 198.57h11.014v19.874h-11.014z" stroke-linejoin="mitter" stroke-miterlimit="10" stroke-width="1.22381"/></g><g><path fill="#F00" stroke="#000" paint-order="fill stroke markers" d="M71.39 88.382a12.238 12.238 0 1 0 0 .012z" stroke-linejoin="mitter" stroke-miterlimit="10" stroke-width="1.22381"/></g><g><text fill="#1D222B" font-family="Arial" font-size="20" text-decoration="normal" dominant-baseline="central" transform="matrix(1.2238 0 0 1.2238 81.426 88.382)">Gene</text></g><g><path fill="none" paint-order="fill stroke markers" d="M45.2 60.6h107.696v50.178H45.2z"/></g><path fill="none" stroke="#1D222B" paint-order="fill stroke markers" d="M491.403 83.854h19.458" stroke-miterlimit="10" stroke-width="1.22381"/><path fill="#1D222B" paint-order="stroke fill markers" d="M515.757 83.364l-17.134-4.895v9.79l17.134-4.896z"/><g><text fill="#1D222B" font-family="Arial" font-size="20" text-decoration="normal" dominant-baseline="central" transform="matrix(1.2238 0 0 1.2238 520.897 83.364)">Activate</text></g><g><path fill="none" paint-order="fill stroke markers" d="M485.773 59.378H613.05v50.176H485.773z"/></g><g><text fill="#1D222B" font-family="Arial" font-size="20" text-decoration="normal" dominant-baseline="central" transform="matrix(1.2238 0 0 1.2238 234.28 640.077)">Cool Pathway</text></g><g><path fill="none" paint-order="fill stroke markers" d="M228.773 622.33h161.543v35.492H228.773z"/></g><g><path fill="#FE296C" stroke="#000" paint-order="fill stroke markers" d="M145.064 153.122a6.12 6.12 0 1 0 0 .006z" stroke-linejoin="mitter" stroke-miterlimit="10" stroke-width="1.22381"/></g><g><text fill="#1D222B" font-family="Arial" font-size="10" text-decoration="normal" dominant-baseline="central" transform="matrix(1.2238 0 0 1.2238 150.08 153.122)">exp1</text></g><g><path fill="#487EB6" stroke="#000" paint-order="fill stroke markers" d="M145.064 171.48a6.12 6.12 0 1 0 0 .005z" stroke-linejoin="mitter" stroke-miterlimit="10" stroke-width="1.22381"/></g><g><text fill="#1D222B" font-family="Arial" font-size="10" text-decoration="normal" dominant-baseline="central" transform="matrix(1.2238 0 0 1.2238 150.08 171.48)">exp2</text></g><g><path fill="#A7CE31" stroke="#000" paint-order="fill stroke markers" d="M145.064 189.836a6.12 6.12 0 1 0 0 .006z" stroke-linejoin="mitter" stroke-miterlimit="10" stroke-width="1.22381"/></g><g><text fill="#1D222B" font-family="Arial" font-size="10" text-decoration="normal" dominant-baseline="central" transform="matrix(1.2238 0 0 1.2238 150.08 189.836)">exp3</text></g><g><path fill="none" paint-order="fill stroke markers" d="M127.196 135.254h55.072v67.31h-55.072z"/></g><g><path fill="#FFF" paint-order="stroke fill markers" d="M-.5-.5h687v687H-.5z"/><path fill="#FFF" paint-order="stroke fill markers" d="M-.5-.5h687v687H-.5z"/><g><g transform="matrix(1.2238 0 0 1.2238 351.766 365.943)"><image width="525" height="400" preserveAspectRatio="none" transform="translate(-262.5 -200)" xlink:href="https://canvasxpress.org/images/cell.png"/></g><path fill="none" stroke="#330CFF" paint-order="fill stroke markers" d="M251.295 249.202a141.358 141.358 0 0 1-64.01 271.538" stroke-miterlimit="10" stroke-width="3.67143"/><path fill="#330CFF" paint-order="stroke fill markers" d="M182.39 520.788l17.275 14.518-.286-29.37-16.99 14.852z"/><path fill="none" stroke="#330CFF" paint-order="fill stroke markers" d="M514.79 407.352a65.603 65.603 0 0 1-17.804-125.08" stroke-miterlimit="10" stroke-width="3.67143"/><path fill="#330CFF" paint-order="stroke fill markers" d="M501.298 279.954l-22.043-4.827L493.157 301l8.14-21.046z"/><path fill="none" stroke="#330CFF" paint-order="fill stroke markers" d="M363.122 202.244l1.796 315.553" stroke-miterlimit="10" stroke-width="3.67143"/><path fill="#330CFF" stroke="#330CFF" paint-order="fill stroke markers" d="M364.946 522.692l14.588-17.217-29.37.167 14.782 17.05zM531.98 277.37c34.905 0 34.905.237 69.808.237" stroke-miterlimit="10" stroke-width="3.67143"/><path fill="#330CFF" stroke="#330CFF" paint-order="fill stroke markers" d="M606.683 277.607L589.55 262.92v29.373l17.133-14.686zm-482.586-35.3c36.426 0 36.426-1.236 72.85-1.236" stroke-miterlimit="10" stroke-width="3.67143"/><path fill="#330CFF" paint-order="stroke fill markers" d="M201.843 241.07l-17.133-14.685v29.372l17.133-14.686z"/><g transform="matrix(1.2238 0 0 1.2238 224.558 241.07)"><image width="40" height="40" preserveAspectRatio="none" transform="translate(-20 -20)" xlink:href="https://canvasxpress.org/images/prot.png"/></g><text fill="#1D222B" font-family="Arial" font-size="25" text-decoration="normal" text-anchor="middle" dominant-baseline="central" transform="matrix(1.2238 0 0 1.2238 224.558 241.07)">Gene1</text><path fill="#F00" stroke="#000" paint-order="fill stroke markers" d="M181.682 518.362a12.238 12.238 0 1 0 0 .013z" stroke-linejoin="mitter" stroke-miterlimit="10" stroke-width="1.22381"/><text fill="#1D222B" font-family="Arial" font-size="25" text-decoration="normal" text-anchor="middle" dominant-baseline="central" transform="matrix(1.2238 0 0 1.2238 169.444 518.362)">Gene2</text><path fill="#F00" stroke="#000" paint-order="fill stroke markers" d="M526.4 277.37a12.238 12.238 0 1 0 0 .012z" stroke-linejoin="mitter" stroke-miterlimit="10" stroke-width="1.22381"/><text fill="#1D222B" font-family="Arial" font-size="25" text-decoration="normal" text-anchor="middle" dominant-baseline="central" transform="matrix(1.2238 0 0 1.2238 514.162 277.37)">Gene3</text><path fill="#F00" stroke="#000" paint-order="fill stroke markers" d="M544.89 407.266a12.238 12.238 0 1 0 0 .012z" stroke-linejoin="mitter" stroke-miterlimit="10" stroke-width="1.22381"/><text fill="#1D222B" font-family="Arial" font-size="25" text-decoration="normal" text-anchor="middle" dominant-baseline="central" transform="matrix(1.2238 0 0 1.2238 532.65 407.266)">Receptor Gene4</text><path fill="#F00" stroke="#000" paint-order="fill stroke markers" d="M375.26 184.425a12.238 12.238 0 1 0 0 .012z" stroke-linejoin="mitter" stroke-miterlimit="10" stroke-width="1.22381"/><text fill="#1D222B" font-family="Arial" font-size="25" text-decoration="normal" text-anchor="middle" dominant-baseline="central" transform="matrix(1.2238 0 0 1.2238 363.02 184.425)">Gene5</text><g transform="matrix(1.2238 0 0 1.2238 365.075 545.406)"><image width="40" height="40" preserveAspectRatio="none" transform="translate(-20 -20)" xlink:href="https://canvasxpress.org/images/met.png"/></g><g transform="matrix(1.2238 0 0 1.2238 96.487 242.308)"><image width="40" height="40" preserveAspectRatio="none" transform="translate(-20 -20)" xlink:href="https://canvasxpress.org/images/prot7.png"/></g><text fill="#1D222B" font-family="Arial" font-size="25" text-decoration="normal" text-anchor="middle" dominant-baseline="central" transform="matrix(1.2238 0 0 1.2238 96.487 242.308)">Gene7</text><g transform="matrix(1.2238 0 0 1.2238 629.397 277.607)"><image width="40" height="40" preserveAspectRatio="none" transform="translate(-20 -20)" xlink:href="https://canvasxpress.org/images/dna1.png"/></g><path fill="#FE296C" paint-order="stroke fill markers" d="M206.813 214.788h11.014v2.448h-11.014z"/><path fill="#487EB6" stroke="#000" paint-order="fill stroke markers" d="M219.05 208.99h11.015v8.217H219.05z" stroke-linejoin="mitter" stroke-miterlimit="10" stroke-width="1.22381"/><path fill="#A7CE31" stroke="#000" paint-order="fill stroke markers" d="M231.29 197.334h11.013v19.873H231.29z" stroke-linejoin="mitter" stroke-miterlimit="10" stroke-width="1.22381"/><path fill="#FE296C" stroke="#000" paint-order="fill stroke markers" d="M151.7 486.28h11.013v8.218H151.7z" stroke-linejoin="mitter" stroke-miterlimit="10" stroke-width="1.22381"/><path fill="#487EB6" stroke="#000" paint-order="fill stroke markers" d="M163.937 474.626h11.014v19.872h-11.013z" stroke-linejoin="mitter" stroke-miterlimit="10" stroke-width="1.22381"/><path fill="#A7CE31" paint-order="stroke fill markers" d="M176.175 492.08h11.015v2.447h-11.015z"/><path fill="#FE296C" paint-order="stroke fill markers" d="M496.417 251.087h11.014v2.448h-11.013z"/><path fill="#487EB6" stroke="#000" paint-order="fill stroke markers" d="M508.655 227.805h11.015v25.7h-11.015z" stroke-linejoin="mitter" stroke-miterlimit="10" stroke-width="1.22381"/><path fill="#A7CE31" paint-order="stroke fill markers" d="M520.893 251.087h11.015v2.448h-11.015z"/><path fill="#FE296C" stroke="#000" paint-order="fill stroke markers" d="M514.906 363.53h11.014V383.4h-11.014z" stroke-linejoin="mitter" stroke-miterlimit="10" stroke-width="1.22381"/><path fill="#487EB6" stroke="#000" paint-order="fill stroke markers" d="M527.144 375.185h11.014v8.217h-11.014z" stroke-linejoin="mitter" stroke-miterlimit="10" stroke-width="1.22381"/><path fill="#A7CE31" paint-order="stroke fill markers" d="M539.382 380.983h11.015v2.448h-11.015z"/><path fill="#FE296C" paint-order="stroke fill markers" d="M345.275 158.142h11.015v2.448h-11.015z"/><path fill="#487EB6" stroke="#000" paint-order="fill stroke markers" d="M357.513 146.516h11.015v14.045h-11.015z" stroke-linejoin="mitter" stroke-miterlimit="10" stroke-width="1.22381"/><path fill="#A7CE31" stroke="#000" paint-order="fill stroke markers" d="M369.752 152.344h11.014v8.217h-11.014z" stroke-linejoin="mitter" stroke-miterlimit="10" stroke-width="1.22381"/><path fill="#FE296C" stroke="#000" paint-order="fill stroke markers" d="M78.742 204.4h11.014v14.044H78.742z" stroke-linejoin="mitter" stroke-miterlimit="10" stroke-width="1.22381"/><g><path fill="#487EB6" stroke="#000" paint-order="fill stroke markers" d="M90.98 204.4h11.014v14.044H90.98z" stroke-linejoin="mitter" stroke-miterlimit="10" stroke-width="1.22381"/></g><g><path fill="#A7CE31" stroke="#000" paint-order="fill stroke markers" d="M103.218 198.57h11.014v19.874h-11.014z" stroke-linejoin="mitter" stroke-miterlimit="10" stroke-width="1.22381"/></g><g><path fill="#F00" stroke="#000" paint-order="fill stroke markers" d="M71.39 88.382a12.238 12.238 0 1 0 0 .012z" stroke-linejoin="mitter" stroke-miterlimit="10" stroke-width="1.22381"/></g><g><text fill="#1D222B" font-family="Arial" font-size="20" text-decoration="normal" dominant-baseline="central" transform="matrix(1.2238 0 0 1.2238 81.426 88.382)">Gene</text></g><g><path fill="none" paint-order="fill stroke markers" d="M45.2 60.6h107.696v50.178H45.2z"/></g><path fill="none" stroke="#1D222B" paint-order="fill stroke markers" d="M491.403 83.854h19.458" stroke-miterlimit="10" stroke-width="1.22381"/><path fill="#1D222B" paint-order="stroke fill markers" d="M515.757 83.364l-17.134-4.895v9.79l17.134-4.896z"/><g><text fill="#1D222B" font-family="Arial" font-size="20" text-decoration="normal" dominant-baseline="central" transform="matrix(1.2238 0 0 1.2238 520.897 83.364)">Activate</text></g><g><path fill="none" paint-order="fill stroke markers" d="M485.773 59.378H613.05v50.176H485.773z"/></g><g><text fill="#1D222B" font-family="Arial" font-size="20" text-decoration="normal" dominant-baseline="central" transform="matrix(1.2238 0 0 1.2238 234.28 640.077)">Cool Pathway</text></g><g><path fill="none" paint-order="fill stroke markers" d="M228.773 622.33h161.543v35.492H228.773z"/></g><g><path fill="#FE296C" stroke="#000" paint-order="fill stroke markers" d="M145.064 153.122a6.12 6.12 0 1 0 0 .006z" stroke-linejoin="mitter" stroke-miterlimit="10" stroke-width="1.22381"/></g><g><text fill="#1D222B" font-family="Arial" font-size="10" text-decoration="normal" dominant-baseline="central" transform="matrix(1.2238 0 0 1.2238 150.08 153.122)">exp1</text></g><g><path fill="#487EB6" stroke="#000" paint-order="fill stroke markers" d="M145.064 171.48a6.12 6.12 0 1 0 0 .005z" stroke-linejoin="mitter" stroke-miterlimit="10" stroke-width="1.22381"/></g><g><text fill="#1D222B" font-family="Arial" font-size="10" text-decoration="normal" dominant-baseline="central" transform="matrix(1.2238 0 0 1.2238 150.08 171.48)">exp2</text></g><g><path fill="#A7CE31" stroke="#000" paint-order="fill stroke markers" d="M145.064 189.836a6.12 6.12 0 1 0 0 .006z" stroke-linejoin="mitter" stroke-miterlimit="10" stroke-width="1.22381"/></g><g><text fill="#1D222B" font-family="Arial" font-size="10" text-decoration="normal" dominant-baseline="central" transform="matrix(1.2238 0 0 1.2238 150.08 189.836)">exp3</text></g><g><path fill="none" paint-order="fill stroke markers" d="M127.196 135.254h55.072v67.31h-55.072z"/></g></g></g></g></svg>