<svg xmlns="http://www.w3.org/2000/svg" width="844" height="844"><path fill="#FFF" paint-order="stroke fill markers" d="M-.5-.5h845v845H-.5z"/><path fill="#FE296C" stroke="#000" paint-order="fill stroke markers" d="M400.5 130.064v-18.2a331.636 331.636 0 0 1 287.205 165.818l-15.762 9.1A313.436 313.436 0 0 0 400.5 130.064z" stroke-linejoin="mitter" stroke-miterlimit="10"/><text font-family="Arial" font-size="12" text-decoration="normal" y="-322.536" text-anchor="middle" dominant-baseline="central" transform="rotate(32.596 -558.18 906.644)">X</text><text font-family="Arial" font-size="12" text-decoration="normal" y="-322.536" text-anchor="middle" dominant-baseline="central" transform="rotate(31.298 -591.35 936.6)">:</text><text font-family="Arial" font-size="12" text-decoration="normal" y="-322.536" text-anchor="middle" dominant-baseline="central" transform="rotate(30.182 -622.11 964.376)">v</text><text font-family="Arial" font-size="12" text-decoration="normal" y="-322.536" text-anchor="middle" dominant-baseline="central" transform="rotate(28.763 -664.558 1002.71)">e</text><text font-family="Arial" font-size="12" text-decoration="normal" y="-322.536" text-anchor="middle" dominant-baseline="central" transform="rotate(27.284 -713.43 1046.844)">L</text><path fill="#FE296C" stroke="#000" paint-order="fill stroke markers" d="M671.943 286.782l15.762-9.1a331.636 331.636 0 0 1 0 331.636l-15.762-9.1a313.436 313.436 0 0 0 0-313.436z" stroke-linejoin="mitter" stroke-miterlimit="10"/><text font-family="Arial" font-size="12" text-decoration="normal" y="-322.536" text-anchor="middle" dominant-baseline="central" transform="rotate(92.596 -11.674 413.127)">X</text><text font-family="Arial" font-size="12" text-decoration="normal" y="-322.536" text-anchor="middle" dominant-baseline="central" transform="rotate(91.298 -16.532 417.513)">:</text><text font-family="Arial" font-size="12" text-decoration="normal" y="-322.536" text-anchor="middle" dominant-baseline="central" transform="rotate(90.182 -20.797 421.365)">v</text><text font-family="Arial" font-size="12" text-decoration="normal" y="-322.536" text-anchor="middle" dominant-baseline="central" transform="rotate(88.763 -26.34 426.37)">e</text><text font-family="Arial" font-size="12" text-decoration="normal" y="-322.536" text-anchor="middle" dominant-baseline="central" transform="rotate(87.284 -32.27 431.726)">L</text><path fill="#487EB6" stroke="#000" paint-order="fill stroke markers" d="M671.943 600.218l15.762 9.1A331.636 331.636 0 0 1 400.5 775.136v-18.2a313.436 313.436 0 0 0 271.443-156.718z" stroke-linejoin="mitter" stroke-miterlimit="10"/><text font-family="Arial" font-size="12" text-decoration="normal" y="-322.536" text-anchor="middle" dominant-baseline="central" transform="rotate(152.596 146.185 270.573)">Y</text><text font-family="Arial" font-size="12" text-decoration="normal" y="-322.536" text-anchor="middle" dominant-baseline="central" transform="rotate(151.298 143.517 272.983)">:</text><text font-family="Arial" font-size="12" text-decoration="normal" y="-322.536" text-anchor="middle" dominant-baseline="central" transform="rotate(150.182 141.21 275.066)">v</text><text font-family="Arial" font-size="12" text-decoration="normal" y="-322.536" text-anchor="middle" dominant-baseline="central" transform="rotate(148.763 138.26 277.73)">e</text><text font-family="Arial" font-size="12" text-decoration="normal" y="-322.536" text-anchor="middle" dominant-baseline="central" transform="rotate(147.284 135.162 280.528)">L</text><path fill="#487EB6" stroke="#000" paint-order="fill stroke markers" d="M400.5 756.936v18.2a331.636 331.636 0 0 1-287.205-165.818l15.762-9.1A313.436 313.436 0 0 0 400.5 756.936z" stroke-linejoin="mitter" stroke-miterlimit="10"/><text font-family="Arial" font-size="12" text-decoration="normal" y="-322.536" text-anchor="middle" dominant-baseline="central" transform="rotate(-147.404 265.085 163.2)">Y</text><text font-family="Arial" font-size="12" text-decoration="normal" y="-322.536" text-anchor="middle" dominant-baseline="central" transform="rotate(-148.702 262.37 165.654)">:</text><text font-family="Arial" font-size="12" text-decoration="normal" y="-322.536" text-anchor="middle" dominant-baseline="central" transform="rotate(-149.818 260.045 167.752)">v</text><text font-family="Arial" font-size="12" text-decoration="normal" y="-322.536" text-anchor="middle" dominant-baseline="central" transform="rotate(-151.237 257.11 170.403)">e</text><text font-family="Arial" font-size="12" text-decoration="normal" y="-322.536" text-anchor="middle" dominant-baseline="central" transform="rotate(-152.716 254.07 173.15)">L</text><path fill="#A7CE31" stroke="#000" paint-order="fill stroke markers" d="M129.057 600.218l-15.762 9.1a331.636 331.636 0 0 1 0-331.636l15.762 9.1a313.436 313.436 0 0 0 0 313.436z" stroke-linejoin="mitter" stroke-miterlimit="10"/><text font-family="Arial" font-size="12" text-decoration="normal" y="-322.536" text-anchor="middle" dominant-baseline="central" transform="rotate(-87.404 432.28 12.216)">Z</text><text font-family="Arial" font-size="12" text-decoration="normal" y="-322.536" text-anchor="middle" dominant-baseline="central" transform="rotate(-88.64 427.324 16.692)">:</text><text font-family="Arial" font-size="12" text-decoration="normal" y="-322.536" text-anchor="middle" dominant-baseline="central" transform="rotate(-89.757 422.942 20.65)">v</text><text font-family="Arial" font-size="12" text-decoration="normal" y="-322.536" text-anchor="middle" dominant-baseline="central" transform="rotate(-91.176 417.496 25.567)">e</text><text font-family="Arial" font-size="12" text-decoration="normal" y="-322.536" text-anchor="middle" dominant-baseline="central" transform="rotate(-92.655 411.955 30.57)">L</text><path fill="#A7CE31" stroke="#000" paint-order="fill stroke markers" d="M129.057 286.782l-15.762-9.1A331.636 331.636 0 0 1 400.5 111.864v18.2a313.436 313.436 0 0 0-271.443 156.718z" stroke-linejoin="mitter" stroke-miterlimit="10"/><text font-family="Arial" font-size="12" text-decoration="normal" y="-322.536" text-anchor="middle" dominant-baseline="central" transform="rotate(-27.404 1109.76 -599.578)">Z</text><text font-family="Arial" font-size="12" text-decoration="normal" y="-322.536" text-anchor="middle" dominant-baseline="central" transform="rotate(-28.64 1068.916 -562.694)">:</text><text font-family="Arial" font-size="12" text-decoration="normal" y="-322.536" text-anchor="middle" dominant-baseline="central" transform="rotate(-29.757 1034.904 -531.98)">v</text><text font-family="Arial" font-size="12" text-decoration="normal" y="-322.536" text-anchor="middle" dominant-baseline="central" transform="rotate(-31.176 995.12 -496.053)">e</text><text font-family="Arial" font-size="12" text-decoration="normal" y="-322.536" text-anchor="middle" dominant-baseline="central" transform="rotate(-32.655 957.222 -461.83)">L</text><path fill="#FE296C" stroke="#000" paint-order="fill stroke markers" d="M400.5 153.364v-18.2a308.336 308.336 0 0 1 267.027 154.168l-15.762 9.1A290.136 290.136 0 0 0 400.5 153.364z" stroke-linejoin="mitter" stroke-miterlimit="10"/><text font-family="Arial" font-size="12" text-decoration="normal" y="-299.236" text-anchor="middle" dominant-baseline="central" transform="rotate(32.802 -553.142 902.096)">1</text><text font-family="Arial" font-size="12" text-decoration="normal" y="-299.236" text-anchor="middle" dominant-baseline="central" transform="rotate(31.53 -585.196 931.042)">:</text><text font-family="Arial" font-size="12" text-decoration="normal" y="-299.236" text-anchor="middle" dominant-baseline="central" transform="rotate(30.326 -618.006 960.67)">v</text><text font-family="Arial" font-size="12" text-decoration="normal" y="-299.236" text-anchor="middle" dominant-baseline="central" transform="rotate(28.795 -663.565 1001.813)">e</text><text font-family="Arial" font-size="12" text-decoration="normal" y="-299.236" text-anchor="middle" dominant-baseline="central" transform="rotate(27.198 -716.427 1049.55)">L</text><path fill="#487EB6" stroke="#000" paint-order="fill stroke markers" d="M651.765 298.432l15.762-9.1a308.336 308.336 0 0 1 0 308.336l-15.762-9.1a290.136 290.136 0 0 0 0-290.136z" stroke-linejoin="mitter" stroke-miterlimit="10"/><text font-family="Arial" font-size="12" text-decoration="normal" y="-299.236" text-anchor="middle" dominant-baseline="central" transform="rotate(92.802 -10.912 412.44)">2</text><text font-family="Arial" font-size="12" text-decoration="normal" y="-299.236" text-anchor="middle" dominant-baseline="central" transform="rotate(91.53 -15.65 416.718)">:</text><text font-family="Arial" font-size="12" text-decoration="normal" y="-299.236" text-anchor="middle" dominant-baseline="central" transform="rotate(90.326 -20.24 420.863)">v</text><text font-family="Arial" font-size="12" text-decoration="normal" y="-299.236" text-anchor="middle" dominant-baseline="central" transform="rotate(88.795 -26.213 426.256)">e</text><text font-family="Arial" font-size="12" text-decoration="normal" y="-299.236" text-anchor="middle" dominant-baseline="central" transform="rotate(87.198 -32.62 432.04)">L</text><path fill="#A7CE31" stroke="#000" paint-order="fill stroke markers" d="M651.765 588.568l15.762 9.1A308.336 308.336 0 0 1 400.5 751.836v-18.2a290.136 290.136 0 0 0 251.265-145.068z" stroke-linejoin="mitter" stroke-miterlimit="10"/><text font-family="Arial" font-size="12" text-decoration="normal" y="-299.236" text-anchor="middle" dominant-baseline="central" transform="rotate(152.802 146.607 270.192)">3</text><text font-family="Arial" font-size="12" text-decoration="normal" y="-299.236" text-anchor="middle" dominant-baseline="central" transform="rotate(151.53 143.997 272.55)">:</text><text font-family="Arial" font-size="12" text-decoration="normal" y="-299.236" text-anchor="middle" dominant-baseline="central" transform="rotate(150.326 141.508 274.796)">v</text><text font-family="Arial" font-size="12" text-decoration="normal" y="-299.236" text-anchor="middle" dominant-baseline="central" transform="rotate(148.795 138.326 277.67)">e</text><text font-family="Arial" font-size="12" text-decoration="normal" y="-299.236" text-anchor="middle" dominant-baseline="central" transform="rotate(147.198 134.98 280.69)">L</text><path fill="#FE296C" stroke="#000" paint-order="fill stroke markers" d="M400.5 733.636v18.2a308.336 308.336 0 0 1-267.027-154.168l15.762-9.1A290.136 290.136 0 0 0 400.5 733.636z" stroke-linejoin="mitter" stroke-miterlimit="10"/><text font-family="Arial" font-size="12" text-decoration="normal" y="-299.236" text-anchor="middle" dominant-baseline="central" transform="rotate(-147.198 265.52 162.81)">1</text><text font-family="Arial" font-size="12" text-decoration="normal" y="-299.236" text-anchor="middle" dominant-baseline="central" transform="rotate(-148.47 262.855 165.215)">:</text><text font-family="Arial" font-size="12" text-decoration="normal" y="-299.236" text-anchor="middle" dominant-baseline="central" transform="rotate(-149.674 260.345 167.482)">v</text><text font-family="Arial" font-size="12" text-decoration="normal" y="-299.236" text-anchor="middle" dominant-baseline="central" transform="rotate(-151.205 257.175 170.344)">e</text><text font-family="Arial" font-size="12" text-decoration="normal" y="-299.236" text-anchor="middle" dominant-baseline="central" transform="rotate(-152.802 253.893 173.308)">L</text><path fill="#487EB6" stroke="#000" paint-order="fill stroke markers" d="M149.235 588.568l-15.762 9.1a308.336 308.336 0 0 1 0-308.336l15.762 9.1a290.136 290.136 0 0 0 0 290.136z" stroke-linejoin="mitter" stroke-miterlimit="10"/><text font-family="Arial" font-size="12" text-decoration="normal" y="-299.236" text-anchor="middle" dominant-baseline="central" transform="rotate(-87.198 433.12 11.46)">2</text><text font-family="Arial" font-size="12" text-decoration="normal" y="-299.236" text-anchor="middle" dominant-baseline="central" transform="rotate(-88.47 428.007 16.075)">:</text><text font-family="Arial" font-size="12" text-decoration="normal" y="-299.236" text-anchor="middle" dominant-baseline="central" transform="rotate(-89.674 423.266 20.356)">v</text><text font-family="Arial" font-size="12" text-decoration="normal" y="-299.236" text-anchor="middle" dominant-baseline="central" transform="rotate(-91.205 417.385 25.668)">e</text><text font-family="Arial" font-size="12" text-decoration="normal" y="-299.236" text-anchor="middle" dominant-baseline="central" transform="rotate(-92.802 411.412 31.06)">L</text><path fill="#A7CE31" stroke="#000" paint-order="fill stroke markers" d="M149.235 298.432l-15.762-9.1A308.336 308.336 0 0 1 400.5 135.164v18.2a290.136 290.136 0 0 0-251.265 145.068z" stroke-linejoin="mitter" stroke-miterlimit="10"/><text font-family="Arial" font-size="12" text-decoration="normal" y="-299.236" text-anchor="middle" dominant-baseline="central" transform="rotate(-27.198 1116.927 -606.05)">3</text><text font-family="Arial" font-size="12" text-decoration="normal" y="-299.236" text-anchor="middle" dominant-baseline="central" transform="rotate(-28.47 1074.392 -567.64)">:</text><text font-family="Arial" font-size="12" text-decoration="normal" y="-299.236" text-anchor="middle" dominant-baseline="central" transform="rotate(-29.674 1037.36 -534.197)">v</text><text font-family="Arial" font-size="12" text-decoration="normal" y="-299.236" text-anchor="middle" dominant-baseline="central" transform="rotate(-31.205 994.336 -495.345)">e</text><text font-family="Arial" font-size="12" text-decoration="normal" y="-299.236" text-anchor="middle" dominant-baseline="central" transform="rotate(-32.802 953.642 -458.596)">L</text><path fill="#FE296C" stroke="#000" paint-order="fill stroke markers" d="M400.5 171.564v-18.2a290.136 290.136 0 0 1 251.265 145.068l-15.762 9.1A271.936 271.936 0 0 0 400.5 171.564z" stroke-linejoin="mitter" stroke-miterlimit="10"/><text font-family="Arial" font-size="12" text-decoration="normal" y="-281.036" text-anchor="middle" dominant-baseline="central" transform="rotate(32.987 -548.666 898.054)">A</text><text font-family="Arial" font-size="12" text-decoration="normal" y="-281.036" text-anchor="middle" dominant-baseline="central" transform="rotate(31.494 -586.172 931.924)">:</text><text font-family="Arial" font-size="12" text-decoration="normal" y="-281.036" text-anchor="middle" dominant-baseline="central" transform="rotate(30.21 -621.326 963.67)">v</text><text font-family="Arial" font-size="12" text-decoration="normal" y="-281.036" text-anchor="middle" dominant-baseline="central" transform="rotate(28.577 -670.448 1008.03)">e</text><text font-family="Arial" font-size="12" text-decoration="normal" y="-281.036" text-anchor="middle" dominant-baseline="central" transform="rotate(26.874 -727.9 1059.91)">L</text><path fill="#487EB6" stroke="#000" paint-order="fill stroke markers" d="M636.003 307.532l15.762-9.1a290.136 290.136 0 0 1 0 290.136l-15.762-9.1a271.936 271.936 0 0 0 0-271.936z" stroke-linejoin="mitter" stroke-miterlimit="10"/><text font-family="Arial" font-size="12" text-decoration="normal" y="-281.036" text-anchor="middle" dominant-baseline="central" transform="rotate(92.987 -10.23 411.822)">B</text><text font-family="Arial" font-size="12" text-decoration="normal" y="-281.036" text-anchor="middle" dominant-baseline="central" transform="rotate(91.494 -15.792 416.845)">:</text><text font-family="Arial" font-size="12" text-decoration="normal" y="-281.036" text-anchor="middle" dominant-baseline="central" transform="rotate(90.21 -20.69 421.27)">v</text><text font-family="Arial" font-size="12" text-decoration="normal" y="-281.036" text-anchor="middle" dominant-baseline="central" transform="rotate(88.577 -27.078 427.037)">e</text><text font-family="Arial" font-size="12" text-decoration="normal" y="-281.036" text-anchor="middle" dominant-baseline="central" transform="rotate(86.874 -33.94 433.235)">L</text><path fill="#FE296C" stroke="#000" paint-order="fill stroke markers" d="M636.003 579.468l15.762 9.1A290.136 290.136 0 0 1 400.5 733.636v-18.2a271.936 271.936 0 0 0 235.503-135.968z" stroke-linejoin="mitter" stroke-miterlimit="10"/><text font-family="Arial" font-size="12" text-decoration="normal" y="-281.036" text-anchor="middle" dominant-baseline="central" transform="rotate(152.987 146.987 269.85)">A</text><text font-family="Arial" font-size="12" text-decoration="normal" y="-281.036" text-anchor="middle" dominant-baseline="central" transform="rotate(151.494 143.92 272.618)">:</text><text font-family="Arial" font-size="12" text-decoration="normal" y="-281.036" text-anchor="middle" dominant-baseline="central" transform="rotate(150.21 141.266 275.015)">v</text><text font-family="Arial" font-size="12" text-decoration="normal" y="-281.036" text-anchor="middle" dominant-baseline="central" transform="rotate(148.577 137.87 278.082)">e</text><text font-family="Arial" font-size="12" text-decoration="normal" y="-281.036" text-anchor="middle" dominant-baseline="central" transform="rotate(146.874 134.3 281.306)">L</text><g><path fill="#487EB6" stroke="#000" paint-order="fill stroke markers" d="M400.5 715.436v18.2a290.136 290.136 0 0 1-251.265-145.068l15.762-9.1A271.936 271.936 0 0 0 400.5 715.436z" stroke-linejoin="mitter" stroke-miterlimit="10"/></g><g><text font-family="Arial" font-size="12" text-decoration="normal" y="-281.036" text-anchor="middle" dominant-baseline="central" transform="rotate(-147.013 265.91 162.457)">B</text><text font-family="Arial" font-size="12" text-decoration="normal" y="-281.036" text-anchor="middle" dominant-baseline="central" transform="rotate(-148.506 262.778 165.285)">:</text><text font-family="Arial" font-size="12" text-decoration="normal" y="-281.036" text-anchor="middle" dominant-baseline="central" transform="rotate(-149.79 260.102 167.7)">v</text><text font-family="Arial" font-size="12" text-decoration="normal" y="-281.036" text-anchor="middle" dominant-baseline="central" transform="rotate(-151.423 256.725 170.75)">e</text><text font-family="Arial" font-size="12" text-decoration="normal" y="-281.036" text-anchor="middle" dominant-baseline="central" transform="rotate(-153.126 253.23 173.907)">L</text></g><g><path fill="#FE296C" stroke="#000" paint-order="fill stroke markers" d="M164.997 579.468l-15.762 9.1a290.136 290.136 0 0 1 0-290.136l15.762 9.1a271.936 271.936 0 0 0 0 271.936z" stroke-linejoin="mitter" stroke-miterlimit="10"/></g><g><text font-family="Arial" font-size="12" text-decoration="normal" y="-281.036" text-anchor="middle" dominant-baseline="central" transform="rotate(-87.013 433.875 10.777)">A</text><text font-family="Arial" font-size="12" text-decoration="normal" y="-281.036" text-anchor="middle" dominant-baseline="central" transform="rotate(-88.506 427.86 16.21)">:</text><text font-family="Arial" font-size="12" text-decoration="normal" y="-281.036" text-anchor="middle" dominant-baseline="central" transform="rotate(-89.79 422.812 20.767)">v</text><text font-family="Arial" font-size="12" text-decoration="normal" y="-281.036" text-anchor="middle" dominant-baseline="central" transform="rotate(-91.423 416.56 26.414)">e</text><text font-family="Arial" font-size="12" text-decoration="normal" y="-281.036" text-anchor="middle" dominant-baseline="central" transform="rotate(-93.126 410.22 32.138)">L</text></g><g><path fill="#487EB6" stroke="#000" paint-order="fill stroke markers" d="M164.997 307.532l-15.762-9.1A290.136 290.136 0 0 1 400.5 153.364v18.2a271.936 271.936 0 0 0-235.503 135.968z" stroke-linejoin="mitter" stroke-miterlimit="10"/></g><g><text font-family="Arial" font-size="12" text-decoration="normal" y="-281.036" text-anchor="middle" dominant-baseline="central" transform="rotate(-27.013 1123.46 -611.95)">B</text><text font-family="Arial" font-size="12" text-decoration="normal" y="-281.036" text-anchor="middle" dominant-baseline="central" transform="rotate(-28.506 1073.203 -566.565)">:</text><text font-family="Arial" font-size="12" text-decoration="normal" y="-281.036" text-anchor="middle" dominant-baseline="central" transform="rotate(-29.79 1033.92 -531.092)">v</text><text font-family="Arial" font-size="12" text-decoration="normal" y="-281.036" text-anchor="middle" dominant-baseline="central" transform="rotate(-31.423 988.537 -490.107)">e</text><text font-family="Arial" font-size="12" text-decoration="normal" y="-281.036" text-anchor="middle" dominant-baseline="central" transform="rotate(-33.126 945.853 -451.562)">L</text></g><g><text font-family="Arial" font-size="15" text-decoration="normal" dominant-baseline="central" transform="rotate(-60 485.615 -296.076)">Sample1</text></g><path fill="none" stroke="#CCC" paint-order="fill stroke markers" d="M400.5 443.5l89.617-155.22" stroke-miterlimit="10"/><g><text font-family="Arial" font-size="15" text-decoration="normal" dominant-baseline="central" transform="translate(597.934 443.5)">Sample2</text></g><path fill="none" stroke="#CCC" paint-order="fill stroke markers" d="M400.5 443.5h179.234" stroke-miterlimit="10"/><g><text font-family="Arial" font-size="15" text-decoration="normal" dominant-baseline="central" transform="rotate(60 -282.55 739.576)">Sample3</text></g><path fill="none" stroke="#CCC" paint-order="fill stroke markers" d="M400.5 443.5l89.617 155.22" stroke-miterlimit="10"/><g><text font-family="Arial" font-size="15" text-decoration="normal" text-anchor="end" dominant-baseline="central" transform="rotate(-60 683.05 45.89)">Sample4</text></g><path fill="none" stroke="#CCC" paint-order="fill stroke markers" d="M400.5 443.5l-89.617 155.22" stroke-miterlimit="10"/><g><text font-family="Arial" font-size="15" text-decoration="normal" text-anchor="end" dominant-baseline="central" transform="translate(203.066 443.5)">Sample5</text></g><path fill="none" stroke="#CCC" paint-order="fill stroke markers" d="M400.5 443.5H221.266" stroke-miterlimit="10"/><g><text font-family="Arial" font-size="15" text-decoration="normal" text-anchor="end" dominant-baseline="central" transform="rotate(60 -85.115 397.61)">Sample6</text></g><path fill="none" stroke="#CCC" paint-order="fill stroke markers" d="M400.5 443.5l-89.617-155.22" stroke-miterlimit="10"/><g><text font-family="Arial" font-size="15" text-decoration="normal" text-anchor="middle" dominant-baseline="central" transform="translate(400.5 443.5)">0</text></g><g><path fill="none" stroke="#000" paint-order="fill stroke markers" d="M400.5 266.166a177.334 177.334 0 1 1-.177 0" stroke-linejoin="mitter" stroke-miterlimit="10"/></g><g><text font-family="Arial" font-size="15" text-decoration="normal" y="-44.334" text-anchor="middle" dominant-baseline="central" transform="rotate(7.655 -3114.297 3214.932)">5</text><text font-family="Arial" font-size="15" text-decoration="normal" y="-44.334" text-anchor="middle" dominant-baseline="central" transform="rotate(-7.655 3514.797 -2771.432)">2</text></g><g><path fill="none" stroke="#CCC" paint-order="fill stroke markers" d="M400.5 399.166a44.334 44.334 0 1 1-.044 0" stroke-linejoin="mitter" stroke-miterlimit="10"/></g><g><text font-family="Arial" font-size="15" text-decoration="normal" y="-88.667" text-anchor="middle" dominant-baseline="central" transform="rotate(3.474 -7112.392 6825.387)">0</text><text font-family="Arial" font-size="15" text-decoration="normal" y="-88.667" text-anchor="middle" dominant-baseline="central" transform="rotate(-3.474 7512.892 -6381.887)">5</text></g><g><path fill="none" stroke="#CCC" paint-order="fill stroke markers" d="M400.5 354.833a88.667 88.667 0 1 1-.09 0" stroke-linejoin="mitter" stroke-miterlimit="10"/></g><g><text font-family="Arial" font-size="15" text-decoration="normal" y="-133.001" text-anchor="middle" dominant-baseline="central" transform="rotate(2.247 -11108.58 10434.12)">5</text><text font-family="Arial" font-size="15" text-decoration="normal" y="-133.001" text-anchor="middle" dominant-baseline="central" transform="rotate(-2.247 11509.08 -9990.62)">7</text></g><g><path fill="none" stroke="#CCC" paint-order="fill stroke markers" d="M400.5 310.5a133 133 0 1 1-.133 0" stroke-linejoin="mitter" stroke-miterlimit="10"/></g><g><text font-family="Arial" font-size="15" text-decoration="normal" y="-177.334" text-anchor="middle" dominant-baseline="central" transform="rotate(3.32 -7450.446 7130.665)">0</text><text font-family="Arial" font-size="15" text-decoration="normal" y="-177.334" text-anchor="middle" dominant-baseline="central" transform="translate(400.5 443.5)">0</text><text font-family="Arial" font-size="15" text-decoration="normal" y="-177.334" text-anchor="middle" dominant-baseline="central" transform="translate(400.5 443.5)">1</text></g><g><path fill="none" stroke="#000" paint-order="fill stroke markers" d="M400.5 442.5" stroke-linejoin="mitter" stroke-miterlimit="10"/></g><g><path fill="#337ab7" paint-order="stroke fill markers" d="M412.583 435.82a7.65 7.65 0 1 0 0 .01z"/></g><g><path fill="#337ab7" paint-order="stroke fill markers" d="M425.883 443.5a7.65 7.65 0 1 0 0 .008z"/></g><path fill="none" stroke="#337AB7" paint-order="fill stroke markers" d="M404.933 435.82l13.3 7.68" stroke-miterlimit="10"/><g><path fill="#337ab7" paint-order="stroke fill markers" d="M430.317 481.894a7.65 7.65 0 1 0 0 .008z"/></g><path fill="none" stroke="#337AB7" paint-order="fill stroke markers" d="M418.233 443.5l4.434 38.394" stroke-miterlimit="10"/><g><path fill="#337ab7" paint-order="stroke fill markers" d="M372.683 504.93a7.65 7.65 0 1 0 0 .008z"/></g><path fill="none" stroke="#337AB7" paint-order="fill stroke markers" d="M422.667 481.894l-57.634 23.036" stroke-miterlimit="10"/><g><path fill="#337ab7" paint-order="stroke fill markers" d="M328.35 443.5a7.65 7.65 0 1 0 0 .008z"/></g><path fill="none" stroke="#337AB7" paint-order="fill stroke markers" d="M365.033 504.93L320.7 443.5" stroke-miterlimit="10"/><g><path fill="#337ab7" paint-order="stroke fill markers" d="M363.816 366.712a7.65 7.65 0 1 0 0 .008z"/></g><path fill="none" stroke="#337AB7" paint-order="fill stroke markers" d="M320.7 443.5l35.466-76.788M356.166 366.712l48.767 69.11" stroke-miterlimit="10"/><g><path fill="#5cb85c" paint-order="stroke fill markers" d="M477.584 290.453h15.3v15.3h-15.3z"/></g><g><path fill="#5cb85c" paint-order="stroke fill markers" d="M535.217 436.35h15.3v15.3h-15.3z"/></g><path fill="none" stroke="#5CB85C" paint-order="fill stroke markers" d="M484.734 297.603L542.367 443.5" stroke-miterlimit="10"/><g><path fill="#5cb85c" paint-order="stroke fill markers" d="M459.85 551.532h15.3v15.3h-15.3z"/></g><path fill="none" stroke="#5CB85C" paint-order="fill stroke markers" d="M542.367 443.5L467 558.682" stroke-miterlimit="10"/><g><path fill="#5cb85c" paint-order="stroke fill markers" d="M331.283 543.853h15.3v15.3h-15.3z"/></g><path fill="none" stroke="#5CB85C" paint-order="fill stroke markers" d="M467 558.682l-128.567-7.68" stroke-miterlimit="10"/><g><path fill="#5cb85c" paint-order="stroke fill markers" d="M295.816 436.35h15.3v15.3h-15.3z"/></g><path fill="none" stroke="#5CB85C" paint-order="fill stroke markers" d="M338.433 551.003L302.966 443.5" stroke-miterlimit="10"/><g><path fill="#5cb85c" paint-order="stroke fill markers" d="M357.883 374.92h15.3v15.3h-15.3z"/></g><path fill="none" stroke="#5CB85C" paint-order="fill stroke markers" d="M302.966 443.5l62.067-61.43M365.033 382.07l119.7-84.467" stroke-miterlimit="10"/><g><path fill="#f0ad4e" paint-order="stroke fill markers" d="M423.167 397.956l7.65 15.3h-15.3z"/></g><g><path fill="#f0ad4e" paint-order="stroke fill markers" d="M454.2 436.35l7.65 15.3h-15.3z"/></g><path fill="none" stroke="#F0AD4E" paint-order="fill stroke markers" d="M422.667 405.106L453.7 443.5" stroke-miterlimit="10"/><g><path fill="#f0ad4e" paint-order="stroke fill markers" d="M440.9 505.46l7.65 15.3h-15.3z"/></g><path fill="none" stroke="#F0AD4E" paint-order="fill stroke markers" d="M453.7 443.5l-13.3 69.11" stroke-miterlimit="10"/><g><path fill="#f0ad4e" paint-order="stroke fill markers" d="M347.8 528.495l7.65 15.3h-15.3z"/></g><path fill="none" stroke="#F0AD4E" paint-order="fill stroke markers" d="M440.4 512.61l-93.1 23.035" stroke-miterlimit="10"/><g><path fill="#f0ad4e" paint-order="stroke fill markers" d="M285.733 436.35l7.65 15.3h-15.3z"/></g><path fill="none" stroke="#F0AD4E" paint-order="fill stroke markers" d="M347.3 535.645L285.233 443.5" stroke-miterlimit="10"/><g><path fill="#f0ad4e" paint-order="stroke fill markers" d="M338.933 328.847l7.65 15.3h-15.3z"/></g><path fill="none" stroke="#F0AD4E" paint-order="fill stroke markers" d="M285.233 443.5l53.2-107.503M338.433 335.997l84.234 69.11" stroke-miterlimit="10"/><path fill="none" stroke="#D9534F" paint-order="fill stroke markers" d="M449.267 359.033l22.167 84.467M471.434 443.5l-39.9 53.752M431.533 497.252l-57.633-7.68M373.9 489.573V443.5M373.9 443.5l25.713-1.536M399.613 441.964l49.654-82.93" stroke-miterlimit="10"/><g><path fill="#FFF" stroke="#CCC" paint-order="fill stroke markers" d="M741.5 747.5h93v87h-93z" stroke-linejoin="mitter" stroke-miterlimit="10"/></g><g><path fill="#337ab7" stroke="#000" paint-order="fill stroke markers" d="M762.437 761a7.5 7.5 0 1 0 0 .007z" stroke-linejoin="mitter" stroke-miterlimit="10"/></g><g><text font-family="Arial" font-size="15" text-decoration="normal" dominant-baseline="central" transform="translate(767.537 761)">Variable1</text></g><g><path fill="#5cb85c" stroke="#000" paint-order="fill stroke markers" d="M762.437 781.1a7.5 7.5 0 1 0 0 .007z" stroke-linejoin="mitter" stroke-miterlimit="10"/></g><g><text font-family="Arial" font-size="15" text-decoration="normal" dominant-baseline="central" transform="translate(767.537 781.1)">Variable2</text></g><g><path fill="#f0ad4e" stroke="#000" paint-order="fill stroke markers" d="M762.437 801.2a7.5 7.5 0 1 0 0 .007z" stroke-linejoin="mitter" stroke-miterlimit="10"/></g><g><text font-family="Arial" font-size="15" text-decoration="normal" dominant-baseline="central" transform="translate(767.537 801.2)">Variable3</text></g><g><path fill="#d9534f" stroke="#000" paint-order="fill stroke markers" d="M762.437 821.3a7.5 7.5 0 1 0 0 .007z" stroke-linejoin="mitter" stroke-miterlimit="10"/></g><g><text font-family="Arial" font-size="15" text-decoration="normal" dominant-baseline="central" transform="translate(767.537 821.3)">Variable4</text></g><g><path fill="none" stroke="#CCC" paint-order="fill stroke markers" d="M741.5 747.5h93v87h-93z" stroke-linejoin="mitter" stroke-miterlimit="10"/></g><g><text font-family="Arial" font-size="33" text-decoration="normal" text-anchor="middle" dominant-baseline="central" transform="translate(422 21.6)">Radar with Overlays</text></g></svg>