<svg width="1084" height="1084" version="1.1" xmlns="http://www.w3.org/2000/svg"><g transform="translate(542,542)"><g class="link-extensions"><path d="M53.141322388244205,244.28671649278988L53.141322388244205,244.28671649278988" stroke="white"></path><path d="M119.81224668001421,219.4197473918139L119.81224668001421,219.4197473918139" stroke="white"></path><path d="M87.36604489977465,234.23743124994039L87.36604489977465,234.23743124994039" stroke="white"></path><path d="M-17.83479579980806,249.36302865256337L-17.83479579980806,249.36302865256337" stroke="white"></path><path d="M-53.14132238824412,244.28671649278988L-53.14132238824412,244.28671649278988" stroke="white"></path><path d="M-219.41974739181387,119.81224668001427L-219.41974739181387,119.81224668001427" stroke="white"></path><path d="M-234.23743124994044,87.36604489977456L-234.23743124994044,87.36604489977456" stroke="white"></path><path d="M-244.28671649278988,53.14132238824416L-244.28671649278988,53.14132238824416" stroke="white"></path><path d="M-249.3630286525634,-17.83479579980782L-249.3630286525634,-17.83479579980782" stroke="white"></path><path d="M-17.83479579980801,-249.36302865256337L-17.83479579980801,-249.36302865256337" stroke="white"></path><path d="M-87.36604489977447,-234.23743124994047L-87.36604489977447,-234.23743124994047" stroke="white" class=""></path><path d="M149.81941662783674,-200.1353102310901L149.81941662783674,-200.1353102310901" stroke="white" class=""></path><path d="M87.36604489977461,-234.2374312499404L87.36604489977461,-234.2374312499404" stroke="white" class=""></path><path d="M119.81224668001425,-219.41974739181387L119.81224668001425,-219.41974739181387" stroke="white" class=""></path><path d="M-200.13531023109013,149.8194166278367L-200.13531023109013,149.8194166278367" stroke="white" class=""></path><path d="M-176.77669529663686,176.7766952966369L-176.77669529663686,176.7766952966369" stroke="white" class=""></path><path d="M-149.81941662783666,200.13531023109016L-149.81941662783666,200.13531023109016" stroke="white" class=""></path><path d="M-119.81224668001423,219.41974739181387L-119.81224668001423,219.41974739181387" stroke="white" class=""></path><path d="M-87.36604489977447,234.23743124994047L-87.36604489977447,234.23743124994047" stroke="white" class=""></path><path d="M17.834795799808145,249.36302865256337L17.834795799808145,249.36302865256337" stroke="white" class=""></path><path d="M149.81941662783674,200.1353102310901L149.81941662783674,200.1353102310901" stroke="white" class=""></path><path d="M219.4197473918139,119.81224668001417L219.4197473918139,119.81224668001417" stroke="white" class=""></path><path d="M-249.36302865256337,17.834795799807996L-249.36302865256337,17.834795799807996" stroke="white" class=""></path><path d="M-119.81224668001408,-219.41974739181396L-119.81224668001408,-219.41974739181396" stroke="white" class=""></path><path d="M17.834795799808145,-249.36302865256337L17.834795799808145,-249.36302865256337" stroke="white" class=""></path><path d="M-219.41974739181393,-119.81224668001411L-219.41974739181393,-119.81224668001411" stroke="white" class=""></path><path d="M176.7766952966369,176.77669529663686L176.7766952966369,176.77669529663686" stroke="white" class=""></path><path d="M200.1353102310901,149.81941662783674L200.1353102310901,149.81941662783674" stroke="white" class=""></path><path d="M234.2374312499404,87.36604489977458L234.2374312499404,87.36604489977458" stroke="white" class=""></path><path d="M244.28671649278988,53.1413223882442L244.28671649278988,53.1413223882442" stroke="white" class=""></path><path d="M249.36302865256337,17.834795799808095L249.36302865256337,17.834795799808095" stroke="white" class=""></path><path d="M249.36302865256337,-17.834795799808095L249.36302865256337,-17.834795799808095" stroke="white" class=""></path><path d="M244.28671649278988,-53.14132238824414L244.28671649278988,-53.14132238824414" stroke="white" class=""></path><path d="M234.2374312499404,-87.36604489977458L234.2374312499404,-87.36604489977458" stroke="white" class=""></path><path d="M219.41974739181387,-119.81224668001423L219.41974739181387,-119.81224668001423" stroke="white" class=""></path><path d="M176.7766952966369,-176.77669529663686L176.7766952966369,-176.77669529663686" stroke="white" class=""></path><path d="M200.1353102310901,-149.81941662783672L200.1353102310901,-149.81941662783672" stroke="white" class=""></path><path d="M-176.77669529663692,-176.77669529663686L-176.77669529663692,-176.77669529663686" stroke="white" class=""></path><path d="M-200.1353102310901,-149.81941662783672L-200.1353102310901,-149.81941662783672" stroke="white" class=""></path><path d="M-149.81941662783677,-200.13531023109007L-149.81941662783677,-200.13531023109007" stroke="white" class=""></path><path d="M-53.14132238824407,-244.2867164927899L-53.14132238824407,-244.2867164927899" stroke="white" class=""></path><path d="M-244.28671649278988,-53.141322388244106L-244.28671649278988,-53.141322388244106" stroke="white" class=""></path><path d="M-234.23743124994044,-87.36604489977451L-234.23743124994044,-87.36604489977451" stroke="white" class=""></path><path d="M53.14132238824415,-244.28671649278988L53.14132238824415,-244.28671649278988" stroke="white" class=""></path></g><g class="links"><path d="M-14.193018125883905,87.08630985698045A88.23529411764704,88.23529411764704 0 0 0 18.755760842909716,86.2188411151023L53.141322388244205,244.28671649278988" fill="none" stroke-width="1" stroke="black" style="cursor: pointer;"></path><path d="M119.25900385049944,185.57063224217237A220.58823529411765,220.58823529411765 0 0 1 91.63566463276904,200.65411662232026L97.74470894162029,214.0310577304749" fill="none" stroke-width="1" stroke="black" style="cursor: pointer;"></path><path d="M97.74470894162029,214.0310577304749A235.2941176470588,235.2941176470588 0 0 0 112.76446746354279,206.51270342758954L119.81224668001421,219.4197473918139" fill="none" stroke-width="1" stroke="black" style="cursor: pointer;"></path><path d="M97.74470894162029,214.0310577304749A235.2941176470588,235.2941176470588 0 0 1 82.22686578802319,220.45875882347332L87.36604489977465,234.23743124994039" fill="none" stroke-width="1" stroke="black" style="cursor: pointer;"></path><path d="M-46.88940210727423,215.5471027877558A220.58823529411765,220.58823529411765 0 0 0 -15.736584529242407,220.0262017522618L-17.83479579980806,249.36302865256337" fill="none" stroke-width="1" stroke="black" style="cursor: pointer;"></path><path d="M-82.22686578802302,220.45875882347337A235.2941176470588,235.2941176470588 0 0 0 -50.01536224775917,229.91690964027282L-53.14132238824412,244.28671649278988" fill="none" stroke-width="1" stroke="black" style="cursor: pointer;"></path><path d="M-197.94200772498377,127.20960410719947A235.2941176470588,235.2941176470588 0 0 1 -206.5127034275895,112.76446746354283L-219.41974739181387,119.81224668001427" fill="none" stroke-width="1" stroke="black" style="cursor: pointer;"></path><path d="M-147.043357649694,-2.1327327443567015A147.05882352941177,147.05882352941177 0 0 0 -137.78672426467085,51.39179111751445L-234.23743124994044,87.36604489977456" fill="none" stroke-width="1" stroke="black" style="cursor: pointer;"></path><path d="M-235.2941176470588,2.881521880346713e-14A235.2941176470588,235.2941176470588 0 0 0 -229.91690964027282,50.015362247759214L-244.28671649278988,53.14132238824416" fill="none" stroke-width="1" stroke="black" style="cursor: pointer;"></path><path d="M-235.2941176470588,2.881521880346713e-14A235.2941176470588,235.2941176470588 0 0 1 -234.6946152024126,-16.785690164525008L-249.3630286525634,-17.83479579980782" fill="none" stroke-width="1" stroke="black" style="cursor: pointer;"></path><path d="M-33.48584429959652,-232.89916279551355A235.2941176470588,235.2941176470588 0 0 1 -16.785690164525185,-234.6946152024126L-17.83479579980801,-249.36302865256337" fill="none" stroke-width="1" stroke="black" style="cursor: pointer;"></path><path d="M-54.552904534018275,-213.73616951062658A220.58823529411765,220.58823529411765 0 0 0 -77.08768667627159,-206.6800863970063L-87.36604489977447,-234.23743124994047" fill="none" stroke-width="1" stroke="black" style="cursor: pointer;" class=""></path><path d="M188.36264492337892,-141.00650976737572A235.2941176470588,235.2941176470588 0 0 0 141.00650976737575,-188.36264492337892L149.81941662783674,-200.1353102310901" fill="none" stroke-width="1" stroke="black" style="cursor: pointer;" class=""></path><path d="M97.74470894162033,-214.03105773047488A235.2941176470588,235.2941176470588 0 0 0 82.22686578802315,-220.45875882347332L87.36604489977461,-234.2374312499404" fill="none" stroke-width="1" stroke="black" style="cursor: pointer;" class=""></path><path d="M97.74470894162033,-214.03105773047488A235.2941176470588,235.2941176470588 0 0 1 112.76446746354281,-206.51270342758954L119.81224668001425,-219.41974739181387" fill="none" stroke-width="1" stroke="black" style="cursor: pointer;" class=""></path><path d="M0,0A0,0 0 0 0 0,0L97.74470894162033,-214.03105773047488" fill="none" stroke-width="1" stroke="black" style="cursor: pointer;" class=""></path><path d="M-197.94200772498377,127.20960410719947A235.2941176470588,235.2941176470588 0 0 0 -188.36264492337892,141.0065097673757L-200.13531023109013,149.8194166278367" fill="none" stroke-width="1" stroke="black" style="cursor: pointer;" class=""></path><path d="M-127.25877240788982,36.366273981522795A132.35294117647058,132.35294117647058 0 0 0 -111.34237934530337,71.5554023102997L-197.94200772498377,127.20960410719947" fill="none" stroke-width="1" stroke="black" style="cursor: pointer;" class=""></path><path d="M-154.08487857536116,177.8234292598255A235.2941176470588,235.2941176470588 0 0 1 -166.37806616154057,166.3780661615406L-176.77669529663686,176.7766952966369" fill="none" stroke-width="1" stroke="black" style="cursor: pointer;" class=""></path><path d="M-154.08487857536116,177.8234292598255A235.2941176470588,235.2941176470588 0 0 0 -141.00650976737566,188.36264492337895L-149.81941662783666,200.13531023109016" fill="none" stroke-width="1" stroke="black" style="cursor: pointer;" class=""></path><path d="M-99.20096936962885,63.24553838772302A117.6470588235294,117.6470588235294 0 0 0 -77.04243928768058,88.91171462991275L-154.08487857536116,177.8234292598255" fill="none" stroke-width="1" stroke="black" style="cursor: pointer;" class=""></path><path d="M-82.22686578802302,220.45875882347337A235.2941176470588,235.2941176470588 0 0 1 -112.76446746354279,206.51270342758954L-119.81224668001423,219.41974739181387" fill="none" stroke-width="1" stroke="black" style="cursor: pointer;" class=""></path><path d="M-82.22686578802302,220.45875882347337L-87.36604489977447,234.23743124994047" fill="none" stroke-width="1" stroke="black" style="cursor: pointer;" class=""></path><path d="M-46.88940210727423,215.5471027877558A220.58823529411765,220.58823529411765 0 0 1 -77.08768667627159,206.6800863970063L-82.22686578802302,220.45875882347337" fill="none" stroke-width="1" stroke="black" style="cursor: pointer;" class=""></path><path d="M-14.687478893959579,205.357788302111A205.88235294117646,205.88235294117646 0 0 1 -43.76344196678927,201.17729593523873L-46.88940210727423,215.5471027877558" fill="none" stroke-width="1" stroke="black" style="cursor: pointer;" class=""></path><path d="M-14.687478893959579,205.357788302111A205.88235294117646,205.88235294117646 0 0 0 14.687478893959648,205.357788302111L17.834795799808145,249.36302865256337" fill="none" stroke-width="1" stroke="black" style="cursor: pointer;" class=""></path><path d="M-52.6882075381213,88.4355053107554A102.94117647058823,102.94117647058823 0 0 0 -7.343739446979789,102.6788941510555L-14.687478893959579,205.357788302111" fill="none" stroke-width="1" stroke="black" style="cursor: pointer;" class=""></path><path d="M154.08487857536116,177.82342925982547A235.2941176470588,235.2941176470588 0 0 1 141.00650976737575,188.36264492337892L149.81941662783674,200.1353102310901" fill="none" stroke-width="1" stroke="black" style="cursor: pointer;" class=""></path><path d="M214.03105773047488,97.74470894162033A235.2941176470588,235.2941176470588 0 0 1 206.51270342758954,112.76446746354274L219.4197473918139,119.81224668001417" fill="none" stroke-width="1" stroke="black" style="cursor: pointer;" class=""></path><path d="M-235.2941176470588,2.881521880346713e-14A235.2941176470588,235.2941176470588 0 0 0 -234.6946152024126,16.78569016452517L-249.36302865256337,17.834795799807996" fill="none" stroke-width="1" stroke="black" style="cursor: pointer;" class=""></path><path d="M-75.3801450558429,-191.5864739065763A205.88235294117646,205.88235294117646 0 0 0 -98.66890903059983,-180.6986154991409L-119.81224668001408,-219.41974739181396" fill="none" stroke-width="1" stroke="black" style="cursor: pointer;" class=""></path><path d="M33.48584429959655,-232.89916279551355A235.2941176470588,235.2941176470588 0 0 0 16.78569016452531,-234.6946152024126L17.834795799808145,-249.36302865256337" fill="none" stroke-width="1" stroke="black" style="cursor: pointer;" class=""></path><path d="M-181.19575921775552,-125.80646402977145A220.58823529411765,220.58823529411765 0 0 0 -193.60565946336524,-105.71668824707127L-219.41974739181393,-119.81224668001411" fill="none" stroke-width="1" stroke="black" style="cursor: pointer;" class=""></path><path d="M154.08487857536116,177.82342925982547A235.2941176470588,235.2941176470588 0 0 0 166.3780661615406,166.37806616154057L176.7766952966369,176.77669529663686" fill="none" stroke-width="1" stroke="black" style="cursor: pointer;" class=""></path><path d="M119.25900385049944,185.57063224217237A220.58823529411765,220.58823529411765 0 0 0 144.4545736644011,166.7094649310864L154.08487857536116,177.82342925982547" fill="none" stroke-width="1" stroke="black" style="cursor: pointer;" class=""></path><path d="M140.2919287399188,150.68416633153166A205.88235294117646,205.88235294117646 0 0 1 111.30840359379947,173.19925675936085L119.25900385049944,185.57063224217237" fill="none" stroke-width="1" stroke="black" style="cursor: pointer;" class=""></path><path d="M140.2919287399188,150.68416633153166A205.88235294117646,205.88235294117646 0 0 0 164.81731430795654,123.38069604645378L200.1353102310901,149.81941662783674" fill="none" stroke-width="1" stroke="black" style="cursor: pointer;" class=""></path><path d="M155.0651896855672,111.81784228983074A191.17647058823528,191.17647058823528 0 0 1 130.27107668706745,139.9210115935651L140.2919287399188,150.68416633153166" fill="none" stroke-width="1" stroke="black" style="cursor: pointer;" class=""></path><path d="M214.03105773047488,97.74470894162033A235.2941176470588,235.2941176470588 0 0 0 220.45875882347332,82.22686578802313L234.2374312499404,87.36604489977458" fill="none" stroke-width="1" stroke="black" style="cursor: pointer;" class=""></path><path d="M155.0651896855672,111.81784228983074A191.17647058823528,191.17647058823528 0 0 0 173.90023440601084,79.41757601506652L214.03105773047488,97.74470894162033" fill="none" stroke-width="1" stroke="black" style="cursor: pointer;" class=""></path><path d="M28.10769639112746,67.94506455989182A73.52941176470587,73.52941176470587 0 0 0 59.64045757137199,43.006862419165664L155.0651896855672,111.81784228983074" fill="none" stroke-width="1" stroke="black" style="cursor: pointer;" class=""></path><path d="M45.1277915886967,37.73181732681192A58.82352941176472,58.82352941176472 0 0 0 57.47922741006822,12.503840561939814L244.28671649278988,53.1413223882442" fill="none" stroke-width="1" stroke="black" style="cursor: pointer;" class=""></path><path d="M40.90657513527267,16.523283351356447A44.117647058823536,44.117647058823536 0 0 0 44.00524035045237,3.147316905848488L249.36302865256337,17.834795799808095" fill="none" stroke-width="1" stroke="black" style="cursor: pointer;" class=""></path><path d="M232.89916279551355,-33.48584429959652A235.2941176470588,235.2941176470588 0 0 1 234.6946152024126,-16.785690164525267L249.36302865256337,-17.834795799808095" fill="none" stroke-width="1" stroke="black" style="cursor: pointer;" class=""></path><path d="M232.89916279551355,-33.48584429959652A235.2941176470588,235.2941176470588 0 0 0 229.91690964027282,-50.01536224775919L244.28671649278988,-53.14132238824414" fill="none" stroke-width="1" stroke="black" style="cursor: pointer;" class=""></path><path d="M29.1983347362116,3.536827921503427A29.41176470588236,29.41176470588236 0 0 0 29.1123953494392,-4.185730537449566L232.89916279551355,-33.48584429959652" fill="none" stroke-width="1" stroke="black" style="cursor: pointer;" class=""></path><path d="M188.36264492337892,-141.00650976737572A235.2941176470588,235.2941176470588 0 0 1 220.45875882347332,-82.22686578802313L234.2374312499404,-87.36604489977458" fill="none" stroke-width="1" stroke="black" style="cursor: pointer;" class=""></path><path d="M188.36264492337892,-141.00650976737572A235.2941176470588,235.2941176470588 0 0 1 206.51270342758954,-112.76446746354279L219.41974739181387,-119.81224668001423" fill="none" stroke-width="1" stroke="black" style="cursor: pointer;" class=""></path><path d="M188.36264492337892,-141.00650976737572A235.2941176470588,235.2941176470588 0 0 0 166.3780661615406,-166.37806616154057L176.7766952966369,-176.77669529663686" fill="none" stroke-width="1" stroke="black" style="cursor: pointer;" class=""></path><path d="M188.36264492337892,-141.00650976737572L200.1353102310901,-149.81941662783672" fill="none" stroke-width="1" stroke="black" style="cursor: pointer;" class=""></path><path d="M14.207725970424665,-3.795194135728412A14.70588235294118,14.70588235294118 0 0 0 11.772665307711184,-8.812906860460984L188.36264492337892,-141.00650976737572" fill="none" stroke-width="1" stroke="black" style="cursor: pointer;" class=""></path><path d="M-177.82342925982533,-154.08487857536133A235.2941176470588,235.2941176470588 0 0 1 -166.37806616154063,-166.37806616154057L-176.77669529663692,-176.77669529663686" fill="none" stroke-width="1" stroke="black" style="cursor: pointer;" class=""></path><path d="M-177.82342925982533,-154.08487857536133A235.2941176470588,235.2941176470588 0 0 0 -188.36264492337892,-141.00650976737572L-200.1353102310901,-149.81941662783672" fill="none" stroke-width="1" stroke="black" style="cursor: pointer;" class=""></path><path d="M-181.19575921775552,-125.80646402977145A220.58823529411765,220.58823529411765 0 0 1 -166.70946493108627,-144.45457366440124L-177.82342925982533,-154.08487857536133" fill="none" stroke-width="1" stroke="black" style="cursor: pointer;" class=""></path><path d="M-182.43097145716519,-95.42789899075707A205.88235294117646,205.88235294117646 0 0 1 -169.11604193657183,-117.41936642778667L-181.19575921775552,-125.80646402977145" fill="none" stroke-width="1" stroke="black" style="cursor: pointer;" class=""></path><path d="M-93.11499717926965,-166.96718302372773A191.17647058823528,191.17647058823528 0 0 0 -114.56778918599281,-153.04464900024533L-149.81941662783677,-200.13531023109007" fill="none" stroke-width="1" stroke="black" style="cursor: pointer;" class=""></path><path d="M-33.48584429959652,-232.89916279551355A235.2941176470588,235.2941176470588 0 0 0 -50.01536224775913,-229.91690964027285L-53.14132238824407,-244.2867164927899" fill="none" stroke-width="1" stroke="black" style="cursor: pointer;" class=""></path><path d="M-54.552904534018275,-213.73616951062658A220.58823529411765,220.58823529411765 0 0 1 -31.392979030871743,-218.342965120794L-33.48584429959652,-232.89916279551355" fill="none" stroke-width="1" stroke="black" style="cursor: pointer;" class=""></path><path d="M-75.3801450558429,-191.5864739065763A205.88235294117646,205.88235294117646 0 0 1 -50.91604423175039,-199.48709154325147L-54.552904534018275,-213.73616951062658" fill="none" stroke-width="1" stroke="black" style="cursor: pointer;" class=""></path><path d="M-93.11499717926965,-166.96718302372773A191.17647058823528,191.17647058823528 0 0 1 -69.99584898042555,-177.90172577039226L-75.3801450558429,-191.5864739065763" fill="none" stroke-width="1" stroke="black" style="cursor: pointer;" class=""></path><path d="M-126.44285362932405,-123.10188170041938A176.4705882352941,176.4705882352941 0 0 1 -85.95230508855659,-154.12355356036406L-93.11499717926965,-166.96718302372773" fill="none" stroke-width="1" stroke="black" style="cursor: pointer;" class=""></path><path d="M-235.2941176470588,2.881521880346713e-14A235.2941176470588,235.2941176470588 0 0 1 -229.91690964027282,-50.01536224775916L-244.28671649278988,-53.141322388244106" fill="none" stroke-width="1" stroke="black" style="cursor: pointer;" class=""></path><path d="M-149.86212304168302,-60.902907538504294A161.76470588235293,161.76470588235293 0 0 0 -161.76470588235293,1.9810462927383654e-14L-235.2941176470588,2.881521880346713e-14" fill="none" stroke-width="1" stroke="black" style="cursor: pointer;" class=""></path><path d="M-182.43097145716519,-95.42789899075707A205.88235294117646,205.88235294117646 0 0 0 -192.90141397053918,-71.94850756452018L-234.23743124994044,-87.36604489977451" fill="none" stroke-width="1" stroke="black" style="cursor: pointer;" class=""></path><path d="M-126.44285362932405,-123.10188170041938A176.4705882352941,176.4705882352941 0 0 0 -156.3694041061416,-81.79534199207748L-182.43097145716519,-95.42789899075707" fill="none" stroke-width="1" stroke="black" style="cursor: pointer;" class=""></path><path d="M-149.86212304168302,-60.902907538504294A161.76470588235293,161.76470588235293 0 0 1 -115.90594916021372,-112.84339155871778L-126.44285362932405,-123.10188170041938" fill="none" stroke-width="1" stroke="black" style="cursor: pointer;" class=""></path><path d="M-147.043357649694,-2.1327327443567015A147.05882352941177,147.05882352941177 0 0 1 -136.2382936742573,-55.36627958045845L-149.86212304168302,-60.902907538504294" fill="none" stroke-width="1" stroke="black" style="cursor: pointer;" class=""></path><path d="M-127.25877240788982,36.366273981522795A132.35294117647058,132.35294117647058 0 0 1 -132.3390218847246,-1.919459469921031L-147.043357649694,-2.1327327443567015" fill="none" stroke-width="1" stroke="black" style="cursor: pointer;" class=""></path><path d="M-99.20096936962885,63.24553838772302A117.6470588235294,117.6470588235294 0 0 1 -113.11890880701318,32.32557687246471L-127.25877240788982,36.366273981522795" fill="none" stroke-width="1" stroke="black" style="cursor: pointer;" class=""></path><path d="M-52.6882075381213,88.4355053107554A102.94117647058823,102.94117647058823 0 0 1 -86.80084819842526,55.33984608925765L-99.20096936962885,63.24553838772302" fill="none" stroke-width="1" stroke="black" style="cursor: pointer;" class=""></path><path d="M-14.193018125883905,87.08630985698045A88.23529411764704,88.23529411764704 0 0 1 -45.1613207469611,75.8018616949332L-52.6882075381213,88.4355053107554" fill="none" stroke-width="1" stroke="black" style="cursor: pointer;" class=""></path><path d="M28.10769639112746,67.94506455989182A73.52941176470587,73.52941176470587 0 0 1 -11.827515104903254,72.57192488081704L-14.193018125883905,87.08630985698045" fill="none" stroke-width="1" stroke="black" style="cursor: pointer;" class=""></path><path d="M45.1277915886967,37.73181732681192A58.82352941176472,58.82352941176472 0 0 1 22.486157112901978,54.356051647913475L28.10769639112746,67.94506455989182" fill="none" stroke-width="1" stroke="black" style="cursor: pointer;" class=""></path><path d="M40.90657513527267,16.523283351356447A44.117647058823536,44.117647058823536 0 0 1 33.845843691522525,28.29886299510894L45.1277915886967,37.73181732681192" fill="none" stroke-width="1" stroke="black" style="cursor: pointer;" class=""></path><path d="M29.1983347362116,3.536827921503427A29.41176470588236,29.41176470588236 0 0 1 27.271050090181777,11.01552223423763L40.90657513527267,16.523283351356447" fill="none" stroke-width="1" stroke="black" style="cursor: pointer;" class=""></path><path d="M14.207725970424665,-3.795194135728412A14.70588235294118,14.70588235294118 0 0 1 14.5991673681058,1.7684139607517135L29.1983347362116,3.536827921503427" fill="none" stroke-width="1" stroke="black" style="cursor: pointer;" class=""></path><path d="M0,0A0,0 0 0 1 0,0L14.207725970424665,-3.795194135728412" fill="none" stroke-width="1" stroke="black" style="cursor: pointer;" class=""></path><path d="M33.48584429959655,-232.89916279551355A235.2941176470588,235.2941176470588 0 0 1 50.0153622477592,-229.91690964027282L53.14132238824415,-244.28671649278988" fill="none" stroke-width="1" stroke="black" style="cursor: pointer;" class=""></path><path d="M0,0A0,0 0 0 0 0,0L33.48584429959655,-232.89916279551355" fill="none" stroke-width="1" stroke="black" style="cursor: pointer;" class=""></path></g><g class="labels"><text dy=".31em" transform="rotate(-85.9090909090909)translate(255,0)" text-anchor="start" fill="#FD7F23" style="font-size:10px">Al-Hasa_25_2013</text><text dy=".31em" transform="rotate(-77.72727272727273)translate(255,0)" text-anchor="start" fill="#FD7F23" style="font-size:10px" class="">Al-Hasa_16_2013</text><text dy=".31em" transform="rotate(-69.54545454545455)translate(255,0)" text-anchor="start" fill="#FD7F23" style="font-size:10px" class="">Al-Hasa_19_2013</text><text dy=".31em" transform="rotate(-61.36363636363636)translate(255,0)" text-anchor="start" fill="#FD7F23" style="font-size:10px" class="">Al-Hasa_17_2013</text><text dy=".31em" transform="rotate(-53.18181818181818)translate(255,0)" text-anchor="start" fill="#FD7F23" style="font-size:10px" class="">Al-Hasa_12_2013</text><text dy=".31em" transform="rotate(-45)translate(255,0)" text-anchor="start" fill="#FD7F23" style="font-size:10px" class="">Al-Hasa_18_2013</text><text dy=".31em" transform="rotate(-36.81818181818181)translate(255,0)" text-anchor="start" fill="#AEC7E8" style="font-size:10px" class="">Al-Hasa_1_2013</text><text dy=".31em" transform="rotate(-28.63636363636364)translate(255,0)" text-anchor="start" fill="#1F77B4" style="font-size:10px" class="">Al-Hasa_3_2013</text><text dy=".31em" transform="rotate(-20.454545454545453)translate(255,0)" text-anchor="start" fill="#FDBB78" style="font-size:10px" class="">Al-Hasa_4_2013</text><text dy=".31em" transform="rotate(-12.272727272727266)translate(255,0)" text-anchor="start" fill="#FD7F23" style="font-size:10px" class="">Al-Hasa_2_2013</text><text dy=".31em" transform="rotate(-4.0909090909090935)translate(255,0)" text-anchor="start" fill="#FD7F23" style="font-size:10px" class="">Al-Hasa_21_2013</text><text dy=".31em" transform="rotate(4.0909090909090935)translate(255,0)" text-anchor="start" fill="#1F77B4" style="font-size:10px" class="">Al-Hasa_15_2013</text><text dy=".31em" transform="rotate(12.27272727272728)translate(255,0)" text-anchor="start" fill="#1F77B4" style="font-size:10px" class="">Riyadh_9_2013</text><text dy=".31em" transform="rotate(20.454545454545453)translate(255,0)" text-anchor="start" fill="#1F77B4" style="font-size:10px" class="">Hafr-Al-Batin_2_2013</text><text dy=".31em" transform="rotate(28.636363636363626)translate(255,0)" text-anchor="start" fill="#1F77B4" style="font-size:10px" class="">Hafr-Al_Batin_6_2013</text><text dy=".31em" transform="rotate(36.81818181818183)translate(255,0)" text-anchor="start" fill="#1F77B4" style="font-size:10px" class="">Indiana-USA-1_Saudi_</text><text dy=".31em" transform="rotate(45)translate(255,0)" text-anchor="start" fill="#FDBB78" style="font-size:10px" class="">Hafr-Al-Batin_1_2013</text><text dy=".31em" transform="rotate(53.18181818181819)translate(255,0)" text-anchor="start" fill="#F7B6D2" style="font-size:10px">Riyadh_14_2013</text><text dy=".31em" transform="rotate(61.363636363636374)translate(255,0)" text-anchor="start" fill="#1F77B4" style="font-size:10px">Qatar4</text><text dy=".31em" transform="rotate(69.54545454545453)translate(255,0)" text-anchor="start" fill="#1F77B4" style="font-size:10px">Qatar3</text><text dy=".31em" transform="rotate(77.72727272727272)translate(255,0)" text-anchor="start" fill="#C7C7C7" style="font-size:10px">Riyadh_2_2012</text><text dy=".31em" transform="rotate(85.9090909090909)translate(255,0)" text-anchor="start" fill="#FD7F23" style="font-size:10px">Buraidah_1_2013</text><text dy=".31em" transform="rotate(94.0909090909091)translate(255,0)rotate(180)" text-anchor="end" fill="#1F77B4" style="font-size:10px">KSA-CAMEL-376</text><text dy=".31em" transform="rotate(102.27272727272725)translate(255,0)rotate(180)" text-anchor="end" fill="#1F77B4" style="font-size:10px">KFU-HKU_1</text><text dy=".31em" transform="rotate(110.45454545454544)translate(255,0)rotate(180)" text-anchor="end" fill="#1F77B4" style="font-size:10px">KFU-HKU_13</text><text dy=".31em" transform="rotate(118.63636363636365)translate(255,0)rotate(180)" text-anchor="end" fill="#1F77B4" style="font-size:10px">KFU-HKU_19Dam</text><text dy=".31em" transform="rotate(126.81818181818181)translate(255,0)rotate(180)" text-anchor="end" fill="#FD7F23" style="font-size:10px">Bisha_1_2012</text><text dy=".31em" transform="rotate(135)translate(255,0)rotate(180)" text-anchor="end" fill="#7F7F7F" style="font-size:10px">Riyadh_1_2012</text><text dy=".31em" transform="rotate(143.1818181818182)translate(255,0)rotate(180)" text-anchor="end" fill="#FD7F23" style="font-size:10px" class="">EMC_2012</text><text dy=".31em" transform="rotate(151.36363636363635)translate(255,0)rotate(180)" text-anchor="end" fill="#1F77B4" style="font-size:10px">Jordan-N3_2012_bak</text><text dy=".31em" transform="rotate(159.54545454545456)translate(255,0)rotate(180)" text-anchor="end" fill="#1F77B4" style="font-size:10px">KF192507.1</text><text dy=".31em" transform="rotate(167.72727272727275)translate(255,0)rotate(180)" text-anchor="end" fill="#1F77B4" style="font-size:10px">England1.gbk</text><text dy=".31em" transform="rotate(175.90909090909093)translate(255,0)rotate(180)" text-anchor="end" fill="#FD7F23" style="font-size:10px" class="">England-Qatar_2012</text><text dy=".31em" transform="rotate(184.09090909090907)translate(255,0)rotate(180)" text-anchor="end" fill="#AEC7E8" style="font-size:10px">England1</text><text dy=".31em" transform="rotate(192.27272727272725)translate(255,0)rotate(180)" text-anchor="end" fill="#E377C2" style="font-size:10px" class="">NC_019843.2</text><text dy=".31em" transform="rotate(200.45454545454544)translate(255,0)rotate(180)" text-anchor="end" fill="#1F77B4" style="font-size:10px">KSA-CAMEL-363</text><text dy=".31em" transform="rotate(208.63636363636363)translate(255,0)rotate(180)" text-anchor="end" fill="#8C564B" style="font-size:10px" class="">KSA-CAMEL-503</text><text dy=".31em" transform="rotate(216.8181818181818)translate(255,0)rotate(180)" text-anchor="end" fill="#C5B0D5" style="font-size:10px" class="">KSA-CAMEL-378</text><text dy=".31em" transform="rotate(225)translate(255,0)rotate(180)" text-anchor="end" fill="#C49C94" style="font-size:10px" class="">KSA-CAMEL-505</text><text dy=".31em" transform="rotate(233.1818181818182)translate(255,0)rotate(180)" text-anchor="end" fill="#98DF8A" style="font-size:10px" class="">Riyadh_4_2013</text><text dy=".31em" transform="rotate(241.36363636363637)translate(255,0)rotate(180)" text-anchor="end" fill="#2CA02C" style="font-size:10px">Riyadh_3_2013</text><text dy=".31em" transform="rotate(249.54545454545456)translate(255,0)rotate(180)" text-anchor="end" fill="#9467BD" style="font-size:10px">Wadi-Ad-Dawasir_1_20</text><text dy=".31em" transform="rotate(257.72727272727275)translate(255,0)rotate(180)" text-anchor="end" fill="#FD9896" style="font-size:10px">Taif_1_2013</text><text dy=".31em" transform="rotate(265.90909090909093)translate(255,0)rotate(180)" text-anchor="end" fill="#D62728" style="font-size:10px">Riyadh_5_2013</text></g><g class="labels"><path d="M2.2655965784226034e-14,-370A370,370,0,0,1,52.65649016111549,-366.2339334959451L49.81019339564979,-346.4375046583264A350,350,0,0,0,2.1431318985078682e-14,-350Z" fill="#8C564B" class=""></path><path d="M52.65649016111549,-366.2339334959451A370,370,0,0,1,104.24104603132902,-355.01240023736403L98.60639489450043,-335.82254076507405A350,350,0,0,0,49.81019339564979,-346.4375046583264Z" fill="#8C564B" class=""></path><path d="M104.24104603132902,-355.01240023736403A370,370,0,0,1,153.703554810698,-336.5638382811718L145.39525455066024,-318.3711983740814A350,350,0,0,0,98.60639489450043,-335.82254076507405Z" fill="#8C564B"></path><path d="M153.703554810698,-336.5638382811718A370,370,0,0,1,200.03710245857113,-311.263807147537L189.22428610945917,-294.43873649091336A350,350,0,0,0,145.39525455066024,-318.3711983740814Z" fill="#8C564B"></path><path d="M200.03710245857113,-311.263807147537A370,370,0,0,1,242.29847155975548,-279.62734251107554L229.2012568808498,-264.5123510239904A350,350,0,0,0,189.22428610945917,-294.43873649091336Z" fill="#E377C2"></path><path d="M242.29847155975546,-279.62734251107554A370,370,0,0,1,279.62734251107554,-242.29847155975548L264.5123510239904,-229.2012568808498A350,350,0,0,0,229.20125688084974,-264.5123510239904Z" fill="#E377C2"></path><path d="M279.6273425110756,-242.29847155975546A370,370,0,0,1,311.263807147537,-200.0371024585711L294.4387364909134,-189.22428610945914A350,350,0,0,0,264.51235102399045,-229.20125688084974Z" fill="#E377C2"></path><path d="M311.263807147537,-200.0371024585711A370,370,0,0,1,336.5638382811718,-153.70355481069805L318.3711983740814,-145.3952545506603A350,350,0,0,0,294.4387364909134,-189.22428610945914Z" fill="#E377C2" class=""></path><path d="M336.5638382811718,-153.70355481069797A370,370,0,0,1,355.01240023736403,-104.241046031329L335.82254076507405,-98.6063948945004A350,350,0,0,0,318.3711983740815,-145.39525455066024Z" fill="#E377C2" class=""></path><path d="M355.0124002373641,-104.24104603132892A370,370,0,0,1,366.2339334959451,-52.65649016111547L346.4375046583265,-49.81019339564977A350,350,0,0,0,335.8225407650741,-98.60639489450033Z" fill="#1F77B4" class=""></path><path d="M366.2339334959451,-52.656490161115556A370,370,0,0,1,370,-8.215650382226158e-14L350,-7.771561172376096e-14A350,350,0,0,0,346.4375046583264,-49.81019339564985Z" fill="#1F77B4"></path><path d="M370,0A370,370,0,0,1,366.2339334959451,52.65649016111547L346.4375046583265,49.81019339564977A350,350,0,0,0,350,0Z" fill="#9467BD" class=""></path><path d="M366.2339334959451,52.656490161115556A370,370,0,0,1,355.01240023736403,104.241046031329L335.82254076507405,98.6063948945004A350,350,0,0,0,346.4375046583264,49.81019339564985Z" fill="#9467BD"></path><path d="M355.01240023736403,104.241046031329A370,370,0,0,1,336.5638382811718,153.70355481069797L318.3711983740815,145.39525455066024A350,350,0,0,0,335.82254076507405,98.6063948945004Z" fill="#9467BD"></path><path d="M336.5638382811718,153.70355481069797A370,370,0,0,1,311.2638071475371,200.037102458571L294.43873649091347,189.22428610945906A350,350,0,0,0,318.3711983740815,145.39525455066024Z" fill="#9467BD" class=""></path><path d="M311.263807147537,200.03710245857113A370,370,0,0,1,279.62734251107554,242.29847155975548L264.5123510239904,229.2012568808498A350,350,0,0,0,294.43873649091336,189.22428610945917Z" fill="#9467BD"></path><path d="M279.62734251107554,242.29847155975548A370,370,0,0,1,242.29847155975548,279.62734251107554L229.2012568808498,264.5123510239904A350,350,0,0,0,264.5123510239904,229.2012568808498Z" fill="#2CA02C" class=""></path><path d="M242.29847155975537,279.6273425110757A370,370,0,0,1,200.037102458571,311.2638071475371L189.22428610945906,294.43873649091347A350,350,0,0,0,229.20125688084966,264.5123510239905Z" fill="#9467BD" class=""></path><path d="M200.037102458571,311.2638071475371A370,370,0,0,1,153.7035548106979,336.5638382811718L145.39525455066018,318.3711983740815A350,350,0,0,0,189.22428610945906,294.43873649091347Z" fill="#9467BD"></path><path d="M153.70355481069805,336.56383828117174A370,370,0,0,1,104.2410460313291,355.012400237364L98.6063948945005,335.82254076507405A350,350,0,0,0,145.39525455066033,318.37119837408136Z" fill="#9467BD"></path><path d="M104.2410460313291,355.012400237364A370,370,0,0,1,52.656490161115656,366.2339334959451L49.81019339564995,346.4375046583264A350,350,0,0,0,98.6063948945005,335.82254076507405Z" fill="#9467BD"></path><path d="M52.65649016111549,366.2339334959451A370,370,0,0,1,2.2655965784226034e-14,370L2.1431318985078682e-14,350A350,350,0,0,0,49.81019339564979,346.4375046583264Z" fill="#1F77B4" class=""></path><path d="M2.2655965784226034e-14,370A370,370,0,0,1,-52.65649016111545,366.2339334959451L-49.810193395649755,346.4375046583265A350,350,0,0,0,2.1431318985078682e-14,350Z" fill="#E377C2"></path><path d="M-52.65649016111545,366.2339334959451A370,370,0,0,1,-104.24104603132889,355.0124002373641L-98.60639489450031,335.8225407650741A350,350,0,0,0,-49.810193395649755,346.4375046583265Z" fill="#D62728"></path><path d="M-104.24104603132889,355.0124002373641A370,370,0,0,1,-153.70355481069788,336.56383828117185L-145.39525455066016,318.3711983740815A350,350,0,0,0,-98.60639489450031,335.8225407650741Z" fill="#D62728"></path><path d="M-153.70355481069802,336.5638382811718A370,370,0,0,1,-200.03710245857113,311.263807147537L-189.22428610945917,294.43873649091336A350,350,0,0,0,-145.3952545506603,318.3711983740814Z" fill="#8C564B"></path><path d="M-200.03710245857113,311.263807147537A370,370,0,0,1,-242.29847155975546,279.6273425110756L-229.20125688084974,264.51235102399045A350,350,0,0,0,-189.22428610945917,294.43873649091336Z" fill="#1F77B4" class=""></path><path d="M-242.29847155975546,279.6273425110756A370,370,0,0,1,-279.62734251107554,242.29847155975554L-264.51235102399033,229.20125688084983A350,350,0,0,0,-229.20125688084974,264.51235102399045Z" fill="#9467BD" class=""></path><path d="M-279.62734251107554,242.29847155975554A370,370,0,0,1,-311.2638071475369,200.0371024585713L-294.4387364909133,189.22428610945934A350,350,0,0,0,-264.51235102399033,229.20125688084983Z" fill="#FD7F23"></path><path d="M-311.2638071475369,200.0371024585713A370,370,0,0,1,-336.5638382811717,153.70355481069822L-318.37119837408136,145.3952545506605A350,350,0,0,0,-294.4387364909133,189.22428610945934Z" fill="#2CA02C"></path><path d="M-336.5638382811718,153.70355481069794A370,370,0,0,1,-355.01240023736403,104.24104603132898L-335.82254076507405,98.60639489450038A350,350,0,0,0,-318.3711983740815,145.3952545506602Z" fill="#D62728"></path><path d="M-355.01240023736403,104.24104603132898A370,370,0,0,1,-366.2339334959451,52.656490161115514L-346.4375046583264,49.81019339564981A350,350,0,0,0,-335.82254076507405,98.60639489450038Z" fill="#FD7F23"></path><path d="M-366.23393349594517,52.656490161115194A370,370,0,0,1,-370,-2.833140837205943e-13L-350,-2.679998089248865e-13A350,350,0,0,0,-346.43750465832653,49.810193395649506Z" fill="#FD7F23"></path><path d="M-370,3.739379468574984e-13A370,370,0,0,1,-366.23393349594517,-52.6564901611151L-346.43750465832653,-49.81019339564942A350,350,0,0,0,-350,3.537250848652012e-13Z" fill="#FD7F23"></path><path d="M-366.2339334959451,-52.65649016111542A370,370,0,0,1,-355.0124002373641,-104.24104603132888L-335.8225407650741,-98.60639489450028A350,350,0,0,0,-346.4375046583265,-49.81019339564972Z" fill="#9467BD" class=""></path><path d="M-355.0124002373641,-104.24104603132888A370,370,0,0,1,-336.56383828117185,-153.70355481069785L-318.3711983740815,-145.39525455066013A350,350,0,0,0,-335.8225407650741,-98.60639489450028Z" fill="#E377C2" class=""></path><path d="M-336.56383828117185,-153.70355481069785A370,370,0,0,1,-311.26380714753714,-200.03710245857098L-294.4387364909135,-189.22428610945903A350,350,0,0,0,-318.3711983740815,-145.39525455066013Z" fill="#E377C2"></path><path d="M-311.26380714753697,-200.0371024585712A370,370,0,0,1,-279.6273425110755,-242.29847155975557L-264.51235102399033,-229.20125688084985A350,350,0,0,0,-294.43873649091336,-189.22428610945926Z" fill="#E377C2"></path><path d="M-279.6273425110755,-242.29847155975557A370,370,0,0,1,-242.29847155975565,-279.6273425110754L-229.20125688084994,-264.5123510239903A350,350,0,0,0,-264.51235102399033,-229.20125688084985Z" fill="#E377C2" class=""></path><path d="M-242.29847155975565,-279.6273425110754A370,370,0,0,1,-200.03710245857135,-311.2638071475369L-189.22428610945937,-294.43873649091324A350,350,0,0,0,-229.20125688084994,-264.5123510239903Z" fill="#9467BD" class=""></path><path d="M-200.03710245857104,-311.2638071475371A370,370,0,0,1,-153.70355481069797,-336.5638382811718L-145.39525455066024,-318.3711983740815A350,350,0,0,0,-189.22428610945911,-294.43873649091347Z" fill="#9467BD" class=""></path><path d="M-153.70355481069797,-336.5638382811718A370,370,0,0,1,-104.241046031329,-355.01240023736403L-98.6063948945004,-335.82254076507405A350,350,0,0,0,-145.39525455066024,-318.3711983740815Z" fill="#1F77B4"></path><path d="M-104.241046031329,-355.01240023736403A370,370,0,0,1,-52.656490161115535,-366.2339334959451L-49.81019339564983,-346.4375046583264A350,350,0,0,0,-98.6063948945004,-335.82254076507405Z" fill="#1F77B4" class=""></path><path d="M-52.656490161115215,-366.2339334959451A370,370,0,0,1,5.892841332254146e-13,-370L5.574309368348517e-13,-350A350,350,0,0,0,-49.81019339564953,-346.4375046583265Z" fill="#9467BD"></path></g><g class="labels"><path d="M2.27171981241834e-14,-371A371,371,0,0,1,52.79880499938878,-367.223754937826L52.65649016111549,-366.2339334959451A370,370,0,0,0,2.2655965784226034e-14,-370Z" fill="darkgray"></path><path d="M52.79880499938878,-367.223754937826A371,371,0,0,1,104.52277858817045,-355.9718932109785L104.24104603132902,-355.01240023736403A370,370,0,0,0,52.65649016111549,-366.2339334959451Z" fill="darkgray"></path><path d="M104.52277858817045,-355.9718932109785A371,371,0,0,1,154.11896982369987,-337.4734702765263L153.703554810698,-336.5638382811718A370,370,0,0,0,104.24104603132902,-355.01240023736403Z" fill="darkgray"></path><path d="M154.11896982369987,-337.4734702765263A371,371,0,0,1,200.57774327602672,-312.1050606803682L200.03710245857113,-311.263807147537A370,370,0,0,0,153.703554810698,-336.5638382811718Z" fill="darkgray"></path><path d="M200.57774327602672,-312.1050606803682A371,371,0,0,1,242.95333229370078,-280.38309208542984L242.29847155975548,-279.62734251107554A370,370,0,0,0,200.03710245857113,-311.263807147537Z" fill="darkgray"></path><path d="M242.95333229370073,-280.38309208542984A371,371,0,0,1,280.38309208542984,-242.95333229370078L279.62734251107554,-242.29847155975548A370,370,0,0,0,242.29847155975546,-279.62734251107554Z" fill="darkgray"></path><path d="M280.38309208542984,-242.95333229370073A371,371,0,0,1,312.10506068036824,-200.5777432760267L311.263807147537,-200.0371024585711A370,370,0,0,0,279.6273425110756,-242.29847155975546Z" fill="darkgray"></path><path d="M312.10506068036824,-200.5777432760267A371,371,0,0,1,337.4734702765263,-154.11896982369993L336.5638382811718,-153.70355481069805A370,370,0,0,0,311.263807147537,-200.0371024585711Z" fill="darkgray"></path><path d="M337.4734702765263,-154.11896982369984A371,371,0,0,1,355.9718932109785,-104.52277858817042L355.01240023736403,-104.241046031329A370,370,0,0,0,336.5638382811718,-153.70355481069797Z" fill="darkgray"></path><path d="M355.9718932109786,-104.52277858817034A371,371,0,0,1,367.2237549378261,-52.79880499938876L366.2339334959451,-52.65649016111547A370,370,0,0,0,355.0124002373641,-104.24104603132892Z" fill="darkgray"></path><path d="M367.223754937826,-52.79880499938884A371,371,0,0,1,371,-8.237854842718662e-14L370,-8.215650382226158e-14A370,370,0,0,0,366.2339334959451,-52.656490161115556Z" fill="darkgray"></path><path d="M371,0A371,371,0,0,1,367.2237549378261,52.79880499938876L366.2339334959451,52.65649016111547A370,370,0,0,0,370,0Z" fill="darkgray"></path><path d="M367.223754937826,52.79880499938884A371,371,0,0,1,355.9718932109785,104.52277858817042L355.01240023736403,104.241046031329A370,370,0,0,0,366.2339334959451,52.656490161115556Z" fill="darkgray"></path><path d="M355.9718932109785,104.52277858817042A371,371,0,0,1,337.4734702765263,154.11896982369984L336.5638382811718,153.70355481069797A370,370,0,0,0,355.01240023736403,104.241046031329Z" fill="darkgray"></path><path d="M337.4734702765263,154.11896982369984A371,371,0,0,1,312.1050606803683,200.5777432760266L311.2638071475371,200.037102458571A370,370,0,0,0,336.5638382811718,153.70355481069797Z" fill="darkgray"></path><path d="M312.1050606803682,200.57774327602672A371,371,0,0,1,280.38309208542984,242.95333229370078L279.62734251107554,242.29847155975548A370,370,0,0,0,311.263807147537,200.03710245857113Z" fill="darkgray"></path><path d="M280.38309208542984,242.95333229370078A371,371,0,0,1,242.95333229370078,280.38309208542984L242.29847155975548,279.62734251107554A370,370,0,0,0,279.62734251107554,242.29847155975548Z" fill="darkgray"></path><path d="M242.95333229370064,280.38309208542995A371,371,0,0,1,200.5777432760266,312.1050606803683L200.037102458571,311.2638071475371A370,370,0,0,0,242.29847155975537,279.6273425110757Z" fill="darkgray"></path><path d="M200.5777432760266,312.1050606803683A371,371,0,0,1,154.1189698236998,337.4734702765263L153.7035548106979,336.5638382811718A370,370,0,0,0,200.037102458571,311.2638071475371Z" fill="darkgray"></path><path d="M154.11896982369996,337.47347027652626A371,371,0,0,1,104.52277858817052,355.97189321097846L104.2410460313291,355.012400237364A370,370,0,0,0,153.70355481069805,336.56383828117174Z" fill="darkgray"></path><path d="M104.52277858817052,355.97189321097846A371,371,0,0,1,52.79880499938894,367.223754937826L52.656490161115656,366.2339334959451A370,370,0,0,0,104.2410460313291,355.012400237364Z" fill="darkgray"></path><path d="M52.79880499938878,367.223754937826A371,371,0,0,1,2.27171981241834e-14,371L2.2655965784226034e-14,370A370,370,0,0,0,52.65649016111549,366.2339334959451Z" fill="darkgray"></path><path d="M2.27171981241834e-14,371A371,371,0,0,1,-52.798804999388736,367.2237549378261L-52.65649016111545,366.2339334959451A370,370,0,0,0,2.2655965784226034e-14,370Z" fill="darkgray"></path><path d="M-52.798804999388736,367.2237549378261A371,371,0,0,1,-104.52277858817033,355.9718932109786L-104.24104603132889,355.0124002373641A370,370,0,0,0,-52.65649016111545,366.2339334959451Z" fill="darkgray"></path><path d="M-104.52277858817033,355.9718932109786A371,371,0,0,1,-154.11896982369976,337.47347027652637L-153.70355481069788,336.56383828117185A370,370,0,0,0,-104.24104603132889,355.0124002373641Z" fill="darkgray"></path><path d="M-154.1189698236999,337.4734702765263A371,371,0,0,1,-200.57774327602672,312.1050606803682L-200.03710245857113,311.263807147537A370,370,0,0,0,-153.70355481069802,336.5638382811718Z" fill="darkgray"></path><path d="M-200.57774327602672,312.1050606803682A371,371,0,0,1,-242.95333229370073,280.38309208542984L-242.29847155975546,279.6273425110756A370,370,0,0,0,-200.03710245857113,311.263807147537Z" fill="darkgray"></path><path d="M-242.95333229370073,280.38309208542984A371,371,0,0,1,-280.3830920854298,242.9533322937008L-279.62734251107554,242.29847155975554A370,370,0,0,0,-242.29847155975546,279.6273425110756Z" fill="darkgray"></path><path d="M-280.3830920854298,242.9533322937008A371,371,0,0,1,-312.1050606803681,200.5777432760269L-311.2638071475369,200.0371024585713A370,370,0,0,0,-279.62734251107554,242.29847155975554Z" fill="darkgray"></path><path d="M-312.1050606803681,200.5777432760269A371,371,0,0,1,-337.4734702765262,154.11896982370013L-336.5638382811717,153.70355481069822A370,370,0,0,0,-311.2638071475369,200.0371024585713Z" fill="darkgray"></path><path d="M-337.4734702765263,154.1189698236998A371,371,0,0,1,-355.9718932109785,104.52277858817041L-355.01240023736403,104.24104603132898A370,370,0,0,0,-336.5638382811718,153.70355481069794Z" fill="darkgray"></path><path d="M-355.9718932109785,104.52277858817041A371,371,0,0,1,-367.223754937826,52.7988049993888L-366.2339334959451,52.656490161115514A370,370,0,0,0,-355.01240023736403,104.24104603132898Z" fill="darkgray"></path><path d="M-367.22375493782613,52.79880499938848A371,371,0,0,1,-371,-2.8407979746037965e-13L-370,-2.833140837205943e-13A370,370,0,0,0,-366.23393349594517,52.656490161115194Z" fill="darkgray"></path><path d="M-371,3.749485899571133e-13A371,371,0,0,1,-367.22375493782613,-52.79880499938839L-366.23393349594517,-52.6564901611151A370,370,0,0,0,-370,3.739379468574984e-13Z" fill="darkgray"></path><path d="M-367.2237549378261,-52.79880499938871A371,371,0,0,1,-355.9718932109786,-104.52277858817031L-355.0124002373641,-104.24104603132888A370,370,0,0,0,-366.2339334959451,-52.65649016111542Z" fill="darkgray"></path><path d="M-355.9718932109786,-104.52277858817031A371,371,0,0,1,-337.47347027652637,-154.11896982369976L-336.56383828117185,-153.70355481069785A370,370,0,0,0,-355.0124002373641,-104.24104603132888Z" fill="darkgray"></path><path d="M-337.47347027652637,-154.11896982369976A371,371,0,0,1,-312.1050606803683,-200.57774327602658L-311.26380714753714,-200.03710245857098A370,370,0,0,0,-336.56383828117185,-153.70355481069785Z" fill="darkgray"></path><path d="M-312.1050606803681,-200.5777432760268A371,371,0,0,1,-280.3830920854297,-242.95333229370087L-279.6273425110755,-242.29847155975557A370,370,0,0,0,-311.26380714753697,-200.0371024585712Z" fill="darkgray"></path><path d="M-280.3830920854297,-242.95333229370087A371,371,0,0,1,-242.95333229370092,-280.38309208542967L-242.29847155975565,-279.6273425110754A370,370,0,0,0,-279.6273425110755,-242.29847155975557Z" fill="darkgray"></path><path d="M-242.95333229370092,-280.38309208542967A371,371,0,0,1,-200.57774327602695,-312.10506068036807L-200.03710245857135,-311.2638071475369A370,370,0,0,0,-242.29847155975565,-279.6273425110754Z" fill="darkgray"></path><path d="M-200.57774327602664,-312.1050606803683A371,371,0,0,1,-154.11896982369984,-337.4734702765263L-153.70355481069797,-336.5638382811718A370,370,0,0,0,-200.03710245857104,-311.2638071475371Z" fill="darkgray"></path><path d="M-154.11896982369984,-337.4734702765263A371,371,0,0,1,-104.52277858817042,-355.9718932109785L-104.241046031329,-355.01240023736403A370,370,0,0,0,-153.70355481069797,-336.5638382811718Z" fill="darkgray"></path><path d="M-104.52277858817042,-355.9718932109785A371,371,0,0,1,-52.79880499938882,-367.223754937826L-52.656490161115535,-366.2339334959451A370,370,0,0,0,-104.241046031329,-355.01240023736403Z" fill="darkgray"></path><path d="M-52.7988049993885,-367.2237549378261A371,371,0,0,1,5.908767930449427e-13,-371L5.892841332254146e-13,-370A370,370,0,0,0,-52.656490161115215,-366.2339334959451Z" fill="darkgray"></path></g><g class="labels"><path d="M2.4003077263288124e-14,-392A392,392,0,0,1,55.78741660312777,-388.0100052173256L52.941119837662065,-368.213576379707A372,372,0,0,0,2.277843046414077e-14,-372Z" fill="#9467BD"></path><path d="M55.78741660312777,-388.0100052173256A392,392,0,0,1,110.43916228184048,-376.121245656883L104.80451114501187,-356.931386184593A372,372,0,0,0,52.941119837662065,-368.213576379707Z" fill="#9467BD" class=""></path><path d="M110.43916228184048,-376.121245656883A392,392,0,0,1,162.84268509673947,-356.5757421789712L154.53438483670175,-338.38310227188083A372,372,0,0,0,104.80451114501187,-356.931386184593Z" fill="#9467BD"></path><path d="M162.84268509673947,-356.5757421789712A392,392,0,0,1,211.93120044259427,-329.771384869823L201.11838409348232,-312.94631421319934A372,372,0,0,0,154.53438483670175,-338.38310227188083Z" fill="#9467BD"></path><path d="M211.93120044259427,-329.771384869823A392,392,0,0,1,256.70540770655174,-296.2538331468692L243.60819302764605,-281.1388416597841A372,372,0,0,0,201.11838409348232,-312.94631421319934Z" fill="#BCBE27"></path><path d="M256.70540770655174,-296.2538331468692A392,392,0,0,1,296.2538331468692,-256.70540770655174L281.1388416597841,-243.60819302764605A372,372,0,0,0,243.60819302764602,-281.1388416597841Z" fill="#BCBE27"></path><path d="M296.2538331468693,-256.70540770655174A392,392,0,0,1,329.771384869823,-211.93120044259425L312.9463142131994,-201.1183840934823A372,372,0,0,0,281.13884165978413,-243.60819302764602Z" fill="#BCBE27"></path><path d="M329.771384869823,-211.93120044259425A392,392,0,0,1,356.5757421789712,-162.84268509673956L338.38310227188083,-154.5343848367018A372,372,0,0,0,312.9463142131994,-201.1183840934823Z" fill="#7F7F7F" class=""></path><path d="M356.5757421789712,-162.84268509673947A392,392,0,0,1,376.121245656883,-110.43916228184045L356.931386184593,-104.80451114501186A372,372,0,0,0,338.3831022718809,-154.53438483670175Z" fill="#7F7F7F"></path><path d="M376.121245656883,-110.43916228184037A392,392,0,0,1,388.01000521732567,-55.787416603127745L368.213576379707,-52.94111983766204A372,372,0,0,0,356.93138618459307,-104.80451114501177Z" fill="#2CA02C" class=""></path><path d="M388.0100052173256,-55.78741660312783A392,392,0,0,1,392,-8.704148513061227e-14L372,-8.260059303211165e-14A372,372,0,0,0,368.213576379707,-52.94111983766213Z" fill="#2CA02C" class=""></path><path d="M392,0A392,392,0,0,1,388.01000521732567,55.787416603127745L368.213576379707,52.94111983766204A372,372,0,0,0,372,0Z" fill="#7F7F7F" class=""></path><path d="M388.0100052173256,55.78741660312783A392,392,0,0,1,376.121245656883,110.43916228184045L356.931386184593,104.80451114501186A372,372,0,0,0,368.213576379707,52.94111983766213Z" fill="#7F7F7F" class=""></path><path d="M376.121245656883,110.43916228184045A392,392,0,0,1,356.5757421789712,162.84268509673947L338.3831022718809,154.53438483670175A372,372,0,0,0,356.931386184593,104.80451114501186Z" fill="#2CA02C"></path><path d="M356.5757421789712,162.84268509673947A392,392,0,0,1,329.77138486982307,211.93120044259416L312.94631421319946,201.1183840934822A372,372,0,0,0,338.3831022718809,154.53438483670175Z" fill="#2CA02C"></path><path d="M329.771384869823,211.93120044259427A392,392,0,0,1,296.2538331468692,256.70540770655174L281.1388416597841,243.60819302764605A372,372,0,0,0,312.94631421319934,201.11838409348232Z" fill="#2CA02C"></path><path d="M296.2538331468692,256.70540770655174A392,392,0,0,1,256.70540770655174,296.2538331468692L243.60819302764605,281.1388416597841A372,372,0,0,0,281.1388416597841,243.60819302764605Z" fill="#1F77B4"></path><path d="M256.7054077065516,296.2538331468694A392,392,0,0,1,211.93120044259416,329.77138486982307L201.1183840934822,312.94631421319946A372,372,0,0,0,243.60819302764594,281.1388416597842Z" fill="#8C564B" class=""></path><path d="M211.93120044259416,329.77138486982307A392,392,0,0,1,162.84268509673942,356.5757421789712L154.5343848367017,338.3831022718809A372,372,0,0,0,201.1183840934822,312.94631421319946Z" fill="#FD7F23"></path><path d="M162.84268509673956,356.57574217897115A392,392,0,0,1,110.43916228184057,376.12124565688293L104.80451114501196,356.93138618459295A372,372,0,0,0,154.53438483670183,338.3831022718808Z" fill="#FD7F23"></path><path d="M110.43916228184057,376.12124565688293A392,392,0,0,1,55.78741660312794,388.0100052173256L52.94111983766223,368.213576379707A372,372,0,0,0,104.80451114501196,356.93138618459295Z" fill="#1F77B4"></path><path d="M55.78741660312777,388.0100052173256A392,392,0,0,1,2.4003077263288124e-14,392L2.277843046414077e-14,372A372,372,0,0,0,52.941119837662065,368.213576379707Z" fill="#E377C2"></path><path d="M2.4003077263288124e-14,392A392,392,0,0,1,-55.787416603127724,388.01000521732567L-52.94111983766202,368.213576379707A372,372,0,0,0,2.277843046414077e-14,372Z" fill="#E377C2"></path><path d="M-55.787416603127724,388.01000521732567A392,392,0,0,1,-110.43916228184034,376.121245656883L-104.80451114501176,356.93138618459307A372,372,0,0,0,-52.94111983766202,368.213576379707Z" fill="#1F77B4"></path><path d="M-110.43916228184034,376.121245656883A392,392,0,0,1,-162.8426850967394,356.57574217897127L-154.53438483670166,338.3831022718809A372,372,0,0,0,-104.80451114501176,356.93138618459307Z" fill="#D62728"></path><path d="M-162.84268509673953,356.5757421789712A392,392,0,0,1,-211.93120044259427,329.771384869823L-201.11838409348232,312.94631421319934A372,372,0,0,0,-154.5343848367018,338.38310227188083Z" fill="#2CA02C"></path><path d="M-211.93120044259427,329.771384869823A392,392,0,0,1,-256.70540770655174,296.2538331468693L-243.60819302764602,281.13884165978413A372,372,0,0,0,-201.11838409348232,312.94631421319934Z" fill="#E377C2" class=""></path><path d="M-256.70540770655174,296.2538331468693A392,392,0,0,1,-296.25383314686917,256.7054077065518L-281.138841659784,243.6081930276461A372,372,0,0,0,-243.60819302764602,281.13884165978413Z" fill="#1F77B4"></path><path d="M-296.25383314686917,256.7054077065518A392,392,0,0,1,-329.7713848698229,211.93120044259445L-312.9463142131993,201.1183840934825A372,372,0,0,0,-281.138841659784,243.6081930276461Z" fill="#E377C2"></path><path d="M-329.7713848698229,211.93120044259445A392,392,0,0,1,-356.5757421789711,162.84268509673976L-338.3831022718807,154.534384836702A372,372,0,0,0,-312.9463142131993,201.1183840934825Z" fill="#1F77B4"></path><path d="M-356.5757421789712,162.84268509673944A392,392,0,0,1,-376.121245656883,110.43916228184042L-356.931386184593,104.80451114501184A372,372,0,0,0,-338.3831022718809,154.53438483670172Z" fill="#1F77B4"></path><path d="M-376.121245656883,110.43916228184042A392,392,0,0,1,-388.0100052173256,55.78741660312779L-368.213576379707,52.941119837662086A372,372,0,0,0,-356.931386184593,104.80451114501184Z" fill="#8C564B"></path><path d="M-388.0100052173257,55.78741660312745A392,392,0,0,1,-392,-3.001597859958728e-13L-372,-2.8484551120016506e-13A372,372,0,0,0,-368.21357637970704,52.941119837661766Z" fill="#8C564B"></path><path d="M-392,3.9617209504902537e-13A392,392,0,0,1,-388.0100052173257,-55.787416603127355L-368.21357637970704,-52.941119837661674A372,372,0,0,0,-372,3.759592330567281e-13Z" fill="#8C564B"></path><path d="M-388.01000521732567,-55.78741660312769A392,392,0,0,1,-376.121245656883,-110.43916228184032L-356.93138618459307,-104.80451114501173A372,372,0,0,0,-368.213576379707,-52.941119837661994Z" fill="#8C564B" class=""></path><path d="M-376.121245656883,-110.43916228184032A392,392,0,0,1,-356.57574217897127,-162.84268509673936L-338.3831022718809,-154.53438483670163A372,372,0,0,0,-356.93138618459307,-104.80451114501173Z" fill="#2CA02C" class=""></path><path d="M-356.57574217897127,-162.84268509673936A392,392,0,0,1,-329.7713848698231,-211.9312004425941L-312.9463142131995,-201.11838409348218A372,372,0,0,0,-338.3831022718809,-154.53438483670163Z" fill="#E377C2"></path><path d="M-329.77138486982295,-211.93120044259436A392,392,0,0,1,-296.25383314686917,-256.70540770655185L-281.138841659784,-243.60819302764614A372,372,0,0,0,-312.94631421319934,-201.1183840934824Z" fill="#E377C2" class=""></path><path d="M-296.25383314686917,-256.70540770655185A392,392,0,0,1,-256.7054077065519,-296.2538331468691L-243.60819302764622,-281.13884165978396A372,372,0,0,0,-281.138841659784,-243.60819302764614Z" fill="#8C564B" class=""></path><path d="M-256.7054077065519,-296.2538331468691A392,392,0,0,1,-211.9312004425945,-329.77138486982284L-201.11838409348255,-312.94631421319923A372,372,0,0,0,-243.60819302764622,-281.13884165978396Z" fill="#E377C2" class=""></path><path d="M-211.9312004425942,-329.77138486982307A392,392,0,0,1,-162.84268509673947,-356.5757421789712L-154.53438483670175,-338.3831022718809A372,372,0,0,0,-201.11838409348226,-312.94631421319946Z" fill="#1F77B4"></path><path d="M-162.84268509673947,-356.5757421789712A392,392,0,0,1,-110.43916228184045,-376.121245656883L-104.80451114501186,-356.931386184593A372,372,0,0,0,-154.53438483670175,-338.3831022718809Z" fill="#E377C2" class=""></path><path d="M-110.43916228184045,-376.121245656883A392,392,0,0,1,-55.78741660312781,-388.0100052173256L-52.94111983766211,-368.213576379707A372,372,0,0,0,-104.80451114501186,-356.931386184593Z" fill="#2CA02C"></path><path d="M-55.78741660312747,-388.01000521732567A392,392,0,0,1,6.243226492550338e-13,-392L5.924694528644709e-13,-372A372,372,0,0,0,-52.94111983766179,-368.213576379707Z" fill="#2CA02C"></path></g><g class="labels"><path d="M2.277843046414077e-14,-372A372,372,0,0,1,52.941119837662065,-368.213576379707L52.79880499938878,-367.223754937826A371,371,0,0,0,2.27171981241834e-14,-371Z" fill="darkgray"></path><path d="M52.941119837662065,-368.213576379707A372,372,0,0,1,104.80451114501187,-356.931386184593L104.52277858817045,-355.9718932109785A371,371,0,0,0,52.79880499938878,-367.223754937826Z" fill="darkgray"></path><path d="M104.80451114501187,-356.931386184593A372,372,0,0,1,154.53438483670175,-338.38310227188083L154.11896982369987,-337.4734702765263A371,371,0,0,0,104.52277858817045,-355.9718932109785Z" fill="darkgray"></path><path d="M154.53438483670175,-338.38310227188083A372,372,0,0,1,201.11838409348232,-312.94631421319934L200.57774327602672,-312.1050606803682A371,371,0,0,0,154.11896982369987,-337.4734702765263Z" fill="darkgray"></path><path d="M201.11838409348232,-312.94631421319934A372,372,0,0,1,243.60819302764605,-281.1388416597841L242.95333229370078,-280.38309208542984A371,371,0,0,0,200.57774327602672,-312.1050606803682Z" fill="darkgray"></path><path d="M243.60819302764602,-281.1388416597841A372,372,0,0,1,281.1388416597841,-243.60819302764605L280.38309208542984,-242.95333229370078A371,371,0,0,0,242.95333229370073,-280.38309208542984Z" fill="darkgray"></path><path d="M281.13884165978413,-243.60819302764602A372,372,0,0,1,312.9463142131994,-201.1183840934823L312.10506068036824,-200.5777432760267A371,371,0,0,0,280.38309208542984,-242.95333229370073Z" fill="darkgray"></path><path d="M312.9463142131994,-201.1183840934823A372,372,0,0,1,338.38310227188083,-154.5343848367018L337.4734702765263,-154.11896982369993A371,371,0,0,0,312.10506068036824,-200.5777432760267Z" fill="darkgray"></path><path d="M338.3831022718809,-154.53438483670175A372,372,0,0,1,356.931386184593,-104.80451114501186L355.9718932109785,-104.52277858817042A371,371,0,0,0,337.4734702765263,-154.11896982369984Z" fill="darkgray"></path><path d="M356.93138618459307,-104.80451114501177A372,372,0,0,1,368.213576379707,-52.94111983766204L367.2237549378261,-52.79880499938876A371,371,0,0,0,355.9718932109786,-104.52277858817034Z" fill="darkgray"></path><path d="M368.213576379707,-52.94111983766213A372,372,0,0,1,372,-8.260059303211165e-14L371,-8.237854842718662e-14A371,371,0,0,0,367.223754937826,-52.79880499938884Z" fill="darkgray"></path><path d="M372,0A372,372,0,0,1,368.213576379707,52.94111983766204L367.2237549378261,52.79880499938876A371,371,0,0,0,371,0Z" fill="darkgray"></path><path d="M368.213576379707,52.94111983766213A372,372,0,0,1,356.931386184593,104.80451114501186L355.9718932109785,104.52277858817042A371,371,0,0,0,367.223754937826,52.79880499938884Z" fill="darkgray"></path><path d="M356.931386184593,104.80451114501186A372,372,0,0,1,338.3831022718809,154.53438483670175L337.4734702765263,154.11896982369984A371,371,0,0,0,355.9718932109785,104.52277858817042Z" fill="darkgray"></path><path d="M338.3831022718809,154.53438483670175A372,372,0,0,1,312.94631421319946,201.1183840934822L312.1050606803683,200.5777432760266A371,371,0,0,0,337.4734702765263,154.11896982369984Z" fill="darkgray"></path><path d="M312.94631421319934,201.11838409348232A372,372,0,0,1,281.1388416597841,243.60819302764605L280.38309208542984,242.95333229370078A371,371,0,0,0,312.1050606803682,200.57774327602672Z" fill="darkgray"></path><path d="M281.1388416597841,243.60819302764605A372,372,0,0,1,243.60819302764605,281.1388416597841L242.95333229370078,280.38309208542984A371,371,0,0,0,280.38309208542984,242.95333229370078Z" fill="darkgray"></path><path d="M243.60819302764594,281.1388416597842A372,372,0,0,1,201.1183840934822,312.94631421319946L200.5777432760266,312.1050606803683A371,371,0,0,0,242.95333229370064,280.38309208542995Z" fill="darkgray"></path><path d="M201.1183840934822,312.94631421319946A372,372,0,0,1,154.5343848367017,338.3831022718809L154.1189698236998,337.4734702765263A371,371,0,0,0,200.5777432760266,312.1050606803683Z" fill="darkgray"></path><path d="M154.53438483670183,338.3831022718808A372,372,0,0,1,104.80451114501196,356.93138618459295L104.52277858817052,355.97189321097846A371,371,0,0,0,154.11896982369996,337.47347027652626Z" fill="darkgray"></path><path d="M104.80451114501196,356.93138618459295A372,372,0,0,1,52.94111983766223,368.213576379707L52.79880499938894,367.223754937826A371,371,0,0,0,104.52277858817052,355.97189321097846Z" fill="darkgray"></path><path d="M52.941119837662065,368.213576379707A372,372,0,0,1,2.277843046414077e-14,372L2.27171981241834e-14,371A371,371,0,0,0,52.79880499938878,367.223754937826Z" fill="darkgray"></path><path d="M2.277843046414077e-14,372A372,372,0,0,1,-52.94111983766202,368.213576379707L-52.798804999388736,367.2237549378261A371,371,0,0,0,2.27171981241834e-14,371Z" fill="darkgray"></path><path d="M-52.94111983766202,368.213576379707A372,372,0,0,1,-104.80451114501176,356.93138618459307L-104.52277858817033,355.9718932109786A371,371,0,0,0,-52.798804999388736,367.2237549378261Z" fill="darkgray"></path><path d="M-104.80451114501176,356.93138618459307A372,372,0,0,1,-154.53438483670166,338.3831022718809L-154.11896982369976,337.47347027652637A371,371,0,0,0,-104.52277858817033,355.9718932109786Z" fill="darkgray"></path><path d="M-154.5343848367018,338.38310227188083A372,372,0,0,1,-201.11838409348232,312.94631421319934L-200.57774327602672,312.1050606803682A371,371,0,0,0,-154.1189698236999,337.4734702765263Z" fill="darkgray"></path><path d="M-201.11838409348232,312.94631421319934A372,372,0,0,1,-243.60819302764602,281.13884165978413L-242.95333229370073,280.38309208542984A371,371,0,0,0,-200.57774327602672,312.1050606803682Z" fill="darkgray"></path><path d="M-243.60819302764602,281.13884165978413A372,372,0,0,1,-281.138841659784,243.6081930276461L-280.3830920854298,242.9533322937008A371,371,0,0,0,-242.95333229370073,280.38309208542984Z" fill="darkgray"></path><path d="M-281.138841659784,243.6081930276461A372,372,0,0,1,-312.9463142131993,201.1183840934825L-312.1050606803681,200.5777432760269A371,371,0,0,0,-280.3830920854298,242.9533322937008Z" fill="darkgray"></path><path d="M-312.9463142131993,201.1183840934825A372,372,0,0,1,-338.3831022718807,154.534384836702L-337.4734702765262,154.11896982370013A371,371,0,0,0,-312.1050606803681,200.5777432760269Z" fill="darkgray"></path><path d="M-338.3831022718809,154.53438483670172A372,372,0,0,1,-356.931386184593,104.80451114501184L-355.9718932109785,104.52277858817041A371,371,0,0,0,-337.4734702765263,154.1189698236998Z" fill="darkgray"></path><path d="M-356.931386184593,104.80451114501184A372,372,0,0,1,-368.213576379707,52.941119837662086L-367.223754937826,52.7988049993888A371,371,0,0,0,-355.9718932109785,104.52277858817041Z" fill="darkgray"></path><path d="M-368.21357637970704,52.941119837661766A372,372,0,0,1,-372,-2.8484551120016506e-13L-371,-2.8407979746037965e-13A371,371,0,0,0,-367.22375493782613,52.79880499938848Z" fill="darkgray"></path><path d="M-372,3.759592330567281e-13A372,372,0,0,1,-368.21357637970704,-52.941119837661674L-367.22375493782613,-52.79880499938839A371,371,0,0,0,-371,3.749485899571133e-13Z" fill="darkgray"></path><path d="M-368.213576379707,-52.941119837661994A372,372,0,0,1,-356.93138618459307,-104.80451114501173L-355.9718932109786,-104.52277858817031A371,371,0,0,0,-367.2237549378261,-52.79880499938871Z" fill="darkgray"></path><path d="M-356.93138618459307,-104.80451114501173A372,372,0,0,1,-338.3831022718809,-154.53438483670163L-337.47347027652637,-154.11896982369976A371,371,0,0,0,-355.9718932109786,-104.52277858817031Z" fill="darkgray"></path><path d="M-338.3831022718809,-154.53438483670163A372,372,0,0,1,-312.9463142131995,-201.11838409348218L-312.1050606803683,-200.57774327602658A371,371,0,0,0,-337.47347027652637,-154.11896982369976Z" fill="darkgray"></path><path d="M-312.94631421319934,-201.1183840934824A372,372,0,0,1,-281.138841659784,-243.60819302764614L-280.3830920854297,-242.95333229370087A371,371,0,0,0,-312.1050606803681,-200.5777432760268Z" fill="darkgray"></path><path d="M-281.138841659784,-243.60819302764614A372,372,0,0,1,-243.60819302764622,-281.13884165978396L-242.95333229370092,-280.38309208542967A371,371,0,0,0,-280.3830920854297,-242.95333229370087Z" fill="darkgray"></path><path d="M-243.60819302764622,-281.13884165978396A372,372,0,0,1,-201.11838409348255,-312.94631421319923L-200.57774327602695,-312.10506068036807A371,371,0,0,0,-242.95333229370092,-280.38309208542967Z" fill="darkgray"></path><path d="M-201.11838409348226,-312.94631421319946A372,372,0,0,1,-154.53438483670175,-338.3831022718809L-154.11896982369984,-337.4734702765263A371,371,0,0,0,-200.57774327602664,-312.1050606803683Z" fill="darkgray"></path><path d="M-154.53438483670175,-338.3831022718809A372,372,0,0,1,-104.80451114501186,-356.931386184593L-104.52277858817042,-355.9718932109785A371,371,0,0,0,-154.11896982369984,-337.4734702765263Z" fill="darkgray"></path><path d="M-104.80451114501186,-356.931386184593A372,372,0,0,1,-52.94111983766211,-368.213576379707L-52.79880499938882,-367.223754937826A371,371,0,0,0,-104.52277858817042,-355.9718932109785Z" fill="darkgray"></path><path d="M-52.94111983766179,-368.213576379707A372,372,0,0,1,5.924694528644709e-13,-372L5.908767930449427e-13,-371A371,371,0,0,0,-52.7988049993885,-367.2237549378261Z" fill="darkgray"></path></g><g class="labels"><rect y="-9" width="16" height="18" transform="rotate(-85.9090909090909)translate(404,0)" fill="#1F77B4"></rect><rect y="-9" width="22" height="18" transform="rotate(-77.72727272727273)translate(404,0)" fill="#1F77B4"></rect><rect y="-9" width="11" height="18" transform="rotate(-69.54545454545455)translate(404,0)" fill="#1F77B4"></rect><rect y="-9" width="5" height="18" transform="rotate(-61.36363636363636)translate(404,0)" fill="#1F77B4"></rect><rect y="-9" width="27" height="18" transform="rotate(-53.18181818181818)translate(404,0)" fill="#1F77B4"></rect><rect y="-9" width="33" height="18" transform="rotate(-45)translate(404,0)" fill="#1F77B4"></rect><rect y="-9" width="38" height="18" transform="rotate(-36.81818181818181)translate(404,0)" fill="#1F77B4"></rect><rect y="-9" width="44" height="18" transform="rotate(-28.63636363636364)translate(404,0)" fill="#1F77B4" class=""></rect><rect y="-9" width="50" height="18" transform="rotate(-20.454545454545453)translate(404,0)" fill="#1F77B4" class=""></rect><rect y="-9" width="27" height="18" transform="rotate(-12.272727272727266)translate(404,0)" fill="#1F77B4" class=""></rect><rect y="-9" width="11" height="18" transform="rotate(-4.0909090909090935)translate(404,0)" fill="#1F77B4" class=""></rect><rect y="-9" width="50" height="18" transform="rotate(4.0909090909090935)translate(404,0)" fill="#1F77B4" class=""></rect><rect y="-9" width="44" height="18" transform="rotate(12.27272727272728)translate(404,0)" fill="#1F77B4"></rect><rect y="-9" width="38" height="18" transform="rotate(20.454545454545453)translate(404,0)" fill="#1F77B4"></rect><rect y="-9" width="33" height="18" transform="rotate(28.636363636363626)translate(404,0)" fill="#1F77B4"></rect><rect y="-9" width="27" height="18" transform="rotate(36.81818181818183)translate(404,0)" fill="#1F77B4"></rect><rect y="-9" width="38" height="18" transform="rotate(45)translate(404,0)" fill="#1F77B4" class=""></rect><rect y="-9" width="27" height="18" transform="rotate(53.18181818181819)translate(404,0)" fill="#1F77B4"></rect><rect y="-9" width="16" height="18" transform="rotate(61.363636363636374)translate(404,0)" fill="#1F77B4"></rect><rect y="-9" width="22" height="18" transform="rotate(69.54545454545453)translate(404,0)" fill="#1F77B4"></rect><rect y="-9" width="38" height="18" transform="rotate(77.72727272727272)translate(404,0)" fill="#1F77B4"></rect><rect y="-9" width="27" height="18" transform="rotate(85.9090909090909)translate(404,0)" fill="#1F77B4" class=""></rect><rect y="-9" width="11" height="18" transform="rotate(94.0909090909091)translate(404,0)rotate(360)" fill="#1F77B4"></rect><rect y="-9" width="33" height="18" transform="rotate(102.27272727272725)translate(404,0)rotate(360)" fill="#1F77B4"></rect><rect y="-9" width="33" height="18" transform="rotate(110.45454545454544)translate(404,0)rotate(360)" fill="#1F77B4" class=""></rect><rect y="-9" width="22" height="18" transform="rotate(118.63636363636365)translate(404,0)rotate(360)" fill="#1F77B4" class=""></rect><rect y="-9" width="27" height="18" transform="rotate(126.81818181818181)translate(404,0)rotate(360)" fill="#1F77B4"></rect><rect y="-9" width="27" height="18" transform="rotate(135)translate(404,0)rotate(360)" fill="#1F77B4"></rect><rect y="-9" width="27" height="18" transform="rotate(143.1818181818182)translate(404,0)rotate(360)" fill="#1F77B4"></rect><rect y="-9" width="33" height="18" transform="rotate(151.36363636363635)translate(404,0)rotate(360)" fill="#1F77B4"></rect><rect y="-9" width="33" height="18" transform="rotate(159.54545454545456)translate(404,0)rotate(360)" fill="#1F77B4"></rect><rect y="-9" width="38" height="18" transform="rotate(167.72727272727275)translate(404,0)rotate(360)" fill="#1F77B4"></rect><rect y="-9" width="27" height="18" transform="rotate(175.90909090909093)translate(404,0)rotate(360)" fill="#1F77B4"></rect><rect y="-9" width="27" height="18" transform="rotate(184.09090909090907)translate(404,0)rotate(360)" fill="#1F77B4"></rect><rect y="-9" width="27" height="18" transform="rotate(192.27272727272725)translate(404,0)rotate(360)" fill="#1F77B4"></rect><rect y="-9" width="16" height="18" transform="rotate(200.45454545454544)translate(404,0)rotate(360)" fill="#1F77B4" class=""></rect><rect y="-9" width="27" height="18" transform="rotate(208.63636363636363)translate(404,0)rotate(360)" fill="#1F77B4"></rect><rect y="-9" width="27" height="18" transform="rotate(216.8181818181818)translate(404,0)rotate(360)" fill="#1F77B4"></rect><rect y="-9" width="27" height="18" transform="rotate(225)translate(404,0)rotate(360)" fill="#1F77B4" class=""></rect><rect y="-9" width="33" height="18" transform="rotate(233.1818181818182)translate(404,0)rotate(360)" fill="#1F77B4"></rect><rect y="-9" width="38" height="18" transform="rotate(241.36363636363637)translate(404,0)rotate(360)" fill="#1F77B4"></rect><rect y="-9" width="33" height="18" transform="rotate(249.54545454545456)translate(404,0)rotate(360)" fill="#1F77B4" class=""></rect><rect y="-9" width="33" height="18" transform="rotate(257.72727272727275)translate(404,0)rotate(360)" fill="#1F77B4"></rect><rect y="-9" width="33" height="18" transform="rotate(265.90909090909093)translate(404,0)rotate(360)" fill="#1F77B4"></rect></g><g class="labels"><circle cx="0" cy="0" r="4" fill="#FD7F23" stroke="#FD7F23" stroke-width="2" transform="rotate(-85.9090909090909)translate(464,0)rotate(0)"></circle><circle cx="0" cy="0" r="4" fill="#FD7F23" stroke="#FD7F23" stroke-width="2" transform="rotate(-77.72727272727273)translate(464,0)rotate(0)" class=""></circle><circle cx="0" cy="0" r="4" fill="#FD7F23" stroke="#FD7F23" stroke-width="2" transform="rotate(-69.54545454545455)translate(464,0)rotate(0)"></circle><circle cx="0" cy="0" r="4" fill="#FD7F23" stroke="#FD7F23" stroke-width="2" transform="rotate(-61.36363636363636)translate(464,0)rotate(0)"></circle><circle cx="0" cy="0" r="4" fill="#FD7F23" stroke="#FD7F23" stroke-width="2" transform="rotate(-53.18181818181818)translate(464,0)rotate(0)"></circle><circle cx="0" cy="0" r="4" fill="white" stroke="#FD7F23" stroke-width="2" transform="rotate(-45)translate(464,0)rotate(0)"></circle><circle cx="0" cy="0" r="4" fill="white" stroke="#FD7F23" stroke-width="2" transform="rotate(-36.81818181818181)translate(464,0)rotate(0)"></circle><circle cx="0" cy="0" r="4" fill="white" stroke="#FD7F23" stroke-width="2" transform="rotate(-28.63636363636364)translate(464,0)rotate(0)"></circle><circle cx="0" cy="0" r="4" fill="white" stroke="#FD7F23" stroke-width="2" transform="rotate(-20.454545454545453)translate(464,0)rotate(0)"></circle><circle cx="0" cy="0" r="4" fill="#FD7F23" stroke="#FD7F23" stroke-width="2" transform="rotate(-12.272727272727266)translate(464,0)rotate(0)"></circle><circle cx="0" cy="0" r="4" fill="white" stroke="#FD7F23" stroke-width="2" transform="rotate(-4.0909090909090935)translate(464,0)rotate(0)"></circle><circle cx="0" cy="0" r="4" fill="white" stroke="white" stroke-width="2" transform="rotate(4.0909090909090935)translate(464,0)rotate(0)" class=""></circle><circle cx="0" cy="0" r="4" fill="white" stroke="white" stroke-width="2" transform="rotate(12.27272727272728)translate(464,0)rotate(0)"></circle><circle cx="0" cy="0" r="4" fill="white" stroke="white" stroke-width="2" transform="rotate(20.454545454545453)translate(464,0)rotate(0)"></circle><circle cx="0" cy="0" r="4" fill="white" stroke="white" stroke-width="2" transform="rotate(28.636363636363626)translate(464,0)rotate(0)"></circle><circle cx="0" cy="0" r="4" fill="white" stroke="white" stroke-width="2" transform="rotate(36.81818181818183)translate(464,0)rotate(0)"></circle><circle cx="0" cy="0" r="4" fill="white" stroke="#FD7F23" stroke-width="2" transform="rotate(45)translate(464,0)rotate(0)" class=""></circle><circle cx="0" cy="0" r="4" fill="white" stroke="white" stroke-width="2" transform="rotate(53.18181818181819)translate(464,0)rotate(0)"></circle><circle cx="0" cy="0" r="4" fill="#FD7F23" stroke="#FD7F23" stroke-width="2" transform="rotate(61.363636363636374)translate(464,0)rotate(0)"></circle><circle cx="0" cy="0" r="4" fill="white" stroke="white" stroke-width="2" transform="rotate(69.54545454545453)translate(464,0)rotate(0)"></circle><circle cx="0" cy="0" r="4" fill="white" stroke="#FD7F23" stroke-width="2" transform="rotate(77.72727272727272)translate(464,0)rotate(0)"></circle><circle cx="0" cy="0" r="4" fill="#FD7F23" stroke="#FD7F23" stroke-width="2" transform="rotate(85.9090909090909)translate(464,0)rotate(0)"></circle><circle cx="0" cy="0" r="4" fill="white" stroke="white" stroke-width="2" transform="rotate(94.0909090909091)translate(464,0)rotate(0)"></circle><circle cx="0" cy="0" r="4" fill="#FD7F23" stroke="#FD7F23" stroke-width="2" transform="rotate(102.27272727272725)translate(464,0)rotate(0)"></circle><circle cx="0" cy="0" r="4" fill="white" stroke="#FD7F23" stroke-width="2" transform="rotate(110.45454545454544)translate(464,0)rotate(0)"></circle><circle cx="0" cy="0" r="4" fill="white" stroke="#FD7F23" stroke-width="2" transform="rotate(118.63636363636365)translate(464,0)rotate(0)"></circle><circle cx="0" cy="0" r="4" fill="white" stroke="#FD7F23" stroke-width="2" transform="rotate(126.81818181818181)translate(464,0)rotate(0)"></circle><circle cx="0" cy="0" r="4" fill="#FD7F23" stroke="#FD7F23" stroke-width="2" transform="rotate(135)translate(464,0)rotate(0)"></circle><circle cx="0" cy="0" r="4" fill="white" stroke="#FD7F23" stroke-width="2" transform="rotate(143.1818181818182)translate(464,0)rotate(0)"></circle><circle cx="0" cy="0" r="4" fill="#FD7F23" stroke="#FD7F23" stroke-width="2" transform="rotate(151.36363636363635)translate(464,0)rotate(0)"></circle><circle cx="0" cy="0" r="4" fill="white" stroke="#FD7F23" stroke-width="2" transform="rotate(159.54545454545456)translate(464,0)rotate(0)"></circle><circle cx="0" cy="0" r="4" fill="#FD7F23" stroke="#FD7F23" stroke-width="2" transform="rotate(167.72727272727275)translate(464,0)rotate(0)"></circle><circle cx="0" cy="0" r="4" fill="#FD7F23" stroke="#FD7F23" stroke-width="2" transform="rotate(175.90909090909093)translate(464,0)rotate(0)"></circle><circle cx="0" cy="0" r="4" fill="white" stroke="#FD7F23" stroke-width="2" transform="rotate(184.09090909090907)translate(464,0)rotate(0)"></circle><circle cx="0" cy="0" r="4" fill="white" stroke="white" stroke-width="2" transform="rotate(192.27272727272725)translate(464,0)rotate(0)"></circle><circle cx="0" cy="0" r="4" fill="white" stroke="#FD7F23" stroke-width="2" transform="rotate(200.45454545454544)translate(464,0)rotate(0)"></circle><circle cx="0" cy="0" r="4" fill="white" stroke="white" stroke-width="2" transform="rotate(208.63636363636363)translate(464,0)rotate(0)"></circle><circle cx="0" cy="0" r="4" fill="white" stroke="white" stroke-width="2" transform="rotate(216.8181818181818)translate(464,0)rotate(0)" class=""></circle><circle cx="0" cy="0" r="4" fill="white" stroke="white" stroke-width="2" transform="rotate(225)translate(464,0)rotate(0)"></circle><circle cx="0" cy="0" r="4" fill="white" stroke="#FD7F23" stroke-width="2" transform="rotate(233.1818181818182)translate(464,0)rotate(0)"></circle><circle cx="0" cy="0" r="4" fill="#FD7F23" stroke="#FD7F23" stroke-width="2" transform="rotate(241.36363636363637)translate(464,0)rotate(0)" class=""></circle><circle cx="0" cy="0" r="4" fill="#FD7F23" stroke="#FD7F23" stroke-width="2" transform="rotate(249.54545454545456)translate(464,0)rotate(0)" class=""></circle><circle cx="0" cy="0" r="4" fill="white" stroke="#FD7F23" stroke-width="2" transform="rotate(257.72727272727275)translate(464,0)rotate(0)"></circle><circle cx="0" cy="0" r="4" fill="#FD7F23" stroke="#FD7F23" stroke-width="2" transform="rotate(265.90909090909093)translate(464,0)rotate(0)"></circle></g></g><style>text { cursor: pointer; }</style><text x="0" y="25" fill="black">Scale: 0.1</text><rect x="0" y="40" width="80" height="2" fill="black" stroke="black"></rect><rect x="0" y="36" width="2" height="6" fill="black"></rect><rect x="80" y="36" width="2" height="7" fill="black"></rect></svg>