<svg version="1.1" xmlns="http://www.w3.org/2000/svg" xmlns:xlink="http://www.w3.org/1999/xlink" width="497" height="497"><defs><clipPath id="mdkTdJRgSnLb"><path fill="none" stroke="none" d=" M 28.0107421875 33 L 407.95361328125 33 L 407.95361328125 457 L 28.0107421875 457 L 28.0107421875 33 Z"/></clipPath></defs><g><g transform="translate(248.5,248.5)"><path fill="rgb(255,255,255)" stroke="none" paint-order="stroke fill markers" d=" M -249 -249 L 249 -249 L 249 249 L -249 249 Z"/><g transform="translate(-248.5,-248.5)"/></g><path fill="none" stroke="rgb(204,204,204)" paint-order="fill stroke markers" d=" M 28.0107421875 457.5 L 407.95361328125 457.5" stroke-miterlimit="10" stroke-width="0.3333333333333333"/><path fill="none" stroke="rgb(204,204,204)" paint-order="fill stroke markers" d=" M 28.0107421875 436.5 L 407.95361328125 436.5" stroke-miterlimit="10" stroke-width="0.3333333333333333"/><path fill="none" stroke="rgb(204,204,204)" paint-order="fill stroke markers" d=" M 28.0107421875 415.5 L 407.95361328125 415.5" stroke-miterlimit="10" stroke-width="0.3333333333333333"/><path fill="none" stroke="rgb(204,204,204)" paint-order="fill stroke markers" d=" M 28.0107421875 393.5 L 407.95361328125 393.5" stroke-miterlimit="10" stroke-width="0.3333333333333333"/><path fill="none" stroke="rgb(204,204,204)" paint-order="fill stroke markers" d=" M 28.0107421875 372.5 L 407.95361328125 372.5" stroke-miterlimit="10" stroke-width="0.3333333333333333"/><path fill="none" stroke="rgb(204,204,204)" paint-order="fill stroke markers" d=" M 28.0107421875 351.5 L 407.95361328125 351.5" stroke-miterlimit="10" stroke-width="0.3333333333333333"/><path fill="none" stroke="rgb(204,204,204)" paint-order="fill stroke markers" d=" M 28.0107421875 330.5 L 407.95361328125 330.5" stroke-miterlimit="10" stroke-width="0.3333333333333333"/><path fill="none" stroke="rgb(204,204,204)" paint-order="fill stroke markers" d=" M 28.0107421875 309.5 L 407.95361328125 309.5" stroke-miterlimit="10" stroke-width="0.3333333333333333"/><path fill="none" stroke="rgb(204,204,204)" paint-order="fill stroke markers" d=" M 28.0107421875 287.5 L 407.95361328125 287.5" stroke-miterlimit="10" stroke-width="0.3333333333333333"/><path fill="none" stroke="rgb(204,204,204)" paint-order="fill stroke markers" d=" M 28.0107421875 266.5 L 407.95361328125 266.5" stroke-miterlimit="10" stroke-width="0.3333333333333333"/><path fill="none" stroke="rgb(204,204,204)" paint-order="fill stroke markers" d=" M 28.0107421875 245.5 L 407.95361328125 245.5" stroke-miterlimit="10" stroke-width="0.3333333333333333"/><path fill="none" stroke="rgb(204,204,204)" paint-order="fill stroke markers" d=" M 28.0107421875 224.5 L 407.95361328125 224.5" stroke-miterlimit="10" stroke-width="0.3333333333333333"/><path fill="none" stroke="rgb(204,204,204)" paint-order="fill stroke markers" d=" M 28.0107421875 203.5 L 407.95361328125 203.5" stroke-miterlimit="10" stroke-width="0.3333333333333333"/><path fill="none" stroke="rgb(204,204,204)" paint-order="fill stroke markers" d=" M 28.0107421875 181.5 L 407.95361328125 181.5" stroke-miterlimit="10" stroke-width="0.3333333333333333"/><path fill="none" stroke="rgb(204,204,204)" paint-order="fill stroke markers" d=" M 28.0107421875 160.5 L 407.95361328125 160.5" stroke-miterlimit="10" stroke-width="0.3333333333333333"/><path fill="none" stroke="rgb(204,204,204)" paint-order="fill stroke markers" d=" M 28.0107421875 139.5 L 407.95361328125 139.5" stroke-miterlimit="10" stroke-width="0.3333333333333333"/><path fill="none" stroke="rgb(204,204,204)" paint-order="fill stroke markers" d=" M 28.0107421875 118.5 L 407.95361328125 118.5" stroke-miterlimit="10" stroke-width="0.3333333333333333"/><path fill="none" stroke="rgb(204,204,204)" paint-order="fill stroke markers" d=" M 28.0107421875 97.5 L 407.95361328125 97.5" stroke-miterlimit="10" stroke-width="0.3333333333333333"/><path fill="none" stroke="rgb(204,204,204)" paint-order="fill stroke markers" d=" M 28.0107421875 75.5 L 407.95361328125 75.5" stroke-miterlimit="10" stroke-width="0.3333333333333333"/><path fill="none" stroke="rgb(204,204,204)" paint-order="fill stroke markers" d=" M 28.0107421875 54.5 L 407.95361328125 54.5" stroke-miterlimit="10" stroke-width="0.3333333333333333"/><path fill="none" stroke="rgb(204,204,204)" paint-order="fill stroke markers" d=" M 28.0107421875 33.5 L 407.95361328125 33.5" stroke-miterlimit="10" stroke-width="0.3333333333333333"/><path fill="none" stroke="rgb(204,204,204)" paint-order="fill stroke markers" d=" M 28.0107421875 457.5 L 407.95361328125 457.5" stroke-miterlimit="10"/><path fill="none" stroke="rgb(204,204,204)" paint-order="fill stroke markers" d=" M 25.0107421875 457.5 L 28.0107421875 457.5" stroke-miterlimit="10"/><path fill="none" stroke="rgb(204,204,204)" paint-order="fill stroke markers" d=" M 28.0107421875 351.5 L 407.95361328125 351.5" stroke-miterlimit="10"/><path fill="none" stroke="rgb(204,204,204)" paint-order="fill stroke markers" d=" M 25.0107421875 351.5 L 28.0107421875 351.5" stroke-miterlimit="10"/><path fill="none" stroke="rgb(204,204,204)" paint-order="fill stroke markers" d=" M 28.0107421875 245.5 L 407.95361328125 245.5" stroke-miterlimit="10"/><path fill="none" stroke="rgb(204,204,204)" paint-order="fill stroke markers" d=" M 25.0107421875 245.5 L 28.0107421875 245.5" stroke-miterlimit="10"/><path fill="none" stroke="rgb(204,204,204)" paint-order="fill stroke markers" d=" M 28.0107421875 139.5 L 407.95361328125 139.5" stroke-miterlimit="10"/><path fill="none" stroke="rgb(204,204,204)" paint-order="fill stroke markers" d=" M 25.0107421875 139.5 L 28.0107421875 139.5" stroke-miterlimit="10"/><path fill="none" stroke="rgb(204,204,204)" paint-order="fill stroke markers" d=" M 28.0107421875 33.5 L 407.95361328125 33.5" stroke-miterlimit="10"/><path fill="none" stroke="rgb(204,204,204)" paint-order="fill stroke markers" d=" M 25.0107421875 33.5 L 28.0107421875 33.5" stroke-miterlimit="10"/><g clip-path="url(#mdkTdJRgSnLb)"><g><g transform="translate(53.3307421875,191.99999999999994)"><path fill="rgb(254,41,108)" stroke="rgb(0,0,0)" paint-order="fill stroke markers" d=" M -0.4213625511654939 42.400000000000034 Q -2.6435866908396766 35.02455456654061 -3.2625027129953494 31.80000000000004 C -3.864315265804717 28.664554566540605 -3.9986460452665806 24.360825111748365 -4.4904578010489615 21.200000000000017 C -4.988236628798042 18.000825111748362 -5.550345738609802 13.653129495444151 -6.561137991433554 10.600000000000023 C -7.655935671022386 7.293129495444147 -11.561117771667664 3.159489078272223 -11.509090909090908 0 C -11.456388545583705 -3.20051092172779 -7.193998611196763 -7.248845059772933 -6.212040571153686 -10.600000000000023 C -5.330386439850619 -13.608845059772928 -5.958659515886434 -18.10139521429752 -5.297050337937094 -21.19999999999999 C -4.600682405938913 -24.461395214297514 -2.2476283594041786 -28.53271649407757 -1.6854502046619473 -31.80000000000001 Q -1.1533085497887738 -34.89271649407758 -1.6493176392190776 -42.400000000000034 L 1.6493176392190776 -42.400000000000034 Q 1.1533085497887736 -34.89271649407758 1.6854502046619473 -31.80000000000001 C 2.2476283594041786 -28.53271649407757 4.600682405938913 -24.461395214297514 5.297050337937094 -21.19999999999999 C 5.958659515886434 -18.10139521429752 5.330386439850619 -13.60884505977293 6.212040571153686 -10.600000000000023 C 7.193998611196763 -7.2488450597729335 11.456388545583705 -3.200510921727791 11.509090909090908 0 C 11.561117771667664 3.1594890782722227 7.655935671022386 7.293129495444147 6.561137991433554 10.600000000000023 C 5.550345738609802 13.653129495444151 4.988236628798042 18.000825111748362 4.4904578010489615 21.200000000000017 C 3.9986460452665806 24.360825111748365 3.8643152658047164 28.664554566540605 3.2625027129953494 31.80000000000004 Q 2.643586690839676 35.02455456654061 0.4213625511654939 42.400000000000034 L -0.4213625511654939 42.400000000000034" fill-opacity="0.25" stroke-linejoin="mitter" stroke-miterlimit="10"/><g transform="translate(-53.3307421875,-191.99999999999994)"/></g><g transform="translate(179.9307421875,139)"><path fill="rgb(254,41,108)" stroke="rgb(0,0,0)" paint-order="fill stroke markers" d=" M 0 79.5 Q -2.2245654646065467 60.836754869074696 -3.9263376197092157 53 C -5.677292737333817 44.9367548690747 -10.498223970844917 34.60372292362334 -11.5090909090909 26.5 C -12.481606728325065 18.70372292362334 -11.30823506702181 7.903448688005509 -10.537613477976379 0 C -9.757913966763683 -7.996551311994491 -7.601188257287216 -18.55015157571866 -6.341353908230474 -26.5 C -5.081471517931519 -34.450151575718664 -3.094124420977198 -45.01352928757307 -2.138557680124052 -53 Q -1.1917182485080557 -60.91352928757307 0 -79.5 L 0 -79.5 Q 1.1917182485080557 -60.91352928757307 2.138557680124052 -53 C 3.094124420977198 -45.01352928757307 5.081471517931519 -34.450151575718664 6.341353908230474 -26.5 C 7.601188257287216 -18.55015157571866 9.757913966763683 -7.99655131199449 10.537613477976379 0 C 11.30823506702181 7.9034486880055095 12.481606728325065 18.70372292362334 11.5090909090909 26.5 C 10.498223970844917 34.60372292362334 5.677292737333817 44.9367548690747 3.9263376197092157 53 Q 2.224565464606547 60.836754869074696 0 79.5 L 0 79.5" fill-opacity="0.25" stroke-linejoin="mitter" stroke-miterlimit="10"/><g transform="translate(-179.9307421875,-139)"/></g><g transform="translate(306.5307421875,125.75)"><path fill="rgb(254,41,108)" stroke="rgb(0,0,0)" paint-order="fill stroke markers" d=" M 0 92.75 Q -0.6428023631008508 74.20157732347488 -0.8130149695218165 66.25 C -0.9831600471170142 58.30157732347488 -0.36285448550813015 47.63439199366328 -1.1345256133872113 39.75 C -1.919039279863675 31.734391993663277 -4.447671721149632 21.181818842949458 -6.000297617373633 13.25 C -7.560041309860739 5.281818842949457 -11.679391378613449 -5.337273276035753 -11.5090909090909 -13.25 C -11.33718602262563 -21.23727327603575 -6.11872068489617 -31.686119915937013 -4.85961309741424 -39.75 C -3.636068359680081 -47.58611991593701 -3.8398822980808025 -58.30904481022024 -3.2335831583706067 -66.25 Q -2.625902859713076 -74.20904481022025 -0.8130149695218165 -92.75 L 0.8130149695218165 -92.75 Q 2.625902859713076 -74.20904481022025 3.2335831583706067 -66.25 C 3.8398822980808025 -58.30904481022024 3.6360683596800816 -47.58611991593701 4.85961309741424 -39.75 C 6.11872068489617 -31.68611991593701 11.33718602262563 -21.237273276035754 11.5090909090909 -13.25 C 11.679391378613449 -5.337273276035755 7.56004130986074 5.2818188429494555 6.000297617373633 13.25 C 4.447671721149632 21.181818842949454 1.919039279863675 31.734391993663277 1.1345256133872113 39.75 C 0.36285448550813015 47.63439199366328 0.9831600471170143 58.30157732347488 0.8130149695218165 66.25 Q 0.6428023631008509 74.20157732347488 0 92.75 L 0 92.75" fill-opacity="0.25" stroke-linejoin="mitter" stroke-miterlimit="10"/><g transform="translate(-306.5307421875,-125.75)"/></g><g transform="translate(78.6507421875,282.0999999999999)"><path fill="rgb(72,126,182)" stroke="rgb(0,0,0)" paint-order="fill stroke markers" d=" M -0.5325991826269529 58.30000000000007 Q -0.6124387014571075 50.87799548780916 -0.5325991826269529 47.700000000000045 C -0.4526589466690216 44.51799548780915 0 40.28000000000003 0 37.10000000000002 C 0 33.92000000000003 0 29.397593532449477 -0.5325991826269529 26.500000000000057 C -1.756722244639346 23.03759353244948 -6.402141663186011 19.36387300614626 -7.495194211851626 15.900000000000034 C -8.409090011805647 13.003873006146264 -6.643031268404041 8.360165887950027 -7.222427011359073 5.300000000000068 C -7.847200277575828 2.0001658879500304 -11.511030779932033 -2.1206750985475327 -11.509090909090915 -5.2999999999999545 C -11.507150214424597 -8.480675098547547 -8.082031927193448 -12.61127654452778 -7.20949179300095 -15.899999999999977 C -6.394643088149967 -18.971276544527793 -6.589745494185614 -23.38909657038602 -5.884461445612644 -26.5 C -5.147847135585426 -29.749096570386023 -3.1008865334737097 -33.8465671226186 -2.4031639310003214 -37.099999999999994 C -1.7369377695138413 -40.2065671226186 -1.5780861523568392 -44.51401661750417 -1.3379655657464156 -47.70000000000002 Q -1.098746887992586 -50.874016617504175 -0.8053663831194768 -58.30000000000001 L 0.8053663831194768 -58.30000000000001 Q 1.098746887992586 -50.874016617504175 1.3379655657464156 -47.70000000000002 C 1.5780861523568392 -44.51401661750417 1.736937769513841 -40.20656712261861 2.4031639310003214 -37.099999999999994 C 3.1008865334737097 -33.8465671226186 5.147847135585425 -29.749096570386026 5.884461445612644 -26.5 C 6.589745494185614 -23.38909657038602 6.394643088149966 -18.971276544527793 7.20949179300095 -15.899999999999977 C 8.082031927193448 -12.611276544527781 11.507150214424597 -8.480675098547547 11.509090909090915 -5.2999999999999545 C 11.511030779932033 -2.1206750985475327 7.847200277575828 2.000165887950031 7.222427011359073 5.300000000000068 C 6.643031268404041 8.360165887950027 8.409090011805647 13.003873006146264 7.495194211851626 15.900000000000034 C 6.402141663186011 19.36387300614626 1.756722244639346 23.03759353244948 0.5325991826269529 26.500000000000057 C 0 29.397593532449477 0 33.92000000000003 0 37.10000000000002 C 0 40.28000000000003 0.4526589466690216 44.517995487809145 0.5325991826269529 47.700000000000045 Q 0.6124387014571074 50.87799548780916 0.5325991826269529 58.30000000000007 L -0.5325991826269529 58.30000000000007" fill-opacity="0.25" stroke-linejoin="mitter" stroke-miterlimit="10"/><g transform="translate(-78.6507421875,-282.0999999999999)"/></g><g transform="translate(205.2507421875,313.9)"><path fill="rgb(72,126,182)" stroke="rgb(0,0,0)" paint-order="fill stroke markers" d=" M -0.8414248751739422 37.10000000000002 Q -2.3658858414574633 29.663917798570512 -3.116157322657699 26.5 C -3.874056067178693 23.3039177985705 -5.304505430314549 19.125438448563067 -5.868658960911375 15.899999999999977 C -6.4169174362526125 12.765438448563055 -6.109774250145455 8.382718877381965 -6.824197342451242 5.2999999999999545 C -7.583710423956917 2.0227188773819678 -10.056951660042406 -2.0200213105117535 -10.781779540282912 -5.300000000000011 C -11.462419730034304 -8.38002131051175 -12.374748761867155 -13.008303121024948 -11.5090909090909 -15.900000000000034 C -10.47082031636275 -19.368303121024944 -6.072727834677927 -23.09345122024823 -4.4353513886015605 -26.5 Q -3.0157587817338154 -29.453451220248226 -1.3191940659438615 -37.10000000000002 L 1.3191940659438615 -37.10000000000002 Q 3.0157587817338154 -29.453451220248226 4.4353513886015605 -26.5 C 6.072727834677927 -23.09345122024823 10.470820316362751 -19.368303121024944 11.5090909090909 -15.900000000000034 C 12.374748761867155 -13.008303121024948 11.462419730034304 -8.38002131051175 10.781779540282912 -5.300000000000011 C 10.056951660042406 -2.0200213105117535 7.583710423956917 2.0227188773819678 6.824197342451242 5.2999999999999545 C 6.109774250145455 8.382718877381965 6.4169174362526125 12.765438448563055 5.868658960911375 15.899999999999977 C 5.304505430314549 19.125438448563067 3.874056067178693 23.3039177985705 3.116157322657699 26.5 Q 2.3658858414574633 29.663917798570512 0.8414248751739422 37.10000000000002 L -0.8414248751739422 37.10000000000002" fill-opacity="0.25" stroke-linejoin="mitter" stroke-miterlimit="10"/><g transform="translate(-205.2507421875,-313.9)"/></g><g transform="translate(331.85074218750003,297.99999999999994)"><path fill="rgb(72,126,182)" stroke="rgb(0,0,0)" paint-order="fill stroke markers" d=" M -0.7808293704736116 42.400000000000034 Q -0.8910504375503231 34.92217010718958 -1.4260923089385074 31.80000000000001 C -1.980954634055477 28.56217010718957 -3.38422823626039 24.33632768907874 -4.413843358824124 21.19999999999999 C -5.4721325717377916 17.976327689078744 -7.3086809199535 13.818261377320574 -8.385773427196511 10.600000000000023 C -9.437255185033532 7.458261377320579 -11.797630990350477 3.080139688969672 -11.5090909090909 0 C -11.20184148009461 -3.2798603110303244 -7.761406312713202 -7.3485558062380365 -6.399808393010289 -10.599999999999966 C -5.098047431781233 -13.708555806238033 -3.4928266969301864 -17.9492505521986 -2.631227972651004 -21.19999999999999 C -1.8071329901691833 -24.309250552198613 -0.9422516842230396 -28.60043801742827 -0.7808293704736116 -31.80000000000001 Q -0.6213809147119053 -34.96043801742829 -1.5616587409472231 -42.400000000000034 L 1.5616587409472231 -42.400000000000034 Q 0.6213809147119053 -34.96043801742829 0.7808293704736116 -31.80000000000001 C 0.9422516842230396 -28.60043801742827 1.8071329901691828 -24.309250552198613 2.631227972651004 -21.19999999999999 C 3.4928266969301864 -17.9492505521986 5.098047431781233 -13.708555806238033 6.399808393010289 -10.599999999999966 C 7.761406312713202 -7.3485558062380365 11.20184148009461 -3.2798603110303244 11.5090909090909 0 C 11.797630990350477 3.080139688969672 9.437255185033532 7.458261377320579 8.385773427196511 10.600000000000023 C 7.3086809199535 13.818261377320574 5.4721325717377916 17.976327689078744 4.413843358824124 21.19999999999999 C 3.38422823626039 24.33632768907874 1.980954634055477 28.56217010718957 1.4260923089385074 31.80000000000001 Q 0.8910504375503231 34.92217010718958 0.7808293704736116 42.400000000000034 L -0.7808293704736116 42.400000000000034" fill-opacity="0.25" stroke-linejoin="mitter" stroke-miterlimit="10"/><g transform="translate(-331.85074218750003,-297.99999999999994)"/></g><g transform="translate(103.97074218750001,380.15)"><path fill="rgb(167,206,49)" stroke="rgb(0,0,0)" paint-order="fill stroke markers" d=" M -0.8853146853146825 23.850000000000023 Q -0.7534311244170175 20.129060834191808 -0.8853146853146825 18.55000000000001 C -1.0190255300114224 16.9490608341918 -1.0732567217985807 14.64162382977581 -1.770629370629365 13.25 C -2.6668231553650132 11.461623829775803 -4.7970922990834515 9.473974933971913 -6.197202797202792 7.949999999999989 C -7.718630760621912 6.2939749339719055 -10.575167695510498 4.513666149480193 -11.5090909090909 2.6499999999999773 C -12.16873412907693 1.3336661494802038 -12.16873412907693 -1.3336661494802038 -11.5090909090909 -2.6499999999999773 C -10.575167695510498 -4.513666149480193 -7.532565427247412 -6.173501250990297 -6.197202797202792 -7.949999999999989 C -5.142215776897765 -9.353501250990304 -4.437141691215399 -11.717637806878468 -3.541258741258744 -13.25 C -2.5779808520545617 -14.897637806878475 -0.283051698006622 -16.855490664145208 0 -18.55000000000001 Q 0 -20.035490664145215 -1.770629370629365 -23.850000000000023 L 1.770629370629365 -23.850000000000023 Q 0 -20.035490664145215 0 -18.55000000000001 C 0.28305169800662205 -16.855490664145208 2.5779808520545617 -14.897637806878475 3.541258741258744 -13.25 C 4.437141691215399 -11.717637806878468 5.142215776897765 -9.353501250990304 6.197202797202792 -7.949999999999989 C 7.5325654272474125 -6.173501250990297 10.575167695510498 -4.513666149480193 11.5090909090909 -2.6499999999999773 C 12.16873412907693 -1.3336661494802038 12.16873412907693 1.3336661494802038 11.5090909090909 2.6499999999999773 C 10.575167695510498 4.513666149480193 7.718630760621912 6.2939749339719055 6.197202797202792 7.949999999999989 C 4.7970922990834515 9.473974933971913 2.6668231553650132 11.461623829775803 1.770629370629365 13.25 C 1.0732567217985807 14.64162382977581 1.0190255300114224 16.9490608341918 0.8853146853146825 18.55000000000001 Q 0.7534311244170175 20.129060834191808 0.8853146853146825 23.850000000000023 L -0.8853146853146825 23.850000000000023" fill-opacity="0.25" stroke-linejoin="mitter" stroke-miterlimit="10"/><g transform="translate(-103.97074218750001,-380.15)"/></g><g transform="translate(230.5707421875,231.75)"><path fill="rgb(167,206,49)" stroke="rgb(0,0,0)" paint-order="fill stroke markers" d=" M -0.8480875647509549 66.25 Q -1.5563576088077753 47.606245586932246 -2.7482475782534834 39.75 C -3.968584964035716 31.706245586932248 -7.56073276329967 21.28461127074616 -8.888845415510758 13.25 C -10.188985762550896 5.384611270746164 -12.357527833730419 -5.470962130863159 -11.5090909090909 -13.25 C -10.62336130456488 -21.370962130863155 -4.870081327345762 -31.636854989903835 -3.1082903182922905 -39.75 Q -1.417354054618492 -47.53685498990383 0 -66.25 L 0 -66.25 Q 1.417354054618492 -47.53685498990383 3.1082903182922905 -39.75 C 4.870081327345762 -31.636854989903835 10.62336130456488 -21.37096213086316 11.5090909090909 -13.25 C 12.357527833730419 -5.47096213086316 10.188985762550894 5.384611270746165 8.888845415510758 13.25 C 7.5607327632996695 21.284611270746165 3.968584964035716 31.70624558693225 2.7482475782534834 39.75 Q 1.556357608807775 47.606245586932246 0.8480875647509549 66.25 L -0.8480875647509549 66.25" fill-opacity="0.25" stroke-linejoin="mitter" stroke-miterlimit="10"/><g transform="translate(-230.5707421875,-231.75)"/></g><g transform="translate(357.17074218749997,152.25)"><path fill="rgb(167,206,49)" stroke="rgb(0,0,0)" paint-order="fill stroke markers" d=" M -0.860992569132577 66.25 Q -10.024174744635584 47.99391119396327 -11.5090909090909 39.75 C -12.888126873587245 32.09391119396327 -11.145599756220232 21.162074339327 -10.407499665638113 13.25 C -9.662323571374131 5.262074339327 -7.732524709496913 -5.302187465826339 -6.564836959603895 -13.25 C -5.396506447431886 -21.202187465826338 -3.498082227764897 -31.76643407191168 -2.620772125421354 -39.75 Q -1.7508391094754612 -47.66643407191168 -0.7406932319724433 -66.25 L 0.7406932319724433 -66.25 Q 1.7508391094754612 -47.66643407191168 2.620772125421354 -39.75 C 3.498082227764897 -31.76643407191168 5.396506447431886 -21.202187465826338 6.564836959603895 -13.25 C 7.732524709496913 -5.3021874658263375 9.662323571374131 5.262074339327 10.407499665638113 13.25 C 11.145599756220232 21.162074339327 12.888126873587245 32.09391119396327 11.5090909090909 39.75 Q 10.024174744635584 47.99391119396327 0.860992569132577 66.25 L -0.860992569132577 66.25" fill-opacity="0.25" stroke-linejoin="mitter" stroke-miterlimit="10"/><g transform="translate(-357.17074218749997,-152.25)"/></g><g transform="translate(129.2907421875,437.125)"><path fill="rgb(248,204,3)" stroke="rgb(0,0,0)" paint-order="fill stroke markers" d=" M -1.9843260188087726 14.574999999999989 Q 0 12.273118964530035 0 11.925000000000011 C -2.2318160159531426 10.683118964530031 -11.5090909090909 10.069999999999979 -11.5090909090909 9.274999999999977 C -11.5090909090909 8.479999999999976 -1.9767171369566288 7.824926634874531 0 6.625 C 0 6.234926634874546 -2.7780564263322844 4.77000000000002 -2.7780564263322844 3.9750000000000227 C -2.7780564263322844 3.180000000000017 0 2.1199999999999943 0 1.3249999999999886 C 0 0.529999999999991 -2.7780564263322844 -0.529999999999991 -2.7780564263322844 -1.3249999999999886 C -2.7780564263322844 -2.1199999999999943 -0.4207224126879182 -3.038565846325104 0 -3.9750000000000227 C 0 -4.628565846325108 -0.39686520376176304 -5.830000000000007 -0.39686520376176304 -6.625 C -0.39686520376176304 -7.419999999999993 0 -8.479999999999984 0 -9.274999999999977 C 0 -10.069999999999988 -0.39686520376176304 -11.13 -0.39686520376176304 -11.925000000000011 Q -0.39686520376176304 -12.720000000000004 0 -14.574999999999989 L 0 -14.574999999999989 Q 0.39686520376176304 -12.720000000000004 0.39686520376176304 -11.925000000000011 C 0.39686520376176304 -11.13 0 -10.069999999999988 0 -9.274999999999977 C 0 -8.479999999999984 0.39686520376176304 -7.419999999999993 0.39686520376176304 -6.625 C 0.39686520376176304 -5.830000000000007 0 -4.628565846325108 0 -3.9750000000000227 C 0.4207224126879182 -3.038565846325104 2.7780564263322844 -2.1199999999999943 2.7780564263322844 -1.3249999999999886 C 2.7780564263322844 -0.529999999999991 0 0.529999999999991 0 1.3249999999999886 C 0 2.1199999999999943 2.7780564263322844 3.180000000000017 2.7780564263322844 3.9750000000000227 C 2.7780564263322844 4.77000000000002 0 6.234926634874546 0 6.625 C 1.9767171369566288 7.824926634874531 11.5090909090909 8.479999999999976 11.5090909090909 9.274999999999977 C 11.5090909090909 10.069999999999979 2.231816015953138 10.683118964530031 0 11.925000000000011 Q 0 12.273118964530035 1.9843260188087868 14.574999999999989 L -1.9843260188087726 14.574999999999989" fill-opacity="0.25" stroke-linejoin="mitter" stroke-miterlimit="10"/><g transform="translate(-129.2907421875,-437.125)"/></g><g transform="translate(255.8907421875,377.5)"><path fill="rgb(248,204,3)" stroke="rgb(0,0,0)" paint-order="fill stroke markers" d=" M -11.5090909090909 26.5 Q -8.220779220779207 19.079999999999984 -8.220779220779207 15.899999999999977 C -8.220779220779207 12.719999999999988 -11.973543157031704 8.29435959533403 -11.5090909090909 5.300000000000011 C -10.987049650538205 1.9343595953340338 -6.498591308125636 -1.9343595953340338 -4.932467532467541 -5.300000000000011 C -3.5391107886451207 -8.29435959533403 -2.396622498975822 -12.665859485707918 -1.644155844155847 -15.899999999999977 Q -0.9168822392355596 -19.025859485707915 0 -26.5 L 0 -26.5 Q 0.9168822392355356 -19.02585948570791 1.6441558441558186 -15.899999999999977 C 2.3966224989757894 -12.665859485707916 3.5391107886450888 -8.29435959533403 4.932467532467513 -5.300000000000011 C 6.498591308125613 -1.934359595334032 10.9870496505382 1.9343595953340325 11.5090909090909 5.300000000000011 C 11.97354315703171 8.29435959533403 8.220779220779207 12.719999999999986 8.220779220779207 15.899999999999977 Q 8.220779220779207 19.079999999999984 11.5090909090909 26.5 L -11.5090909090909 26.5" fill-opacity="0.25" stroke-linejoin="mitter" stroke-miterlimit="10"/><g transform="translate(-255.8907421875,-377.5)"/></g><g transform="translate(382.4907421875,356.29999999999995)"><path fill="rgb(248,204,3)" stroke="rgb(0,0,0)" paint-order="fill stroke markers" d=" M 0 37.10000000000002 Q -1.2880450019097942 29.69655706692033 -1.5821531767633132 26.500000000000057 C -1.8732145931007755 23.336557066920335 -0.6809841995735337 18.61132147082515 -1.9505653039699382 15.900000000000034 C -3.65906551927181 12.251321470825152 -10.287098844255755 8.911157312505216 -11.5090909090909 5.300000000000068 C -12.439281333076767 2.551157312505219 -9.701287211238716 -2.0951060815893734 -9.124506933373311 -5.2999999999999545 C -8.556686902894276 -8.45510608158937 -8.07484323624266 -12.714242922349808 -7.693756547942769 -15.89999999999992 C -7.314047206127553 -19.074242922349804 -7.52094487377853 -23.49972022562832 -6.588520166322951 -26.499999999999943 Q -5.544388823881645 -29.859720225628333 -1.105236381619818 -37.099999999999966 L 1.105236381619818 -37.099999999999966 Q 5.544388823881644 -29.859720225628333 6.588520166322951 -26.499999999999943 C 7.52094487377853 -23.49972022562832 7.314047206127553 -19.074242922349804 7.693756547942769 -15.89999999999992 C 8.07484323624266 -12.714242922349808 8.556686902894276 -8.45510608158937 9.124506933373311 -5.2999999999999545 C 9.701287211238716 -2.095106081589374 12.439281333076767 2.551157312505218 11.5090909090909 5.300000000000068 C 10.287098844255755 8.911157312505214 3.6590655192718096 12.251321470825152 1.9505653039699382 15.900000000000034 C 0.6809841995735335 18.61132147082515 1.8732145931007755 23.336557066920335 1.5821531767633132 26.500000000000057 Q 1.2880450019097942 29.69655706692033 0 37.10000000000002 L 0 37.10000000000002" fill-opacity="0.25" stroke-linejoin="mitter" stroke-miterlimit="10"/><g transform="translate(-382.4907421875,-356.29999999999995)"/></g><g transform="translate(53.33074218749999,192)"><path fill="none" stroke="rgb(0,0,0)" paint-order="fill stroke markers" d=" M -3.7199999999999998 -11.100000000000023 L 3.7199999999999998 -11.100000000000023 L 3.7199999999999998 11.100000000000023 L -3.7199999999999998 11.100000000000023 Z" stroke-linejoin="mitter" stroke-miterlimit="10"/><g transform="translate(-53.33074218749999,-192)"/></g><path fill="none" stroke="rgb(0,0,0)" paint-order="fill stroke markers" d=" M 50.110742187499994 192.5 L 56.55074218749999 192.5" stroke-miterlimit="10"/><path fill="none" stroke="rgb(0,0,0)" paint-order="fill stroke markers" d=" M 54.5 203 L 54.5 230 M 56 230.5 L 52 230.5" stroke-miterlimit="10"/><path fill="none" stroke="rgb(0,0,0)" paint-order="fill stroke markers" d=" M 54.5 182 L 54.5 150 M 56 150.5 L 52 150.5" stroke-miterlimit="10"/><g transform="translate(179.9307421875,141.65000000000003)"><path fill="none" stroke="rgb(0,0,0)" paint-order="fill stroke markers" d=" M -3.7199999999999998 -19.05000000000001 L 3.7199999999999998 -19.05000000000001 L 3.7199999999999998 19.05000000000001 L -3.7199999999999998 19.05000000000001 Z" stroke-linejoin="mitter" stroke-miterlimit="10"/><g transform="translate(-179.9307421875,-141.65000000000003)"/></g><path fill="none" stroke="rgb(0,0,0)" paint-order="fill stroke markers" d=" M 176.7107421875 144.5 L 183.1507421875 144.5" stroke-miterlimit="10"/><path fill="none" stroke="rgb(0,0,0)" paint-order="fill stroke markers" d=" M 180.5 161 L 180.5 198 M 182 198.5 L 178 198.5" stroke-miterlimit="10"/><path fill="none" stroke="rgb(0,0,0)" paint-order="fill stroke markers" d=" M 180.5 124 L 180.5 86 M 182 86.5 L 178 86.5" stroke-miterlimit="10"/><g transform="translate(306.5307421875,109.84999999999997)"><path fill="none" stroke="rgb(0,0,0)" paint-order="fill stroke markers" d=" M -3.7199999999999998 -19.05000000000001 L 3.7199999999999998 -19.05000000000001 L 3.7199999999999998 19.05000000000001 L -3.7199999999999998 19.05000000000001 Z" stroke-linejoin="mitter" stroke-miterlimit="10"/><g transform="translate(-306.5307421875,-109.84999999999997)"/></g><path fill="none" stroke="rgb(0,0,0)" paint-order="fill stroke markers" d=" M 303.31074218749995 113.5 L 309.75074218749995 113.5" stroke-miterlimit="10"/><path fill="none" stroke="rgb(0,0,0)" paint-order="fill stroke markers" d=" M 307.5 129 L 307.5 161 M 309 161.5 L 305 161.5" stroke-miterlimit="10"/><path fill="none" stroke="rgb(0,0,0)" paint-order="fill stroke markers" d=" M 307.5 92 L 307.5 39 M 309 39.5 L 305 39.5" stroke-miterlimit="10"/><g transform="translate(78.65074218749999,274.15)"><path fill="none" stroke="rgb(0,0,0)" paint-order="fill stroke markers" d=" M -3.7199999999999998 -13.75 L 3.7199999999999998 -13.75 L 3.7199999999999998 13.75 L -3.7199999999999998 13.75 Z" stroke-linejoin="mitter" stroke-miterlimit="10"/><g transform="translate(-78.65074218749999,-274.15)"/></g><path fill="none" stroke="rgb(0,0,0)" paint-order="fill stroke markers" d=" M 75.43074218749999 277.5 L 81.87074218749999 277.5" stroke-miterlimit="10"/><path fill="none" stroke="rgb(0,0,0)" paint-order="fill stroke markers" d=" M 79.5 288 L 79.5 304 M 81 304.5 L 77 304.5" stroke-miterlimit="10"/><path fill="none" stroke="rgb(0,0,0)" paint-order="fill stroke markers" d=" M 79.5 261 L 79.5 224 M 81 224.5 L 77 224.5" stroke-miterlimit="10"/><g transform="translate(205.25074218749998,311.25)"><path fill="none" stroke="rgb(0,0,0)" paint-order="fill stroke markers" d=" M -3.7199999999999998 -13.75 L 3.7199999999999998 -13.75 L 3.7199999999999998 13.75 L -3.7199999999999998 13.75 Z" stroke-linejoin="mitter" stroke-miterlimit="10"/><g transform="translate(-205.25074218749998,-311.25)"/></g><path fill="none" stroke="rgb(0,0,0)" paint-order="fill stroke markers" d=" M 202.03074218749998 309.5 L 208.47074218749998 309.5" stroke-miterlimit="10"/><path fill="none" stroke="rgb(0,0,0)" paint-order="fill stroke markers" d=" M 206.5 325 L 206.5 351 M 208 351.5 L 204 351.5" stroke-miterlimit="10"/><path fill="none" stroke="rgb(0,0,0)" paint-order="fill stroke markers" d=" M 206.5 298 L 206.5 277 M 208 277.5 L 204 277.5" stroke-miterlimit="10"/><g transform="translate(331.85074218750003,298)"><path fill="none" stroke="rgb(0,0,0)" paint-order="fill stroke markers" d=" M -3.7199999999999998 -11.100000000000023 L 3.7199999999999998 -11.100000000000023 L 3.7199999999999998 11.100000000000023 L -3.7199999999999998 11.100000000000023 Z" stroke-linejoin="mitter" stroke-miterlimit="10"/><g transform="translate(-331.85074218750003,-298)"/></g><path fill="none" stroke="rgb(0,0,0)" paint-order="fill stroke markers" d=" M 328.6307421875 298.5 L 335.0707421875 298.5" stroke-miterlimit="10"/><path fill="none" stroke="rgb(0,0,0)" paint-order="fill stroke markers" d=" M 332.5 309 L 332.5 341 M 334 341.5 L 330 341.5" stroke-miterlimit="10"/><path fill="none" stroke="rgb(0,0,0)" paint-order="fill stroke markers" d=" M 332.5 288 L 332.5 256 M 334 256.5 L 330 256.5" stroke-miterlimit="10"/><g transform="translate(103.97074218749998,377.5)"><path fill="none" stroke="rgb(0,0,0)" paint-order="fill stroke markers" d=" M -3.7199999999999998 -5.800000000000011 L 3.7199999999999998 -5.800000000000011 L 3.7199999999999998 5.800000000000011 L -3.7199999999999998 5.800000000000011 Z" stroke-linejoin="mitter" stroke-miterlimit="10"/><g transform="translate(-103.97074218749998,-377.5)"/></g><path fill="none" stroke="rgb(0,0,0)" paint-order="fill stroke markers" d=" M 100.75074218749998 378.5 L 107.19074218749998 378.5" stroke-miterlimit="10"/><path fill="none" stroke="rgb(0,0,0)" paint-order="fill stroke markers" d=" M 104.5 383 L 104.5 399 M 106 399.5 L 102 399.5" stroke-miterlimit="10"/><path fill="none" stroke="rgb(0,0,0)" paint-order="fill stroke markers" d=" M 104.5 373 L 104.5 357 M 106 357.5 L 102 357.5" stroke-miterlimit="10"/><g transform="translate(230.57074218749997,229.10000000000002)"><path fill="none" stroke="rgb(0,0,0)" paint-order="fill stroke markers" d=" M -3.7199999999999998 -16.39999999999999 L 3.7199999999999998 -16.39999999999999 L 3.7199999999999998 16.39999999999999 L -3.7199999999999998 16.39999999999999 Z" stroke-linejoin="mitter" stroke-miterlimit="10"/><g transform="translate(-230.57074218749997,-229.10000000000002)"/></g><path fill="none" stroke="rgb(0,0,0)" paint-order="fill stroke markers" d=" M 227.35074218749997 226.5 L 233.79074218749997 226.5" stroke-miterlimit="10"/><path fill="none" stroke="rgb(0,0,0)" paint-order="fill stroke markers" d=" M 231.5 245 L 231.5 283 M 233 283.5 L 229 283.5" stroke-miterlimit="10"/><path fill="none" stroke="rgb(0,0,0)" paint-order="fill stroke markers" d=" M 231.5 214 L 231.5 187 M 233 187.5 L 229 187.5" stroke-miterlimit="10"/><g transform="translate(357.17074218749997,165.5)"><path fill="none" stroke="rgb(0,0,0)" paint-order="fill stroke markers" d=" M -3.7199999999999998 -21.700000000000045 L 3.7199999999999998 -21.700000000000045 L 3.7199999999999998 21.700000000000045 L -3.7199999999999998 21.700000000000045 Z" stroke-linejoin="mitter" stroke-miterlimit="10"/><g transform="translate(-357.17074218749997,-165.5)"/></g><path fill="none" stroke="rgb(0,0,0)" paint-order="fill stroke markers" d=" M 353.95074218749994 163.5 L 360.39074218749994 163.5" stroke-miterlimit="10"/><path fill="none" stroke="rgb(0,0,0)" paint-order="fill stroke markers" d=" M 358.5 187 L 358.5 219 M 360 219.5 L 356 219.5" stroke-miterlimit="10"/><path fill="none" stroke="rgb(0,0,0)" paint-order="fill stroke markers" d=" M 358.5 145 L 358.5 92 M 360 92.5 L 356 92.5" stroke-miterlimit="10"/><g transform="translate(129.29074218749997,443.75)"><path fill="none" stroke="rgb(0,0,0)" paint-order="fill stroke markers" d=" M -3.7199999999999998 -3.1499999999999773 L 3.7199999999999998 -3.1499999999999773 L 3.7199999999999998 3.1499999999999773 L -3.7199999999999998 3.1499999999999773 Z" stroke-linejoin="mitter" stroke-miterlimit="10"/><g transform="translate(-129.29074218749997,-443.75)"/></g><path fill="none" stroke="rgb(0,0,0)" paint-order="fill stroke markers" d=" M 126.07074218749997 446.5 L 132.51074218749997 446.5" stroke-miterlimit="10"/><path fill="none" stroke="rgb(0,0,0)" paint-order="fill stroke markers" d=" M 130.5 447 L 130.5 452 M 132 452.5 L 128 452.5" stroke-miterlimit="10"/><path fill="none" stroke="rgb(0,0,0)" paint-order="fill stroke markers" d=" M 130.5 442 L 130.5 436 M 132 436.5 L 128 436.5" stroke-miterlimit="10"/><g transform="translate(255.89074218749997,385.45)"><path fill="none" stroke="rgb(0,0,0)" paint-order="fill stroke markers" d=" M -3.7199999999999998 -8.449999999999989 L 3.7199999999999998 -8.449999999999989 L 3.7199999999999998 8.449999999999989 L -3.7199999999999998 8.449999999999989 Z" stroke-linejoin="mitter" stroke-miterlimit="10"/><g transform="translate(-255.89074218749997,-385.45)"/></g><path fill="none" stroke="rgb(0,0,0)" paint-order="fill stroke markers" d=" M 252.67074218749997 388.5 L 259.11074218749997 388.5" stroke-miterlimit="10"/><path fill="none" stroke="rgb(0,0,0)" paint-order="fill stroke markers" d=" M 256.5 394 L 256.5 404 M 258 404.5 L 254 404.5" stroke-miterlimit="10"/><path fill="none" stroke="rgb(0,0,0)" paint-order="fill stroke markers" d=" M 256.5 378 L 256.5 362 M 258 362.5 L 254 362.5" stroke-miterlimit="10"/><g transform="translate(382.4907421875,348.35)"><path fill="none" stroke="rgb(0,0,0)" paint-order="fill stroke markers" d=" M -3.7199999999999998 -13.75 L 3.7199999999999998 -13.75 L 3.7199999999999998 13.75 L -3.7199999999999998 13.75 Z" stroke-linejoin="mitter" stroke-miterlimit="10"/><g transform="translate(-382.4907421875,-348.35)"/></g><path fill="none" stroke="rgb(0,0,0)" paint-order="fill stroke markers" d=" M 379.2707421875 351.5 L 385.7107421875 351.5" stroke-miterlimit="10"/><path fill="none" stroke="rgb(0,0,0)" paint-order="fill stroke markers" d=" M 383.5 362 L 383.5 383 M 385 383.5 L 381 383.5" stroke-miterlimit="10"/><path fill="none" stroke="rgb(0,0,0)" paint-order="fill stroke markers" d=" M 383.5 336 L 383.5 325 M 385 325.5 L 381 325.5" stroke-miterlimit="10"/></g></g><g transform="translate(11,245) rotate(-90,0,0)"><text fill="rgb(0,0,0)" stroke="none" font-family="Arial" font-size="10px" font-style="italic" font-weight="normal" text-decoration="normal" x="0" y="0" text-anchor="middle" dominant-baseline="central"></text></g><g transform="translate(22.0107421875,457)"><text fill="rgb(0,0,0)" stroke="none" font-family="Arial" font-size="18px" font-style="normal" font-weight="bold" text-decoration="normal" x="0" y="0" text-anchor="end" dominant-baseline="central">0</text></g><g transform="translate(22.0107421875,351)"><text fill="rgb(0,0,0)" stroke="none" font-family="Arial" font-size="18px" font-style="normal" font-weight="bold" text-decoration="normal" x="0" y="0" text-anchor="end" dominant-baseline="central">2</text></g><g transform="translate(22.0107421875,245)"><text fill="rgb(0,0,0)" stroke="none" font-family="Arial" font-size="18px" font-style="normal" font-weight="bold" text-decoration="normal" x="0" y="0" text-anchor="end" dominant-baseline="central">4</text></g><g transform="translate(22.0107421875,139)"><text fill="rgb(0,0,0)" stroke="none" font-family="Arial" font-size="18px" font-style="normal" font-weight="bold" text-decoration="normal" x="0" y="0" text-anchor="end" dominant-baseline="central">6</text></g><g transform="translate(22.0107421875,33)"><text fill="rgb(0,0,0)" stroke="none" font-family="Arial" font-size="18px" font-style="normal" font-weight="bold" text-decoration="normal" x="0" y="0" text-anchor="end" dominant-baseline="central">8</text></g><g transform="translate(220.982177734375,488)"><text fill="rgb(0,0,0)" stroke="none" font-family="Arial" font-size="15px" font-style="normal" font-weight="normal" text-decoration="normal" x="0" y="0" text-anchor="middle" dominant-baseline="central">Species</text></g><g transform="translate(94.3107421875,466)"><text fill="rgb(0,0,0)" stroke="none" font-family="Arial" font-size="13px" font-style="italic" font-weight="normal" text-decoration="normal" x="0" y="0" text-anchor="middle" dominant-baseline="central">setosa</text></g><g transform="translate(220.91074218749998,466)"><text fill="rgb(0,0,0)" stroke="none" font-family="Arial" font-size="13px" font-style="italic" font-weight="normal" text-decoration="normal" x="0" y="0" text-anchor="middle" dominant-baseline="central">versicolor</text></g><g transform="translate(347.5107421875,466)"><text fill="rgb(0,0,0)" stroke="none" font-family="Arial" font-size="13px" font-style="italic" font-weight="normal" text-decoration="normal" x="0" y="0" text-anchor="middle" dominant-baseline="central">virginica</text></g><g transform="translate(179.987890625,393.4)"><text fill="rgb(0,0,0)" stroke="none" font-family="Arial" font-size="14px" font-style="normal" font-weight="normal" text-decoration="normal" x="0" y="0" text-anchor="middle" dominant-baseline="central">Species with</text></g><g transform="translate(179.987890625,412.4)"><text fill="rgb(0,0,0)" stroke="none" font-family="Arial" font-size="14px" font-style="normal" font-weight="normal" text-decoration="normal" x="0" y="0" text-anchor="middle" dominant-baseline="central">lowest petal</text></g><g transform="translate(179.987890625,431.4)"><text fill="rgb(0,0,0)" stroke="none" font-family="Arial" font-size="14px" font-style="normal" font-weight="normal" text-decoration="normal" x="0" y="0" text-anchor="middle" dominant-baseline="central">width</text></g><path fill="none" stroke="rgb(0,0,0)" paint-order="fill stroke markers" d=" M 138.5 386.4 L 138.5 434.4" stroke-miterlimit="10"/><path fill="none" stroke="rgb(0,0,0)" paint-order="fill stroke markers" d=" M 129.29074218749997 443.75 L 137.69150390625 410.4" stroke-miterlimit="10"/><g transform="translate(451,245.5)"><path fill="rgb(255,255,255)" stroke="none" paint-order="stroke fill markers" d=" M -40.5 -29 L 40.5 -29 L 40.5 29 L -40.5 29 Z"/><g transform="translate(-451,-245.5)"/></g><g transform="translate(418.45361328125,224)"><path fill="rgb(254,41,108)" stroke="rgb(0,0,0)" paint-order="fill stroke markers" d=" M -5 -5 L 5 -5 L 5 5 L -5 5 Z" stroke-linejoin="mitter" stroke-miterlimit="10"/><g transform="translate(-418.45361328125,-224)"/></g><g transform="translate(431.95361328125,224)"><text fill="rgb(0,0,0)" stroke="none" font-family="Arial" font-size="9px" font-style="normal" font-weight="normal" text-decoration="normal" x="0" y="0" text-anchor="start" dominant-baseline="central">Sepal.Length</text></g><g transform="translate(418.45361328125,237.5)"><path fill="rgb(72,126,182)" stroke="rgb(0,0,0)" paint-order="fill stroke markers" d=" M -5 -5 L 5 -5 L 5 5 L -5 5 Z" stroke-linejoin="mitter" stroke-miterlimit="10"/><g transform="translate(-418.45361328125,-237.5)"/></g><g transform="translate(431.95361328125,237.5)"><text fill="rgb(0,0,0)" stroke="none" font-family="Arial" font-size="9px" font-style="normal" font-weight="normal" text-decoration="normal" x="0" y="0" text-anchor="start" dominant-baseline="central">Sepal.Width</text></g><g transform="translate(418.45361328125,251)"><path fill="rgb(167,206,49)" stroke="rgb(0,0,0)" paint-order="fill stroke markers" d=" M -5 -5 L 5 -5 L 5 5 L -5 5 Z" stroke-linejoin="mitter" stroke-miterlimit="10"/><g transform="translate(-418.45361328125,-251)"/></g><g transform="translate(431.95361328125,251)"><text fill="rgb(0,0,0)" stroke="none" font-family="Arial" font-size="9px" font-style="normal" font-weight="normal" text-decoration="normal" x="0" y="0" text-anchor="start" dominant-baseline="central">Petal.Length</text></g><g transform="translate(418.45361328125,264.5)"><path fill="rgb(248,204,3)" stroke="rgb(0,0,0)" paint-order="fill stroke markers" d=" M -5 -5 L 5 -5 L 5 5 L -5 5 Z" stroke-linejoin="mitter" stroke-miterlimit="10"/><g transform="translate(-418.45361328125,-264.5)"/></g><g transform="translate(431.95361328125,264.5)"><text fill="rgb(0,0,0)" stroke="none" font-family="Arial" font-size="9px" font-style="normal" font-weight="normal" text-decoration="normal" x="0" y="0" text-anchor="start" dominant-baseline="central">Petal.Width</text></g><g transform="translate(248.5,13.5)"><text fill="rgb(0,0,0)" stroke="none" font-family="Arial" font-size="21px" font-style="normal" font-weight="normal" text-decoration="normal" x="0" y="0" text-anchor="middle" dominant-baseline="central">Iris flower data set</text></g></g></svg>