<svg version="1.1" xmlns="http://www.w3.org/2000/svg" xmlns:xlink="http://www.w3.org/1999/xlink" width="540" height="540"><defs><clipPath id="qRJnipMflgzQ"><path fill="none" stroke="none" d=" M 41.44609375 35.800000000000004 L 441.8595703125 35.800000000000004 L 441.8595703125 455.2 L 41.44609375 455.2 L 41.44609375 35.800000000000004 Z"/></clipPath></defs><g><g transform="translate(270,270)"><rect fill="rgb(255,255,255)" stroke="none" x="-270.5" y="-270.5" width="540" height="540"/><g transform="translate(-270,-270)"/></g><path fill="none" stroke="rgb(204,204,204)" paint-order="fill stroke markers" d=" M 41.44609375 455.5 L 441.8595703125 455.5" stroke-miterlimit="10" stroke-width="0.3333333333333333"/><path fill="none" stroke="rgb(204,204,204)" paint-order="fill stroke markers" d=" M 41.44609375 434.5 L 441.8595703125 434.5" stroke-miterlimit="10" stroke-width="0.3333333333333333"/><path fill="none" stroke="rgb(204,204,204)" paint-order="fill stroke markers" d=" M 41.44609375 413.5 L 441.8595703125 413.5" stroke-miterlimit="10" stroke-width="0.3333333333333333"/><path fill="none" stroke="rgb(204,204,204)" paint-order="fill stroke markers" d=" M 41.44609375 392.5 L 441.8595703125 392.5" stroke-miterlimit="10" stroke-width="0.3333333333333333"/><path fill="none" stroke="rgb(204,204,204)" paint-order="fill stroke markers" d=" M 41.44609375 371.5 L 441.8595703125 371.5" stroke-miterlimit="10" stroke-width="0.3333333333333333"/><path fill="none" stroke="rgb(204,204,204)" paint-order="fill stroke markers" d=" M 41.44609375 350.5 L 441.8595703125 350.5" stroke-miterlimit="10" stroke-width="0.3333333333333333"/><path fill="none" stroke="rgb(204,204,204)" paint-order="fill stroke markers" d=" M 41.44609375 329.5 L 441.8595703125 329.5" stroke-miterlimit="10" stroke-width="0.3333333333333333"/><path fill="none" stroke="rgb(204,204,204)" paint-order="fill stroke markers" d=" M 41.44609375 308.5 L 441.8595703125 308.5" stroke-miterlimit="10" stroke-width="0.3333333333333333"/><path fill="none" stroke="rgb(204,204,204)" paint-order="fill stroke markers" d=" M 41.44609375 287.5 L 441.8595703125 287.5" stroke-miterlimit="10" stroke-width="0.3333333333333333"/><path fill="none" stroke="rgb(204,204,204)" paint-order="fill stroke markers" d=" M 41.44609375 266.5 L 441.8595703125 266.5" stroke-miterlimit="10" stroke-width="0.3333333333333333"/><path fill="none" stroke="rgb(204,204,204)" paint-order="fill stroke markers" d=" M 41.44609375 246.5 L 441.8595703125 246.5" stroke-miterlimit="10" stroke-width="0.3333333333333333"/><path fill="none" stroke="rgb(204,204,204)" paint-order="fill stroke markers" d=" M 41.44609375 225.5 L 441.8595703125 225.5" stroke-miterlimit="10" stroke-width="0.3333333333333333"/><path fill="none" stroke="rgb(204,204,204)" paint-order="fill stroke markers" d=" M 41.44609375 204.5 L 441.8595703125 204.5" stroke-miterlimit="10" stroke-width="0.3333333333333333"/><path fill="none" stroke="rgb(204,204,204)" paint-order="fill stroke markers" d=" M 41.44609375 183.5 L 441.8595703125 183.5" stroke-miterlimit="10" stroke-width="0.3333333333333333"/><path fill="none" stroke="rgb(204,204,204)" paint-order="fill stroke markers" d=" M 41.44609375 162.5 L 441.8595703125 162.5" stroke-miterlimit="10" stroke-width="0.3333333333333333"/><path fill="none" stroke="rgb(204,204,204)" paint-order="fill stroke markers" d=" M 41.44609375 141.5 L 441.8595703125 141.5" stroke-miterlimit="10" stroke-width="0.3333333333333333"/><path fill="none" stroke="rgb(204,204,204)" paint-order="fill stroke markers" d=" M 41.44609375 120.5 L 441.8595703125 120.5" stroke-miterlimit="10" stroke-width="0.3333333333333333"/><path fill="none" stroke="rgb(204,204,204)" paint-order="fill stroke markers" d=" M 41.44609375 99.5 L 441.8595703125 99.5" stroke-miterlimit="10" stroke-width="0.3333333333333333"/><path fill="none" stroke="rgb(204,204,204)" paint-order="fill stroke markers" d=" M 41.44609375 78.5 L 441.8595703125 78.5" stroke-miterlimit="10" stroke-width="0.3333333333333333"/><path fill="none" stroke="rgb(204,204,204)" paint-order="fill stroke markers" d=" M 41.44609375 57.5 L 441.8595703125 57.5" stroke-miterlimit="10" stroke-width="0.3333333333333333"/><path fill="none" stroke="rgb(204,204,204)" paint-order="fill stroke markers" d=" M 41.44609375 36.5 L 441.8595703125 36.5" stroke-miterlimit="10" stroke-width="0.3333333333333333"/><path fill="none" stroke="rgb(204,204,204)" paint-order="fill stroke markers" d=" M 41.44609375 455.5 L 441.8595703125 455.5" stroke-miterlimit="10"/><path fill="none" stroke="rgb(204,204,204)" paint-order="fill stroke markers" d=" M 38.24609375 455.5 L 41.44609375 455.5" stroke-miterlimit="10"/><path fill="none" stroke="rgb(204,204,204)" paint-order="fill stroke markers" d=" M 41.44609375 350.5 L 441.8595703125 350.5" stroke-miterlimit="10"/><path fill="none" stroke="rgb(204,204,204)" paint-order="fill stroke markers" d=" M 38.24609375 350.5 L 41.44609375 350.5" stroke-miterlimit="10"/><path fill="none" stroke="rgb(204,204,204)" paint-order="fill stroke markers" d=" M 41.44609375 246.5 L 441.8595703125 246.5" stroke-miterlimit="10"/><path fill="none" stroke="rgb(204,204,204)" paint-order="fill stroke markers" d=" M 38.24609375 246.5 L 41.44609375 246.5" stroke-miterlimit="10"/><path fill="none" stroke="rgb(204,204,204)" paint-order="fill stroke markers" d=" M 41.44609375 141.5 L 441.8595703125 141.5" stroke-miterlimit="10"/><path fill="none" stroke="rgb(204,204,204)" paint-order="fill stroke markers" d=" M 38.24609375 141.5 L 41.44609375 141.5" stroke-miterlimit="10"/><path fill="none" stroke="rgb(204,204,204)" paint-order="fill stroke markers" d=" M 41.44609375 36.5 L 441.8595703125 36.5" stroke-miterlimit="10"/><path fill="none" stroke="rgb(204,204,204)" paint-order="fill stroke markers" d=" M 38.24609375 36.5 L 41.44609375 36.5" stroke-miterlimit="10"/><g clip-path="url(#qRJnipMflgzQ)"><g><g transform="translate(68.13609375,193.07499999999996)"><path fill="rgb(254,41,108)" stroke="rgb(0,0,0)" paint-order="fill stroke markers" d=" M -0.444161393783844 41.940000000000026 Q -2.7854574632596467 34.65027608951941 -3.4390283337221916 31.455000000000013 C -4.072236517991754 28.35927608951941 -4.215416998644647 24.09403327403074 -4.7334249095575345 20.970000000000027 C -5.258551780416161 17.80303327403074 -5.855924064172942 13.490087315598096 -6.916144272960572 10.485000000000014 C -8.075442045851137 7.19908731559808 -12.186621918207077 3.1230366952417556 -12.131818181818183 -2.842170943040401e-14 C -12.076226063381606 -3.167963304758244 -7.58954793747999 -7.150024760180269 -6.548158090209 -10.484999999999985 C -5.62510051041725 -13.441024760180259 -6.278741410522759 -17.91523377826756 -5.5836600916090475 -20.97 C -4.847287656000667 -24.206233778267567 -2.371260030745052 -28.21215631508838 -1.7766455751353618 -31.455000000000013 Q -1.2177293941480873 -34.50315631508838 -1.7385579696191655 -41.940000000000026 L 1.7385579696191655 -41.940000000000026 Q 1.2177293941480873 -34.50315631508838 1.7766455751353618 -31.455000000000013 C 2.371260030745052 -28.21215631508838 4.847287656000667 -24.206233778267567 5.5836600916090475 -20.97 C 6.278741410522759 -17.91523377826756 5.625100510417249 -13.441024760180259 6.548158090209 -10.484999999999985 C 7.589547937479991 -7.150024760180269 12.076226063381613 -3.167963304758244 12.13181818181819 -2.842170943040401e-14 C 12.186621918207083 3.1230366952417556 8.07544204585113 7.199087315598078 6.916144272960565 10.485000000000014 C 5.855924064172935 13.490087315598094 5.258551780416167 17.80303327403074 4.733424909557542 20.970000000000027 C 4.215416998644655 24.09403327403074 4.072236517991755 28.35927608951941 3.4390283337221916 31.455000000000013 Q 2.7854574632596454 34.65027608951941 0.444161393783844 41.940000000000026 L -0.444161393783844 41.940000000000026" fill-opacity="0.25" stroke-linejoin="mitter" stroke-miterlimit="10"/><g transform="translate(-68.13609375,-193.07499999999996)"/></g><g transform="translate(201.58609375000003,140.64999999999998)"><path fill="rgb(254,41,108)" stroke="rgb(0,0,0)" paint-order="fill stroke markers" d=" M 0 78.63750000000002 Q -2.34825315574138 60.16237738788035 -4.138781637837241 52.42500000000001 C -5.987798610286832 44.43487738788035 -11.063635290701338 34.2480185076973 -12.131818181818176 26.212500000000034 C -13.154333781899805 18.520518507697318 -11.919455060682894 7.811549340905368 -11.107776608498796 5.684341886080802e-14 C -10.285250077827861 -7.9159506590946345 -8.012465641064198 -18.348919705513183 -6.684468238968066 -26.212499999999977 C -5.356413517312085 -34.07641970551319 -3.2621524950179044 -44.52036756141377 -2.254269529325086 -52.424999999999955 Q -1.2568120233274849 -60.24786756141378 0 -78.63749999999999 L 0 -78.63749999999999 Q 1.2568120233274849 -60.24786756141378 2.254269529325086 -52.424999999999955 C 3.2621524950179044 -44.52036756141377 5.356413517312085 -34.07641970551319 6.684468238968066 -26.212499999999977 C 8.012465641064196 -18.348919705513186 10.285250077827861 -7.915950659094634 11.107776608498796 5.684341886080802e-14 C 11.919455060682894 7.81154934090537 13.154333781899805 18.520518507697318 12.131818181818176 26.212500000000034 C 11.063635290701338 34.2480185076973 5.987798610286832 44.43487738788035 4.138781637837241 52.42500000000001 Q 2.34825315574138 60.16237738788035 0 78.63750000000002 L 0 78.63750000000002" fill-opacity="0.25" stroke-linejoin="mitter" stroke-miterlimit="10"/><g transform="translate(-201.58609375000003,-140.64999999999998)"/></g><g transform="translate(335.0360937500001,127.54375)"><path fill="rgb(254,41,108)" stroke="rgb(0,0,0)" paint-order="fill stroke markers" d=" M 0 91.74374999999999 Q -0.6775779187366661 73.39677172333154 -0.8570051159769605 65.53124999999999 C -1.0363514806004626 57.66927172333155 -0.3833886116004601 47.1089652357919 -1.1959118728793214 39.31875000000001 C -2.0237745579412967 31.38146523579191 -4.688811379258083 20.949678642072165 -6.324958270446416 13.106250000000031 C -7.969583271939739 5.222178642072163 -12.311224980209243 -5.284086040669645 -12.131818181818176 -13.106250000000003 C -11.950503773601211 -21.01158604066965 -6.452239861636546 -31.32762568686434 -5.122554248419647 -39.31874999999998 C -3.8352576120308113 -47.05512568686434 -4.047550369436906 -57.677652018975174 -3.4085440164657257 -65.53125000000001 Q -2.7678856297041 -73.40515201897517 -0.8570051159769605 -91.74374999999999 L 0.8570051159769605 -91.74374999999999 Q 2.7678856297041 -73.40515201897517 3.4085440164657257 -65.53125000000001 C 4.047550369436906 -57.677652018975174 3.835257612030811 -47.05512568686434 5.122554248419647 -39.31874999999998 C 6.452239861636546 -31.327625686864344 11.950503773601211 -21.01158604066965 12.131818181818176 -13.106250000000003 C 12.311224980209243 -5.284086040669645 7.969583271939739 5.222178642072163 6.324958270446416 13.106250000000031 C 4.688811379258083 20.949678642072165 2.0237745579412967 31.38146523579191 1.1959118728793214 39.31875000000001 C 0.3833886116004601 47.1089652357919 1.0363514806004626 57.66927172333155 0.8570051159769605 65.53124999999999 Q 0.6775779187366661 73.39677172333154 0 91.74374999999999 L 0 91.74374999999999" fill-opacity="0.25" stroke-linejoin="mitter" stroke-miterlimit="10"/><g transform="translate(-335.0360937500001,-127.54375)"/></g><g transform="translate(94.82609375,282.19749999999993)"><path fill="rgb(72,126,182)" stroke="rgb(0,0,0)" paint-order="fill stroke markers" d=" M -0.5614167529349601 57.667500000000075 Q -0.6455689920713407 50.3257486570175 -0.5614167529349601 47.18250000000006 C -0.47714396619085264 44.03474865701749 0 39.84300000000005 0 36.69750000000005 C -2.1316282072803005e-15 33.55200000000004 0 29.0476888367238 -0.5614167529349743 26.212500000000034 C -1.8634417906886984 22.756688836723793 -6.738065937329557 19.184955132359235 -7.900739870233792 15.72750000000002 C -8.853605093121738 12.893955132359226 -7.005446240008497 8.25470816713489 -7.613213938908913 5.242500000000007 C -8.274769733483812 1.963708167134882 -12.133862964425074 -2.097744133448517 -12.131818181818176 -5.242500000000007 C -12.129772431510638 -8.388744133448526 -8.52308217741752 -12.46118462734376 -7.5995788291941295 -15.72750000000002 C -6.744393073386305 -18.75218462734376 -6.944204101256143 -23.14402052532011 -6.202854501714128 -26.212500000000006 C -5.424288335417316 -29.43502052532011 -3.27078069457409 -33.47011740681564 -2.533192943064705 -36.69750000000002 C -1.833032175218283 -39.76111740681565 -1.6635363540347983 -44.03028439642182 -1.4103594371947707 -47.18250000000003 Q -1.1582612763933342 -50.32128439642183 -0.8489426842598249 -57.66750000000005 L 0.8489426842598249 -57.66750000000005 Q 1.1582612763933342 -50.32128439642183 1.4103594371947707 -47.18250000000003 C 1.6635363540347983 -44.03028439642182 1.833032175218283 -39.76111740681565 2.533192943064705 -36.69750000000002 C 3.27078069457409 -33.47011740681564 5.424288335417316 -29.43502052532011 6.202854501714128 -26.212500000000006 C 6.944204101256143 -23.14402052532011 6.744393073386305 -18.75218462734376 7.5995788291941295 -15.72750000000002 C 8.52308217741752 -12.46118462734376 12.129772431510638 -8.388744133448526 12.131818181818176 -5.242500000000007 C 12.133862964425074 -2.097744133448517 8.274769733483812 1.963708167134882 7.613213938908913 5.242500000000007 C 7.005446240008497 8.25470816713489 8.853605093121738 12.893955132359226 7.900739870233792 15.72750000000002 C 6.738065937329557 19.184955132359235 1.8634417906886982 22.756688836723793 0.5614167529349743 26.212500000000034 C 0 29.0476888367238 2.131628207280301e-15 33.55200000000004 0 36.69750000000005 C 0 39.84300000000005 0.47714396619085264 44.03474865701749 0.5614167529349601 47.18250000000006 Q 0.6455689920713407 50.3257486570175 0.5614167529349601 57.667500000000075 L -0.5614167529349601 57.667500000000075" fill-opacity="0.25" stroke-linejoin="mitter" stroke-miterlimit="10"/><g transform="translate(-94.82609375,-282.19749999999993)"/></g><g transform="translate(228.27609375000003,313.6525)"><path fill="rgb(72,126,182)" stroke="rgb(0,0,0)" paint-order="fill stroke markers" d=" M -0.8869522084673349 36.69750000000005 Q -2.4944101633976885 29.34006489440441 -3.284764571158547 26.212500000000034 C -4.084183596434792 23.049064894404403 -5.590428356296115 18.923794418439666 -6.186196985257681 15.72750000000002 C -6.763030111370632 12.632794418439659 -6.443339608831934 8.279703146646334 -7.193437088073608 5.242500000000007 C -7.997026673564477 1.9887031466463263 -10.59818025519154 -1.9856762861184314 -11.36515386769949 -5.242500000000007 C -12.079694583314911 -8.27667628611844 -13.034294403798208 -12.898584609459862 -12.131818181818176 -15.72750000000002 C -11.027349292798503 -19.18958460945987 -6.413408942777319 -22.819283566066183 -4.675336831033803 -26.212500000000034 Q -3.191035166194452 -29.11028356606619 -1.3905722598752845 -36.69750000000005 L 1.3905722598752845 -36.69750000000005 Q 3.1910351661944523 -29.11028356606619 4.675336831033803 -26.212500000000034 C 6.41340894277732 -22.819283566066183 11.027349292798503 -19.18958460945987 12.131818181818176 -15.72750000000002 C 13.034294403798208 -12.898584609459862 12.079694583314911 -8.27667628611844 11.36515386769949 -5.242500000000007 C 10.59818025519154 -1.9856762861184314 7.997026673564478 1.9887031466463254 7.193437088073608 5.242500000000007 C 6.443339608831935 8.279703146646334 6.763030111370632 12.632794418439659 6.186196985257681 15.72750000000002 C 5.590428356296115 18.923794418439666 4.084183596434792 23.049064894404403 3.284764571158547 26.212500000000034 Q 2.4944101633976885 29.34006489440441 0.8869522084673349 36.69750000000005 L -0.8869522084673349 36.69750000000005" fill-opacity="0.25" stroke-linejoin="mitter" stroke-miterlimit="10"/><g transform="translate(-228.27609375000003,-313.6525)"/></g><g transform="translate(361.72609375,297.92499999999995)"><path fill="rgb(72,126,182)" stroke="rgb(0,0,0)" paint-order="fill stroke markers" d=" M -0.8230780370434445 41.940000000000055 Q -0.9406171305757843 34.53588193251412 -1.5032544915311519 31.45500000000004 C -2.089493236607492 28.244881932514115 -3.569163459035642 24.067089621588337 -4.652665057149136 20.970000000000027 C -5.770038921669599 17.77608962158833 -7.702512479210785 13.672894998142166 -8.83950603364434 10.485000000000014 C -9.946258416611498 7.381894998142158 -12.434835380252633 3.035353234977512 -12.131818181818176 0 C -11.80680923377835 -3.255646765022496 -8.184914330265833 -7.260857414794199 -6.746085545396738 -10.485000000000014 C -5.37744795854094 -13.551857414794206 -3.6842794910486503 -17.745791181895306 -2.773596942735196 -20.970000000000027 C -1.907377238542662 -24.036791181895314 -0.9933728108643815 -28.28757764878919 -0.8230780370434445 -31.45500000000004 Q -0.6551405502699064 -34.578577648789185 -1.6461560740869459 -41.940000000000026 L 1.6461560740869459 -41.940000000000026 Q 0.6551405502699064 -34.578577648789185 0.8230780370434445 -31.45500000000004 C 0.9933728108643815 -28.28757764878919 1.907377238542662 -24.036791181895314 2.773596942735196 -20.970000000000027 C 3.6842794910486503 -17.745791181895306 5.37744795854094 -13.551857414794206 6.746085545396738 -10.485000000000014 C 8.184914330265833 -7.260857414794199 11.80680923377835 -3.255646765022495 12.131818181818176 0 C 12.434835380252633 3.0353532349775127 9.946258416611498 7.381894998142159 8.83950603364434 10.485000000000014 C 7.702512479210785 13.672894998142167 5.770038921669599 17.77608962158833 4.652665057149136 20.970000000000027 C 3.569163459035642 24.067089621588337 2.089493236607492 28.244881932514115 1.5032544915311519 31.45500000000004 Q 0.9406171305757844 34.53588193251412 0.8230780370434445 41.940000000000055 L -0.8230780370434445 41.940000000000055" fill-opacity="0.25" stroke-linejoin="mitter" stroke-miterlimit="10"/><g transform="translate(-361.72609375,-297.92499999999995)"/></g><g transform="translate(121.51609375000001,379.18375)"><path fill="rgb(167,206,49)" stroke="rgb(0,0,0)" paint-order="fill stroke markers" d=" M -0.9332167832167926 23.591250000000002 Q -0.7943259612050149 19.909234439396528 -0.9332167832167926 18.348749999999995 C -1.0742909961700526 16.763734439396522 -1.141763502216702 14.463234743516788 -1.8664335664335852 13.106249999999989 C -2.8215537120069114 11.3177347435168 -5.061078211752832 9.366668919457343 -6.532517482517491 7.863750000000039 C -8.140693596368214 6.221168919457339 -11.134001692727159 4.489716519296946 -12.13181818181819 2.621249999999975 C -12.813791902517368 1.3442165192969424 -12.813791902517368 -1.3442165192969422 -12.13181818181819 -2.621249999999975 C -11.134001692727159 -4.489716519296946 -7.952203311361981 -6.091456551844563 -6.532517482517491 -7.863750000000039 C -5.432517996676667 -9.236956551844568 -4.673762204213502 -11.596068840979997 -3.732867132867142 -13.106249999999989 C -2.714006959458259 -14.741568840980001 -0.30028157260963007 -16.66186848145343 -1.4210854715202004e-14 -18.348750000000052 Q 0 -19.807368481453434 -1.8664335664335852 -23.591250000000002 L 1.8664335664335567 -23.591250000000002 Q 0 -19.807368481453434 -1.4210854715202004e-14 -18.348750000000052 C 0.30028157260960164 -16.66186848145343 2.714006959458229 -14.74156884098 3.7328671328671135 -13.106249999999989 C 4.673762204213476 -11.596068840979996 5.43251799667665 -9.236956551844568 6.532517482517477 -7.863750000000039 C 7.952203311361969 -6.091456551844564 11.13400169272715 -4.489716519296946 12.131818181818176 -2.621249999999975 C 12.81379190251735 -1.3442165192969424 12.813791902517327 1.34421651929694 12.131818181818147 2.621249999999975 C 11.134001692727118 4.489716519296945 8.140693596368195 6.221168919457343 6.532517482517477 7.863750000000039 C 5.061078211752816 9.366668919457346 2.821553712006886 11.3177347435168 1.8664335664335567 13.106249999999989 C 1.1417635022166723 14.463234743516786 1.0742909961700242 16.763734439396522 0.9332167832167642 18.348749999999995 Q 0.7943259612049864 19.909234439396528 0.9332167832167642 23.591250000000002 L -0.9332167832167926 23.591250000000002" fill-opacity="0.25" stroke-linejoin="mitter" stroke-miterlimit="10"/><g transform="translate(-121.51609375000001,-379.18375)"/></g><g transform="translate(254.96609375000003,232.39375)"><path fill="rgb(167,206,49)" stroke="rgb(0,0,0)" paint-order="fill stroke markers" d=" M -0.8939753990206611 65.53125 Q -1.6425368675155019 47.07758550363782 -2.896948177866733 39.318749999999966 C -4.1852836333541195 31.350085503637814 -7.967893707040828 21.064654395610756 -9.369797951816054 13.106249999999989 C -10.738354708226261 5.337154395610761 -13.023649929384385 -5.433219048594481 -12.131818181818176 -13.106250000000017 C -11.195652114872995 -21.160719048594483 -5.138350828162656 -31.273047273048405 -3.276471903444758 -39.31875000000002 Q -1.4988053736172027 -47.0005472730484 0 -65.53125 L 0 -65.53125 Q 1.4988053736172025 -47.0005472730484 3.276471903444758 -39.31875000000002 C 5.138350828162655 -31.273047273048405 11.195652114872997 -21.16071904859448 12.131818181818176 -13.106250000000017 C 13.023649929384385 -5.43321904859448 10.738354708226264 5.337154395610762 9.369797951816054 13.106249999999989 C 7.967893707040823 21.064654395610756 4.185283633354091 31.350085503637814 2.8969481778667046 39.318749999999966 Q 1.6425368675154737 47.07758550363782 0.8939753990206611 65.53125 L -0.8939753990206611 65.53125" fill-opacity="0.25" stroke-linejoin="mitter" stroke-miterlimit="10"/><g transform="translate(-254.96609375000003,-232.39375)"/></g><g transform="translate(388.4160937500001,153.75625000000002)"><path fill="rgb(167,206,49)" stroke="rgb(0,0,0)" paint-order="fill stroke markers" d=" M -0.9075786599584603 65.53124999999997 Q -10.559606409381857 47.50943286540366 -12.131818181818176 39.318749999999966 C -13.57851961324126 31.781932865403665 -11.748159985671188 20.92746162133318 -10.97062267282314 13.106249999999989 C -10.184627545957815 5.199961621333196 -8.150866855412348 -5.244950221056274 -6.920043382773599 -13.106249999999989 C -5.688452660526254 -20.972450221056278 -3.6878738788089973 -31.417362675146574 -2.7625753565361606 -39.31875000000002 Q -1.8460919346089693 -47.14486267514658 -0.7807702354401727 -65.53125 L 0.7807702354401727 -65.53125 Q 1.8460919346089693 -47.14486267514658 2.7625753565361606 -39.31875000000002 C 3.6878738788089973 -31.417362675146574 5.688452660526254 -20.972450221056278 6.920043382773599 -13.106249999999989 C 8.150866855412348 -5.244950221056274 10.184627545957817 5.199961621333197 10.97062267282314 13.106249999999989 C 11.748159985671188 20.927461621333183 13.578519613241262 31.781932865403665 12.131818181818176 39.318749999999966 Q 10.559606409381857 47.50943286540366 0.9075786599584603 65.53124999999997 L -0.9075786599584603 65.53124999999997" fill-opacity="0.25" stroke-linejoin="mitter" stroke-miterlimit="10"/><g transform="translate(-388.4160937500001,-153.75625000000002)"/></g><g transform="translate(148.20609375,435.540625)"><path fill="rgb(248,204,3)" stroke="rgb(0,0,0)" paint-order="fill stroke markers" d=" M -2.091692789968647 14.416875000000005 Q 0 12.130173605792983 0 11.79562500000003 C -2.3713299491085675 10.55742360579298 -12.131818181818176 9.960749999999999 -12.131818181818176 9.174374999999998 C -12.131818181818176 8.387999999999996 -2.0970157498206548 7.74763435550624 0 6.553125000000023 C 0 6.174884355506238 -2.9283699059561172 4.718249999999996 -2.9283699059561172 3.931874999999991 C -2.9283699059561172 3.1454999999999935 0 2.0970000000000084 0 1.310625000000016 C 0 0.5242500000000234 -2.9283699059561172 -0.524249999999962 -2.9283699059561172 -1.310624999999959 C -2.9283699059561172 -2.096999999999964 -0.4494518854400672 -2.9931411027790116 0 -3.931874999999991 C 0 -4.565891102779013 -0.4183385579937351 -5.766749999999973 -0.4183385579937351 -6.553124999999966 C -0.4183385579937351 -7.339499999999975 0 -8.387999999999987 0 -9.174374999999998 C 0 -9.96074999999999 -0.4183385579937351 -11.00924999999998 -0.4183385579937351 -11.795624999999973 Q -0.4183385579937351 -12.581999999999981 0 -14.416875000000005 L 0 -14.416875000000005 Q 0.4183385579937351 -12.581999999999983 0.4183385579937351 -11.795624999999973 C 0.4183385579937351 -11.00924999999998 0 -9.96074999999999 0 -9.174374999999998 C 0 -8.38799999999999 0.4183385579937351 -7.339499999999975 0.4183385579937351 -6.553124999999966 C 0.4183385579937351 -5.766749999999973 0 -4.565891102779013 0 -3.931874999999991 C 0.44945188544006714 -2.9931411027790116 2.9283699059561172 -2.0969999999999636 2.9283699059561172 -1.310624999999959 C 2.9283699059561172 -0.5242499999999617 0 0.5242500000000234 0 1.310625000000016 C 0 2.0970000000000084 2.9283699059561172 3.145499999999994 2.9283699059561172 3.931874999999991 C 2.9283699059561172 4.718249999999996 0 6.174884355506238 0 6.553125000000023 C 2.0970157498206543 7.74763435550624 12.131818181818176 8.387999999999996 12.131818181818176 9.174374999999998 C 12.131818181818176 9.960749999999999 2.3713299491085675 10.55742360579298 0 11.79562500000003 Q 0 12.130173605792983 2.091692789968647 14.416875000000005 L -2.091692789968647 14.416875000000005" fill-opacity="0.25" stroke-linejoin="mitter" stroke-miterlimit="10"/><g transform="translate(-148.20609375,-435.540625)"/></g><g transform="translate(281.65609375,376.5625)"><path fill="rgb(248,204,3)" stroke="rgb(0,0,0)" paint-order="fill stroke markers" d=" M -12.131818181818176 26.212499999999977 Q -8.66558441558442 18.872999999999966 -8.66558441558442 15.727499999999964 C -8.66558441558442 12.581999999999976 -12.61814115000541 8.184653741109965 -12.131818181818176 5.242500000000007 C -11.578271020135285 1.8936537411099743 -6.859992134399338 -1.8936537411099743 -5.199350649350663 -5.242500000000007 C -3.7403817447889574 -8.184653741109965 -2.527984754734219 -12.521642116593561 -1.7331168831169066 -15.727499999999964 Q -0.9681795599290203 -18.81264211659355 0 -26.212499999999977 L 0 -26.212499999999977 Q 0.9681795599290203 -18.81264211659355 1.7331168831169066 -15.727499999999964 C 2.527984754734219 -12.521642116593561 3.7403817447889574 -8.184653741109965 5.199350649350663 -5.242500000000007 C 6.859992134399338 -1.8936537411099743 11.578271020135285 1.8936537411099743 12.131818181818176 5.242500000000007 C 12.61814115000541 8.184653741109965 8.66558441558442 12.581999999999976 8.66558441558442 15.727499999999964 Q 8.66558441558442 18.872999999999966 12.131818181818176 26.212499999999977 L -12.131818181818176 26.212499999999977" fill-opacity="0.25" stroke-linejoin="mitter" stroke-miterlimit="10"/><g transform="translate(-281.65609375,-376.5625)"/></g><g transform="translate(415.10609375,355.5925)"><path fill="rgb(248,204,3)" stroke="rgb(0,0,0)" paint-order="fill stroke markers" d=" M 0 36.69749999999999 Q -1.3575228249361597 29.376569948180627 -1.6677594110510654 26.212500000000034 C -1.9743544358716687 23.085569948180638 -0.740387748418087 18.364201410464492 -2.05610536978503 15.72750000000002 C -3.87960537964822 12.073201410464499 -10.829107695123856 8.854964837267955 -12.131818181818176 5.242500000000064 C -13.097739236460075 2.5639648372679646 -10.226815490481448 -2.069161082006385 -9.618210507572428 -5.24249999999995 C -9.020283806843485 -8.360161082006393 -8.511849084660593 -12.57554545126074 -8.110045903024968 -15.727499999999964 C -7.7098883404357705 -18.866545451260748 -7.920935416158804 -23.265750726949378 -6.945008026823018 -26.212499999999977 Q -5.837433008111882 -29.556750726949385 -1.1650378762018931 -36.69749999999999 L 1.1650378762018931 -36.69749999999999 Q 5.837433008111883 -29.556750726949385 6.945008026823018 -26.212499999999977 C 7.920935416158805 -23.265750726949378 7.7098883404357705 -18.866545451260748 8.110045903024968 -15.727499999999964 C 8.511849084660593 -12.57554545126074 9.020283806843485 -8.360161082006393 9.618210507572428 -5.24249999999995 C 10.226815490481448 -2.069161082006385 13.097739236460075 2.5639648372679646 12.131818181818176 5.242500000000064 C 10.829107695123856 8.854964837267955 3.87960537964822 12.073201410464499 2.05610536978503 15.72750000000002 C 0.740387748418087 18.364201410464492 1.974354435871669 23.085569948180638 1.6677594110510654 26.212500000000034 Q 1.35752282493616 29.376569948180627 0 36.69749999999999 L 0 36.69749999999999" fill-opacity="0.25" stroke-linejoin="mitter" stroke-miterlimit="10"/><g transform="translate(-415.10609375,-355.5925)"/></g><g transform="translate(68.13609375,193.075)"><rect fill="none" stroke="rgb(0,0,0)" x="-3.9483333333333333" y="-10.985000000000014" width="6.8966666666666665" height="20.970000000000027" stroke-linejoin="mitter" stroke-miterlimit="10"/><g transform="translate(-68.13609375,-193.075)"/></g><path fill="none" stroke="rgb(0,0,0)" paint-order="fill stroke markers" d=" M 64.68776041666666 193.5 L 71.58442708333334 193.5" stroke-miterlimit="10"/><path fill="none" stroke="rgb(0,0,0)" paint-order="fill stroke markers" d=" M 69.5 204 L 69.5 230 M 71 230.5 L 67 230.5" stroke-miterlimit="10"/><path fill="none" stroke="rgb(0,0,0)" paint-order="fill stroke markers" d=" M 69.5 183 L 69.5 152 M 71 152.5 L 67 152.5" stroke-miterlimit="10"/><g transform="translate(201.58609375,143.27125)"><rect fill="none" stroke="rgb(0,0,0)" x="-3.9483333333333333" y="-18.848749999999995" width="6.8966666666666665" height="36.69749999999999" stroke-linejoin="mitter" stroke-miterlimit="10"/><g transform="translate(-201.58609375,-143.27125)"/></g><path fill="none" stroke="rgb(0,0,0)" paint-order="fill stroke markers" d=" M 198.13776041666668 146.5 L 205.03442708333336 146.5" stroke-miterlimit="10"/><path fill="none" stroke="rgb(0,0,0)" paint-order="fill stroke markers" d=" M 202.5 162 L 202.5 199 M 204 199.5 L 200 199.5" stroke-miterlimit="10"/><path fill="none" stroke="rgb(0,0,0)" paint-order="fill stroke markers" d=" M 202.5 125 L 202.5 89 M 204 89.5 L 200 89.5" stroke-miterlimit="10"/><g transform="translate(335.03609375,111.81625)"><rect fill="none" stroke="rgb(0,0,0)" x="-3.9483333333333333" y="-18.848750000000024" width="6.8966666666666665" height="36.69750000000005" stroke-linejoin="mitter" stroke-miterlimit="10"/><g transform="translate(-335.03609375,-111.81625)"/></g><path fill="none" stroke="rgb(0,0,0)" paint-order="fill stroke markers" d=" M 331.5877604166667 114.5 L 338.48442708333334 114.5" stroke-miterlimit="10"/><path fill="none" stroke="rgb(0,0,0)" paint-order="fill stroke markers" d=" M 336.5 131 L 336.5 162 M 338 162.5 L 334 162.5" stroke-miterlimit="10"/><path fill="none" stroke="rgb(0,0,0)" paint-order="fill stroke markers" d=" M 336.5 94 L 336.5 42 M 338 42.5 L 334 42.5" stroke-miterlimit="10"/><g transform="translate(94.82609375000001,274.33375)"><rect fill="none" stroke="rgb(0,0,0)" x="-3.9483333333333333" y="-13.606250000000017" width="6.8966666666666665" height="26.212500000000034" stroke-linejoin="mitter" stroke-miterlimit="10"/><g transform="translate(-94.82609375000001,-274.33375)"/></g><path fill="none" stroke="rgb(0,0,0)" paint-order="fill stroke markers" d=" M 91.37776041666667 277.5 L 98.27442708333334 277.5" stroke-miterlimit="10"/><path fill="none" stroke="rgb(0,0,0)" paint-order="fill stroke markers" d=" M 95.5 288 L 95.5 304 M 97 304.5 L 93 304.5" stroke-miterlimit="10"/><path fill="none" stroke="rgb(0,0,0)" paint-order="fill stroke markers" d=" M 95.5 262 L 95.5 225 M 97 225.5 L 93 225.5" stroke-miterlimit="10"/><g transform="translate(228.27609375000003,311.03125)"><rect fill="none" stroke="rgb(0,0,0)" x="-3.9483333333333333" y="-13.606249999999989" width="6.8966666666666665" height="26.212499999999977" stroke-linejoin="mitter" stroke-miterlimit="10"/><g transform="translate(-228.27609375000003,-311.03125)"/></g><path fill="none" stroke="rgb(0,0,0)" paint-order="fill stroke markers" d=" M 224.8277604166667 308.5 L 231.72442708333338 308.5" stroke-miterlimit="10"/><path fill="none" stroke="rgb(0,0,0)" paint-order="fill stroke markers" d=" M 229.5 325 L 229.5 351 M 231 351.5 L 227 351.5" stroke-miterlimit="10"/><path fill="none" stroke="rgb(0,0,0)" paint-order="fill stroke markers" d=" M 229.5 298 L 229.5 277 M 231 277.5 L 227 277.5" stroke-miterlimit="10"/><g transform="translate(361.7260937500001,297.92499999999995)"><rect fill="none" stroke="rgb(0,0,0)" x="-3.9483333333333333" y="-10.984999999999985" width="6.8966666666666665" height="20.96999999999997" stroke-linejoin="mitter" stroke-miterlimit="10"/><g transform="translate(-361.7260937500001,-297.92499999999995)"/></g><path fill="none" stroke="rgb(0,0,0)" paint-order="fill stroke markers" d=" M 358.27776041666675 298.5 L 365.1744270833334 298.5" stroke-miterlimit="10"/><path fill="none" stroke="rgb(0,0,0)" paint-order="fill stroke markers" d=" M 362.5 309 L 362.5 340 M 364 340.5 L 360 340.5" stroke-miterlimit="10"/><path fill="none" stroke="rgb(0,0,0)" paint-order="fill stroke markers" d=" M 362.5 288 L 362.5 256 M 364 256.5 L 360 256.5" stroke-miterlimit="10"/><g transform="translate(121.51609375000001,376.5625)"><rect fill="none" stroke="rgb(0,0,0)" x="-3.9483333333333333" y="-5.742500000000007" width="6.8966666666666665" height="10.485000000000014" stroke-linejoin="mitter" stroke-miterlimit="10"/><g transform="translate(-121.51609375000001,-376.5625)"/></g><path fill="none" stroke="rgb(0,0,0)" paint-order="fill stroke markers" d=" M 118.06776041666667 377.5 L 124.96442708333333 377.5" stroke-miterlimit="10"/><path fill="none" stroke="rgb(0,0,0)" paint-order="fill stroke markers" d=" M 122.5 382 L 122.5 398 M 124 398.5 L 120 398.5" stroke-miterlimit="10"/><path fill="none" stroke="rgb(0,0,0)" paint-order="fill stroke markers" d=" M 122.5 372 L 122.5 356 M 124 356.5 L 120 356.5" stroke-miterlimit="10"/><g transform="translate(254.96609375000003,229.7725)"><rect fill="none" stroke="rgb(0,0,0)" x="-3.9483333333333333" y="-16.227499999999992" width="6.8966666666666665" height="31.454999999999984" stroke-linejoin="mitter" stroke-miterlimit="10"/><g transform="translate(-254.96609375000003,-229.7725)"/></g><path fill="none" stroke="rgb(0,0,0)" paint-order="fill stroke markers" d=" M 251.5177604166667 227.5 L 258.41442708333335 227.5" stroke-miterlimit="10"/><path fill="none" stroke="rgb(0,0,0)" paint-order="fill stroke markers" d=" M 255.5 246 L 255.5 283 M 257 283.5 L 253 283.5" stroke-miterlimit="10"/><path fill="none" stroke="rgb(0,0,0)" paint-order="fill stroke markers" d=" M 255.5 215 L 255.5 188 M 257 188.5 L 253 188.5" stroke-miterlimit="10"/><g transform="translate(388.41609375,166.8625)"><rect fill="none" stroke="rgb(0,0,0)" x="-3.9483333333333333" y="-21.470000000000027" width="6.8966666666666665" height="41.940000000000055" stroke-linejoin="mitter" stroke-miterlimit="10"/><g transform="translate(-388.41609375,-166.8625)"/></g><path fill="none" stroke="rgb(0,0,0)" paint-order="fill stroke markers" d=" M 384.9677604166667 164.5 L 391.86442708333334 164.5" stroke-miterlimit="10"/><path fill="none" stroke="rgb(0,0,0)" paint-order="fill stroke markers" d=" M 389.5 188 L 389.5 220 M 391 220.5 L 387 220.5" stroke-miterlimit="10"/><path fill="none" stroke="rgb(0,0,0)" paint-order="fill stroke markers" d=" M 389.5 146 L 389.5 94 M 391 94.5 L 387 94.5" stroke-miterlimit="10"/><g transform="translate(148.20609375,442.09375)"><rect fill="none" stroke="rgb(0,0,0)" x="-3.9483333333333333" y="-3.1212500000000034" width="6.8966666666666665" height="5.242500000000007" stroke-linejoin="mitter" stroke-miterlimit="10"/><g transform="translate(-148.20609375,-442.09375)"/></g><path fill="none" stroke="rgb(0,0,0)" paint-order="fill stroke markers" d=" M 144.75776041666668 445.5 L 151.65442708333336 445.5" stroke-miterlimit="10"/><path fill="none" stroke="rgb(0,0,0)" paint-order="fill stroke markers" d=" M 149.5 445 L 149.5 450 M 151 450.5 L 147 450.5" stroke-miterlimit="10"/><path fill="none" stroke="rgb(0,0,0)" paint-order="fill stroke markers" d=" M 149.5 440 L 149.5 435 M 151 435.5 L 147 435.5" stroke-miterlimit="10"/><g transform="translate(281.65609375,384.42625)"><rect fill="none" stroke="rgb(0,0,0)" x="-3.9483333333333333" y="-8.363749999999982" width="6.8966666666666665" height="15.727499999999964" stroke-linejoin="mitter" stroke-miterlimit="10"/><g transform="translate(-281.65609375,-384.42625)"/></g><path fill="none" stroke="rgb(0,0,0)" paint-order="fill stroke markers" d=" M 278.2077604166667 387.5 L 285.10442708333335 387.5" stroke-miterlimit="10"/><path fill="none" stroke="rgb(0,0,0)" paint-order="fill stroke markers" d=" M 282.5 393 L 282.5 403 M 284 403.5 L 280 403.5" stroke-miterlimit="10"/><path fill="none" stroke="rgb(0,0,0)" paint-order="fill stroke markers" d=" M 282.5 377 L 282.5 361 M 284 361.5 L 280 361.5" stroke-miterlimit="10"/><g transform="translate(415.10609375000007,347.72875)"><rect fill="none" stroke="rgb(0,0,0)" x="-3.9483333333333333" y="-13.606249999999989" width="6.8966666666666665" height="26.212499999999977" stroke-linejoin="mitter" stroke-miterlimit="10"/><g transform="translate(-415.10609375000007,-347.72875)"/></g><path fill="none" stroke="rgb(0,0,0)" paint-order="fill stroke markers" d=" M 411.65776041666675 350.5 L 418.5544270833334 350.5" stroke-miterlimit="10"/><path fill="none" stroke="rgb(0,0,0)" paint-order="fill stroke markers" d=" M 416.5 361 L 416.5 382 M 418 382.5 L 414 382.5" stroke-miterlimit="10"/><path fill="none" stroke="rgb(0,0,0)" paint-order="fill stroke markers" d=" M 416.5 335 L 416.5 325 M 418 325.5 L 414 325.5" stroke-miterlimit="10"/></g></g><g transform="translate(11.400000000000006,245.5) rotate(-90,0,0)"><text fill="rgb(0,0,0)" stroke="none" font-family="Arial" font-size="10px" font-style="italic" font-weight="normal" text-decoration="normal" x="0" y="0" text-anchor="middle" dominant-baseline="central"></text></g><g transform="translate(35.046093750000004,455.2)"><text fill="rgb(0,0,0)" stroke="none" font-family="Arial" font-size="40px" font-style="normal" font-weight="bold" text-decoration="normal" x="0" y="0" text-anchor="end" dominant-baseline="central">0</text></g><g transform="translate(35.046093750000004,350.35)"><text fill="rgb(0,0,0)" stroke="none" font-family="Arial" font-size="40px" font-style="normal" font-weight="bold" text-decoration="normal" x="0" y="0" text-anchor="end" dominant-baseline="central">2</text></g><g transform="translate(35.046093750000004,245.5)"><text fill="rgb(0,0,0)" stroke="none" font-family="Arial" font-size="40px" font-style="normal" font-weight="bold" text-decoration="normal" x="0" y="0" text-anchor="end" dominant-baseline="central">4</text></g><g transform="translate(35.046093750000004,140.65000000000003)"><text fill="rgb(0,0,0)" stroke="none" font-family="Arial" font-size="40px" font-style="normal" font-weight="bold" text-decoration="normal" x="0" y="0" text-anchor="end" dominant-baseline="central">6</text></g><g transform="translate(35.046093750000004,35.80000000000001)"><text fill="rgb(0,0,0)" stroke="none" font-family="Arial" font-size="40px" font-style="normal" font-weight="bold" text-decoration="normal" x="0" y="0" text-anchor="end" dominant-baseline="central">8</text></g><g transform="translate(244.85283203125002,518.4)"><text fill="rgb(0,0,0)" stroke="none" font-family="Arial" font-size="40px" font-style="normal" font-weight="normal" text-decoration="normal" x="0" y="0" text-anchor="middle" dominant-baseline="central">Species</text></g><g transform="translate(111.37109375000001,464.79999999999995)"><text fill="rgb(0,0,0)" stroke="none" font-family="Arial" font-size="32px" font-style="italic" font-weight="normal" text-decoration="normal" x="0" y="0" text-anchor="middle" dominant-baseline="central">setosa</text></g><g transform="translate(244.82109375000005,464.79999999999995)"><text fill="rgb(0,0,0)" stroke="none" font-family="Arial" font-size="32px" font-style="italic" font-weight="normal" text-decoration="normal" x="0" y="0" text-anchor="middle" dominant-baseline="central">versicolor</text></g><g transform="translate(378.2710937500001,464.79999999999995)"><text fill="rgb(0,0,0)" stroke="none" font-family="Arial" font-size="32px" font-style="italic" font-weight="normal" text-decoration="normal" x="0" y="0" text-anchor="middle" dominant-baseline="central">virginica</text></g><g transform="translate(201.61148437500003,392.28999999999996)"><text fill="rgb(0,0,0)" stroke="none" font-family="Arial" font-size="16px" font-style="normal" font-weight="normal" text-decoration="normal" x="0" y="0" text-anchor="middle" dominant-baseline="central">Species with</text></g><g transform="translate(201.61148437500003,413.28999999999996)"><text fill="rgb(0,0,0)" stroke="none" font-family="Arial" font-size="16px" font-style="normal" font-weight="normal" text-decoration="normal" x="0" y="0" text-anchor="middle" dominant-baseline="central">lowest petal</text></g><g transform="translate(201.61148437500003,434.28999999999996)"><text fill="rgb(0,0,0)" stroke="none" font-family="Arial" font-size="16px" font-style="normal" font-weight="normal" text-decoration="normal" x="0" y="0" text-anchor="middle" dominant-baseline="central">width</text></g><path fill="none" stroke="rgb(0,0,0)" paint-order="fill stroke markers" d=" M 154.5 384.28999999999996 L 154.5 438.68999999999994" stroke-miterlimit="10"/><path fill="none" stroke="rgb(0,0,0)" paint-order="fill stroke markers" d=" M 148.20609375 442.09375 L 153.50132812500004 411.48999999999995" stroke-miterlimit="10"/><g transform="translate(489.5,245.5)"><rect fill="rgb(255,255,255)" stroke="none" x="-45" y="-32" width="89" height="63"/><g transform="translate(-489.5,-245.5)"/></g><g transform="translate(453.25957031249993,222.1)"><rect fill="rgb(254,41,108)" stroke="none" x="-5.5" y="-5.5" width="10" height="10"/><rect fill="none" stroke="rgb(0,0,0)" x="-5.5" y="-5.5" width="10" height="10" stroke-linejoin="mitter" stroke-miterlimit="10"/><g transform="translate(-453.25957031249993,-222.1)"/></g><g transform="translate(468.25957031249993,222.1)"><text fill="rgb(0,0,0)" stroke="none" font-family="Arial" font-size="10px" font-style="normal" font-weight="normal" text-decoration="normal" x="0" y="0" text-anchor="start" dominant-baseline="central">Sepal.Length</text></g><g transform="translate(453.25957031249993,237.1)"><rect fill="rgb(72,126,182)" stroke="none" x="-5.5" y="-5.5" width="10" height="10"/><rect fill="none" stroke="rgb(0,0,0)" x="-5.5" y="-5.5" width="10" height="10" stroke-linejoin="mitter" stroke-miterlimit="10"/><g transform="translate(-453.25957031249993,-237.1)"/></g><g transform="translate(468.25957031249993,237.1)"><text fill="rgb(0,0,0)" stroke="none" font-family="Arial" font-size="10px" font-style="normal" font-weight="normal" text-decoration="normal" x="0" y="0" text-anchor="start" dominant-baseline="central">Sepal.Width</text></g><g transform="translate(453.25957031249993,252.1)"><rect fill="rgb(167,206,49)" stroke="none" x="-5.5" y="-5.5" width="10" height="10"/><rect fill="none" stroke="rgb(0,0,0)" x="-5.5" y="-5.5" width="10" height="10" stroke-linejoin="mitter" stroke-miterlimit="10"/><g transform="translate(-453.25957031249993,-252.1)"/></g><g transform="translate(468.25957031249993,252.1)"><text fill="rgb(0,0,0)" stroke="none" font-family="Arial" font-size="10px" font-style="normal" font-weight="normal" text-decoration="normal" x="0" y="0" text-anchor="start" dominant-baseline="central">Petal.Length</text></g><g transform="translate(453.25957031249993,267.1)"><rect fill="rgb(248,204,3)" stroke="none" x="-5.5" y="-5.5" width="10" height="10"/><rect fill="none" stroke="rgb(0,0,0)" x="-5.5" y="-5.5" width="10" height="10" stroke-linejoin="mitter" stroke-miterlimit="10"/><g transform="translate(-453.25957031249993,-267.1)"/></g><g transform="translate(468.25957031249993,267.1)"><text fill="rgb(0,0,0)" stroke="none" font-family="Arial" font-size="10px" font-style="normal" font-weight="normal" text-decoration="normal" x="0" y="0" text-anchor="start" dominant-baseline="central">Petal.Width</text></g><g transform="translate(270,14.7)"><text fill="rgb(0,0,0)" stroke="none" font-family="Arial" font-size="23px" font-style="normal" font-weight="normal" text-decoration="normal" x="0" y="0" text-anchor="middle" dominant-baseline="central">      </text></g></g></svg>