<?xml version="1.0" encoding="UTF-8" standalone="no"?>
<!-- Generator: Adobe Illustrator 22.0.0, SVG Export Plug-In . SVG Version: 6.00 Build 0)  -->

<svg
   xmlns:dc="http://purl.org/dc/elements/1.1/"
   xmlns:cc="http://creativecommons.org/ns#"
   xmlns:rdf="http://www.w3.org/1999/02/22-rdf-syntax-ns#"
   xmlns:svg="http://www.w3.org/2000/svg"
   xmlns="http://www.w3.org/2000/svg"
   xmlns:sodipodi="http://sodipodi.sourceforge.net/DTD/sodipodi-0.dtd"
   xmlns:inkscape="http://www.inkscape.org/namespaces/inkscape"
   version="1.1"
   id="locked"
   x="0px"
   y="0px"
   viewBox="0 0 60 60"
   style="enable-background:new 0 0 60 60;"
   xml:space="preserve"
   sodipodi:docname="diagrammee-0.svg"
   inkscape:version="0.92.2 5c3e80d, 2017-08-06"><metadata
     id="metadata4077"><rdf:RDF><cc:Work
         rdf:about=""><dc:format>image/svg+xml</dc:format><dc:type
           rdf:resource="http://purl.org/dc/dcmitype/StillImage" /></cc:Work></rdf:RDF></metadata><defs
     id="defs4075" /><sodipodi:namedview
     pagecolor="#ffffff"
     bordercolor="#666666"
     borderopacity="1"
     objecttolerance="10"
     gridtolerance="10"
     guidetolerance="10"
     inkscape:pageopacity="0"
     inkscape:pageshadow="2"
     inkscape:window-width="1844"
     inkscape:window-height="1301"
     id="namedview4073"
     showgrid="false"
     inkscape:zoom="14.08"
     inkscape:cx="30"
     inkscape:cy="30"
     inkscape:window-x="0"
     inkscape:window-y="0"
     inkscape:window-maximized="0"
     inkscape:current-layer="g4068" /><style
     type="text/css"
     id="style3953">
	.st0{fill:none;stroke:#DB2780;stroke-width:0.2;stroke-miterlimit:10;}
	.st1{fill:none;stroke:#6D7777;stroke-width:0.6;stroke-miterlimit:10;}
	.st2{fill:#6D7777;}
	.st3{fill:none;stroke:#734098;stroke-width:0.2;stroke-linecap:round;stroke-linejoin:round;stroke-miterlimit:10;}
	.st4{fill:none;stroke:#4178BE;stroke-width:0.2;stroke-miterlimit:10;}
	.st5{fill:none;stroke:#4178BE;stroke-width:0.2;stroke-linecap:round;stroke-linejoin:round;stroke-miterlimit:10;}
	.st6{fill:none;stroke:#008571;stroke-width:0.2;stroke-miterlimit:10;}
	.st7{fill:none;stroke:#E71D32;stroke-width:0.2;stroke-miterlimit:10;}
	.st8{fill:none;stroke:#734098;stroke-width:0.2;stroke-miterlimit:10;}
	.st9{fill:none;stroke:#006D5D;stroke-width:0.2;stroke-miterlimit:10;}
	.st10{fill:none;stroke:#EFC100;stroke-width:0.2;stroke-miterlimit:10;}
	.st11{fill:none;stroke:#EFC100;stroke-width:0.2;stroke-linecap:round;stroke-linejoin:round;stroke-miterlimit:10;}
	.st12{fill:none;stroke:#EFC100;stroke-width:0.2;stroke-linecap:round;stroke-miterlimit:10;}
	.st13{fill:none;stroke:#DB2780;stroke-width:0.2;stroke-linecap:round;stroke-linejoin:round;stroke-miterlimit:10;}
	.st14{fill:none;stroke:#E71D32;stroke-width:0.2;stroke-linecap:round;stroke-linejoin:round;stroke-miterlimit:10;}
	.st15{fill:none;stroke:#E71D32;stroke-width:0.2;stroke-linecap:round;stroke-miterlimit:10;}
	.st16{fill:none;stroke:#006D5D;stroke-width:0.2;stroke-linecap:round;stroke-linejoin:round;stroke-miterlimit:10;}
	.st17{stroke:#008571;stroke-width:0.2;}
	.st18{fill:none;}
</style><title
     id="title3955">Atlas-Icons-v8 (Page 3)</title><g
     id="g4068"><polygon
       class="st0"
       points="34,42.2 24.3,42.2 19.4,50.6 24.3,59 34,59 38.8,50.6  "
       id="polygon3957" /><g
       id="g3967"><g
         id="g3965"><path
           class="st1"
           d="M10.5,11c2.6-2.5,5.7-4.5,9.1-5.8"
           id="path3959" /><g
           id="g3963"><polygon
             class="st2"
             points="21.1,4.7 19.3,6.4 19.5,5.3 18.6,4.6     "
             id="polygon3961" /></g></g></g><g
       id="g3977"><g
         id="g3975"><path
           class="st1"
           d="M2.5,36.1C2.2,34.4,2,32.6,2,30.7c0-1.3,0.1-2.5,0.3-3.8"
           id="path3969" /><g
           id="g3973"><path
             class="st2"
             d="M2.2,27.4l-0.9,0.4l0,0L2,26.5c0.2-0.5,0.4-0.9,0.5-1.4c0,0.5,0.1,1,0.1,1.5L3,28l0,0L2.2,27.4z"
             id="path3971" /></g></g></g><g
       id="g3987"><g
         id="g3985"><path
           class="st1"
           d="M20.7,56.7c-3-1-5.8-2.5-8.3-4.5"
           id="path3979" /><g
           id="g3983"><path
             class="st2"
             d="M12.8,52.4l-0.1,1l0,0L12,52.1c-0.3-0.4-0.6-0.8-0.9-1.1c0.4,0.2,0.9,0.4,1.3,0.7l1.4,0.4l0,0L12.8,52.4z"
             id="path3981" /></g></g></g><g
       id="g3997"><g
         id="g3995"><path
           class="st1"
           d="M47.8,50.8c-2.5,2.3-5.4,4.1-8.7,5.4"
           id="path3989" /><g
           id="g3993"><path
             class="st2"
             d="M39.5,56l0.8,0.6l0,0h-1.5c-0.5,0.1-1,0.1-1.4,0.2c0.4-0.3,0.8-0.5,1.2-0.8l1.1-1l0,0L39.5,56z"
             id="path3991" /></g></g></g><g
       id="g4007"><g
         id="g4005"><path
           class="st1"
           d="M56.1,25.2c0.4,1.8,0.6,3.7,0.6,5.6c0,1.4-0.1,2.7-0.3,4"
           id="path3999" /><g
           id="g4003"><path
             class="st2"
             d="M56.4,34.3l0.9-0.4l0,0l-0.8,1.3c-0.2,0.5-0.4,0.9-0.5,1.4c0-0.5-0.1-1-0.1-1.5l-0.3-1.4l0,0L56.4,34.3z"
             id="path4001" /></g></g></g><g
       id="g4017"><g
         id="g4015"><path
           class="st1"
           d="M37.9,4.8c2.2,0.7,4.3,1.8,6.2,3c0.5,0.3,1,0.6,1.4,1"
           id="path4009" /><g
           id="g4013"><path
             class="st2"
             d="M45.3,8.6l0.1-1l0,0l0.7,1.3c0.3,0.4,0.6,0.8,0.9,1.1c-0.4-0.2-0.9-0.4-1.3-0.6L44.3,9l0,0L45.3,8.6z"
             id="path4011" /></g></g></g><g
       id="g4023" /><polygon
       class="st4"
       points="34,23.1 24.3,23.1 19.4,31.5 24.3,39.9 34,39.9 38.8,31.5  "
       id="polygon4025" /><polygon
       class="st6"
       points="51,13.8 41.3,13.8 36.5,22.2 41.3,30.6 51,30.6 55.9,22.2  "
       id="polygon4030" /><polygon
       class="st7"
       points="17,13.8 7.3,13.8 2.4,22.2 7.3,30.6 17,30.6 21.8,22.2  "
       id="polygon4032" /><polygon
       class="st8"
       points="51,32.7 41.3,32.7 36.5,41.1 41.3,49.5 51,49.5 55.9,41.1  "
       id="polygon4034" /><polygon
       class="st9"
       points="17,32.7 7.3,32.7 2.4,41.1 7.3,49.5 17,49.5 21.8,41.1  "
       id="polygon4036" /><polygon
       class="st10"
       points="34,4 24.3,4 19.4,12.4 24.3,20.8 34,20.8 38.8,12.4  "
       id="polygon4038" /></g><rect
     x="1"
     y="-1"
     class="st18"
     width="60"
     height="60"
     id="rect4070" /></svg>
